/* XPM */
static char *_ba248edbb83431ada7f9dbdcebe3cf7Hi2z057abmDF5gWl[] = {
/* columns rows colors chars-per-pixel */
"31 31 192 2 ",
"   c None",
".  c #070101",
"X  c #010000",
"o  c #060000",
"O  c #090203",
"+  c #3F0000",
"@  c #050000",
"#  c #0B0001",
"$  c #060101",
"%  c #090002",
"&  c #070203",
"*  c black",
"=  c black",
"-  c black",
";  c black",
":  c black",
">  c black",
",  c black",
"<  c #0D0102",
"1  c #551422",
"2  c #642032",
"3  c black",
"4  c black",
"5  c black",
"6  c #020000",
"7  c #060203",
"8  c black",
"9  c black",
"0  c black",
"q  c #160405",
"w  c black",
"e  c #040000",
"r  c #6B2437",
"t  c #090507",
"y  c black",
"u  c #0B0102",
"i  c #010000",
"p  c black",
"a  c #000103",
"s  c #0C0000",
"d  c #2F1720",
"f  c black",
"g  c black",
"h  c #47212B",
"j  c #220F13",
"k  c black",
"l  c None",
"z  c #3A1D2A",
"x  c #330D11",
"c  c #29080E",
"v  c black",
"b  c black",
"n  c #340708",
"m  c #020101",
"M  c #080001",
"N  c black",
"B  c #7A0B3E",
"V  c #58062C",
"C  c black",
"Z  c #260605",
"A  c #240006",
"S  c black",
"D  c #230605",
"F  c #570519",
"G  c #10070A",
"H  c #6C021E",
"J  c #240007",
"K  c black",
"L  c black",
"P  c black",
"I  c black",
"U  c black",
"Y  c black",
"T  c black",
"R  c #450E18",
"E  c #632538",
"W  c #B4547A",
"Q  c #EF7EB1",
"!  c #FB88C0",
"~  c #E375A5",
"^  c #A44668",
"/  c #411825",
"(  c #9B4760",
")  c #F78DC4",
"_  c #F989C1",
"`  c #FF9DD9",
"'  c #F48BC2",
"]  c #FE9EDA",
"[  c #E788BB",
"{  c #472534",
"}  c #F990C8",
"|  c #D46C94",
" . c #DA809A",
".. c #DD74A1",
"X. c #C66377",
"o. c #F99FD3",
"O. c #FFA3DF",
"+. c #FFA3E0",
"@. c #D074A3",
"#. c #BD486C",
"$. c #FFA4E1",
"%. c #764156",
"&. c #D27D9B",
"*. c #A56285",
"=. c #8C4853",
"-. c #FC9FD4",
";. c #FFA4E0",
":. c #F597D0",
">. c #6D344B",
",. c #E282B2",
"<. c #FF96D7",
"1. c #5D2F49",
"2. c #D26997",
"3. c #945E82",
"4. c #812740",
"5. c #FF7CBE",
"6. c #FF91D3",
"7. c #FFA2DE",
"8. c #FF9CD5",
"9. c #F183B9",
"0. c #591F2F",
"q. c #DF7AA5",
"w. c #FF9DD5",
"e. c #FF7BC1",
"r. c #A14979",
"t. c #E996CD",
"y. c #C17BA8",
"u. c #BF6793",
"i. c #FF5AAE",
"p. c #FF6FBD",
"a. c #FFA4DF",
"s. c #C46C93",
"d. c #FF83B9",
"f. c #FE91C6",
"g. c #F37FB4",
"h. c #FF9BD3",
"j. c #FC8AC1",
"k. c #FF9BD4",
"l. c #F88DC5",
"z. c #AF3753",
"x. c #E45E8A",
"c. c #FE9DD8",
"v. c #FB97D1",
"b. c #FF9AD3",
"n. c #FB80B5",
"m. c #F16C9C",
"M. c #DA6893",
"N. c #AF4060",
"B. c #B0223F",
"V. c #F476A9",
"C. c #FD92CB",
"Z. c #FF9DD6",
"A. c #FD95CE",
"S. c #FC8EC7",
"D. c #FB80B4",
"F. c #F16899",
"G. c #D73266",
"H. c #61071D",
"J. c #DE1465",
"K. c #E33271",
"L. c #E85E8B",
"P. c #FA7DB1",
"I. c #FB7FB3",
"U. c #FA77AB",
"Y. c #F46C9E",
"T. c #F04E8B",
"R. c #F62F84",
"E. c #F2257E",
"W. c #D4508F",
"Q. c #C61357",
"!. c #FF1584",
"~. c #ED0C6A",
"^. c #CA1045",
"/. c #E14370",
"(. c #E35E8F",
"). c #CE5E89",
"_. c #DC4071",
"`. c #E91067",
"'. c #FF137F",
"]. c #FF1B84",
"[. c #FF2D92",
"{. c #C00848",
"}. c #660418",
"|. c #880133",
" X c #890036",
".X c #7A0022",
"XX c #75021C",
"oX c #880034",
"OX c #890136",
"+X c #8A0036",
"@X c #7C0026",
"#X c white",
/* pixels */
"                                                              ",
"                                                              ",
"                                                              ",
"                                                              ",
"                                                              ",
"                                                              ",
"                        * = - ; :                             ",
"                . X > , < 1 2 R 3 4 5                         ",
"                o 6 7 E W Q ! ~ ^ / 8 9                       ",
"                0 q ( ) _ ` ' ] ` [ { w                       ",
"              O e r } |  ...X.o.O.+.@.t y                     ",
"                u #.$.%.&.*.=.-.;.O.:.>.i p                   ",
"            a s d ,.<.1.2.3.4.5.6.7.8.9.0.f +                 ",
"            g h q.w.e.r.t.y.u.i.p.a.7.$.s.j k                 ",
"            = l d.f.O.7.g.7.;.;.a.h.j.k.l.z 9                 ",
"            > x z.x.c.O.v.7.O.O.b.n.m.M.N.c v                 ",
"            @ b n B.V.C.k.Z.A.S.D.F.G.H.m M #                 ",
"            $ N B J.K.L.P.I.U.Y.T.R.E.W.V C %                 ",
"            > Z Q.!.~.^./.(.)._.`.'.].[.{.A v                 ",
"            S D }.|. X.XXXF G H oXOXOX+X@XJ K                 ",
"              L P I I I P U & Y 4 I I I T 5                   ",
"                                                              ",
"                                                              ",
"                                                              ",
"                                                              ",
"                                                              ",
"                                                              ",
"                                                              ",
"                                                              ",
"                                                              ",
"                                                              "
};
