/* XPM */
static char *_fb70cf0dd534fb4f8a3ff1a7d2cff96KKtpK7tOA0G5kClj[] = {
/* columns rows colors chars-per-pixel */
"32 32 8 1 ",
"  c None",
". c black",
"X c #3E8948",
"o c #63C74D",
"O c #3E2731",
"+ c #733E39",
"@ c #D77643",
"# c white",
/* pixels */
"                                ",
"                                ",
"                                ",
"                                ",
"                                ",
"                                ",
"                                ",
"                                ",
"                                ",
"               .......          ",
"              ..XXXXX...        ",
"            ...XXoooXXX..       ",
"          ...XXXooooooXX..      ",
"         ..XXXoooooooooXX.      ",
"         .XXooooooooooooX.      ",
"         .XoooooooooooooX.      ",
"        ..XooooooooooooXX.      ",
"        .XXooooooooooooX..      ",
"        .XooooooXXXXXXoX.       ",
"        .XXXXXXX....XXXX.       ",
"        ...X.....OO.XX...       ",
"          ...O..++.....         ",
"           ..+++++O.            ",
"            ...+OOO.            ",
"              .+++..            ",
"              .@++.             ",
"              .@++.             ",
"              .@@+.             ",
"             ..+@+..            ",
"            ..++@++..           ",
"           ..+.O++.O..          ",
"          .............         "
};
