/* XPM */
static char *f96ac0831f024c86c85c0e8d26b8f425FHVSdUpZrnIgCGzV[] = {
/* columns rows colors chars-per-pixel */
"64 64 10 1 ",
"  c #4D9262",
". c #3E734E",
"X c black",
"o c #3E8948",
"O c #63C74D",
"+ c #7AB055",
"@ c #3E2731",
"# c #733E39",
"$ c #D77643",
"% c white",
/* pixels */
"                                                                ",
"                                                                ",
"                                              ..                ",
"                                              ..                ",
"                                            ..  ..              ",
"                                            ..  ..              ",
"                                              ..                ",
"                                              ..                ",
"                                                                ",
"                          XXXXXXXXXXXXXXXX                      ",
"                          XXXXXXXXXXXXXXXX                      ",
"                        XXXXooooooooooooXXXXXX                  ",
"                        XXXXooooooooooooXXXXXX                  ",
"                    XXXXXXooooOOOOOOOOooooooXXXX                ",
"                    XXXXXXooooOOOOOOOOooooooXXXX                ",
"                XXXXXXooooooOOOOOOOOOOOOOOooooXXXX              ",
"          ++    XXXXXXooooooOOOOOOOOOOOOOOooooXXXX              ",
"          ++  XXXXooooooOOOOOOOOOOOOOOOOOOOOooooXX              ",
"          ++  XXXXooooooOOOOOOOOOOOOOOOOOOOOooooXX              ",
"          ++  XXooooOOOOOOOOOOOOOOOOOOOOOOOOOOooXX              ",
"          ++++XXooooOOOOOOOOOOOOOOOOOOOOOOOOOOooXX              ",
"          ++++XXooOOOOOOOOOOOOOOOOOOOOOOOOOOOOooXX              ",
"          ++++XXooOOOOOOOOOOOOOOOOOOOOOOOOOOOOooXX              ",
"          ++XXXXooOOOOOOOOOOOOOOOOOOOOOOOOooooooXX              ",
"            XXXXooOOOOOOOOOOOOOOOOOOOOOOOOooooooXX              ",
"            XXooooOOOOOOOOOOOOOOOOOOOOOOOOooXXXXXX              ",
"            XXooooOOOOOOOOOOOOOOOOOOOOOOOOooXXXXXX              ",
"            XXooOOOOOOOOOOOOooooooooooooOOooXX                  ",
"            XXooOOOOOOOOOOOOooooooooooooOOooXX                  ",
"            XXooooooooooooooooXXXXXXXXooooooXX                  ",
"++          XXooooooooooooooooXXXXXXXXooooooXX                  ",
"++          XXXXXXooooXXXXXXXXXX@@@@XXooXXXXXX                  ",
"  ++        XXXXXXooooXXXXXXXXXX@@@@XXooXXXXXX                  ",
"  ++            XXXXooXX@@XXXX####XXXXXXXX                      ",
"++              XXXXooXX@@XXXX####XXXXXXXX                      ",
"++                XXXXXX##########@@XX                          ",
"                  XXXXXX##########@@XX                          ",
"                      XXXXXX##@@@@@@XX                          ",
"                      XXXXXX##@@@@@@XX                          ",
"                          XX######XXXX                          ",
"                          XX######XXXX                          ",
"                          XX$$####XX                            ",
"                  ..      XX$$####XX                            ",
"                  ..      XX$$####XX                            ",
"                ..  ..    XX$$####XX                            ",
"                ..  ..    XX$$$$##XX                            ",
"                  ..      XX$$$$##XX                            ",
"                  ..    XXXX##$$##XXXX                          ",
"                        XXXX##$$##XXXX              ++          ",
"                      XXXX####$$####XXXX            ++          ",
"                      XXXX####$$####XXXX          ++++          ",
"                    XXXX##XX@@####XX@@XXXX        ++++          ",
"                    XXXX##XX@@####XX@@XXXX        ++++          ",
"                  XXXXXXXXXXXXXXXXXXXXXXXXXX      ++++          ",
"                  XXXXXXXXXXXXXXXXXXXXXXXXXX      ++            ",
"                                                  ++            ",
"                                                                ",
"                                                                ",
"                              ++                                ",
"                              ++                                ",
"                            ++  ++                              ",
"                            ++  ++                              ",
"                                                                ",
"                                                                "
};
