/* XPM */
static char *f2d3d863206641e9b63bffc297bd295aWHVPTic8EU8EYBDb[] = {
/* columns rows colors chars-per-pixel */
"64 64 10 1 ",
"  c #4D9262",
". c #3E734E",
"X c black",
"o c #3E8948",
"O c #63C74D",
"+ c #7AB055",
"@ c #3E2731",
"# c #733E39",
"$ c #D77643",
"% c white",
/* pixels */
"                                                                ",
"                                                                ",
"                                              ..                ",
"                                              ..                ",
"                                            ..  ..              ",
"                                            ..  ..              ",
"                                              ..                ",
"                                              ..                ",
"                                                                ",
"                            XXXXXXXXXXXXXX                      ",
"                            XXXXXXXXXXXXXX                      ",
"                          XXXXooooooooooXXXXXX                  ",
"                          XXXXooooooooooXXXXXX                  ",
"                      XXXXXXooooOOOOOOooooooXXXX                ",
"                      XXXXXXooooOOOOOOooooooXXXX                ",
"                  XXXXXXooooooOOOOOOOOOOOOooooXXXX              ",
"          ++      XXXXXXooooooOOOOOOOOOOOOooooXXXX              ",
"          ++    XXXXooooooOOOOOOOOOOOOOOOOOOooooXX              ",
"          ++    XXXXooooooOOOOOOOOOOOOOOOOOOooooXX              ",
"          ++    XXooooOOOOOOOOOOOOOOOOOOOOOOOOooXX              ",
"          ++++  XXooooOOOOOOOOOOOOOOOOOOOOOOOOooXX              ",
"          ++++  XXooOOOOOOOOOOOOOOOOOOOOOOOOOOooXX              ",
"          ++++  XXooOOOOOOOOOOOOOOOOOOOOOOOOOOooXX              ",
"          ++++XXXXooOOOOOOOOOOOOOOOOOOOOOOOOooooXX              ",
"            ++XXXXooOOOOOOOOOOOOOOOOOOOOOOOOooooXX              ",
"            ++XXooooOOOOOOOOOOOOOOOOOOOOOOOOooXXXX              ",
"              XXooooOOOOOOOOOOOOOOOOOOOOOOOOooXXXX              ",
"              XXooOOOOOOOOOOOOooooooooooooOOooXX                ",
"              XXooOOOOOOOOOOOOooooooooooooOOooXX                ",
"              XXooooooooooooooXXXXXXXXooooooooXX                ",
"++            XXooooooooooooooXXXXXXXXooooooooXX                ",
"++            XXXXXXooXXXXXXXXXX@@@@XXooooXXXXXX                ",
"  ++          XXXXXXooXXXXXXXXXX@@@@XXooooXXXXXX                ",
"  ++              XXXXXX@@XXXX####XXXXXXXXXX                    ",
"++                XXXXXX@@XXXX####XXXXXXXXXX                    ",
"++                  XXXX##########@@XX                          ",
"                    XXXX##########@@XX                          ",
"                      XXXXXX##@@@@@@XX                          ",
"                      XXXXXX##@@@@@@XX                          ",
"                          XX######XXXX                          ",
"                          XX######XXXX                          ",
"                          XX$$####XX                            ",
"                  ..      XX$$####XX                            ",
"                  ..      XX$$####XX                            ",
"                ..  ..    XX$$####XX                            ",
"                ..  ..    XX$$$$##XX                            ",
"                  ..      XX$$$$##XX                            ",
"                  ..    XXXX##$$##XXXX                          ",
"                        XXXX##$$##XXXX              ++          ",
"                      XXXX####$$####XXXX            ++          ",
"                      XXXX####$$####XXXX          ++++          ",
"                    XXXX##XX@@####XX@@XXXX        ++++          ",
"                    XXXX##XX@@####XX@@XXXX        ++++          ",
"                  XXXXXXXXXXXXXXXXXXXXXXXXXX      ++++          ",
"                  XXXXXXXXXXXXXXXXXXXXXXXXXX      ++            ",
"                                                  ++            ",
"                                                                ",
"                                                                ",
"                              ++                                ",
"                              ++                                ",
"                            ++  ++                              ",
"                            ++  ++                              ",
"                                                                ",
"                                                                "
};
