/* XPM */
static char *_b721114755d495490dc05374e12088a[] = {
/* columns rows colors chars-per-pixel */
"73 73 2 1 ",
"  c black",
". c #4D9262",
/* pixels */
".........................................................................",
".........................................................................",
".........................................................................",
".........................................................................",
".........................................................................",
".........................................................................",
".........................................................................",
".........................................................................",
".........................................................................",
".........................................................................",
".........................................................................",
".........................................................................",
".........................................................................",
".........................................................................",
".........................................................................",
".........................................................................",
".........................................................................",
".........................................................................",
".........................................................................",
".........................................................................",
".........................................................................",
".........................................................................",
".........................................................................",
".........................................................................",
".........................................................................",
".........................................................................",
".........................................................................",
".........................................................................",
".........................................................................",
".........................................................................",
".........................................................................",
".........................................................................",
".........................................................................",
".........................................................................",
".........................................................................",
".........................................................................",
".........................................................................",
".........................................................................",
".........................................................................",
".........................................................................",
".........................................................................",
".........................................................................",
".........................................................................",
".........................................................................",
".........................................................................",
".........................................................................",
".........................................................................",
".........................................................................",
".........................................................................",
".........................................................................",
".........................................................................",
".........................................................................",
".........................................................................",
".........................................................................",
".........................................................................",
".........................................................................",
".........................................................................",
".........................................................................",
".........................................................................",
".........................................................................",
".........................................................................",
".........................................................................",
".........................................................................",
".........................................................................",
"                                                                         ",
"                                                                         ",
"                                                                         ",
"                                                                         ",
"                                                                         ",
"                                                                         ",
"                                                                         ",
"                                                                         ",
"                                                                         "
};
