/* XPM */
static char *becd9b767c7f4b01c0a9ff9c0a938134yzj3MncybfHMceBy[] = {
/* columns rows colors chars-per-pixel */
"32 32 138 2 ",
"   c None",
".  c #E4AF02",
"X  c #E5B402",
"o  c #ECB402",
"O  c #EDBC03",
"+  c #ECB30E",
"@  c #ECBC09",
"#  c #F2B601",
"$  c #F3BB02",
"%  c #EAB213",
"&  c #EEBC11",
"*  c #E7BB1F",
"=  c #F0BA1F",
"-  c #F0BD26",
";  c #ECC204",
":  c #EFCA03",
">  c #EEC60F",
",  c #ECC90B",
"<  c #F4C303",
"1  c #F9C204",
"2  c #F5CC05",
"3  c #FACC05",
"4  c #FBC708",
"5  c #F4CA09",
"6  c #FCCC0B",
"7  c #F7D604",
"8  c #F9D305",
"9  c #FADA05",
"0  c #F3D30D",
"q  c #FCD40B",
"w  c #FCDB0C",
"e  c #E9C512",
"r  c #ECCD11",
"t  c #EEC71B",
"y  c #F2CB13",
"u  c #F1D011",
"i  c #FFD512",
"p  c #FEDC14",
"a  c #F4D41B",
"s  c #FEDE1A",
"d  c #FDE404",
"f  c #FEEA06",
"g  c #FDE20D",
"h  c #FEEC0C",
"j  c #FEF10E",
"k  c #FEE413",
"l  c #FEEC13",
"z  c #FEE41A",
"x  c #FEEC1B",
"c  c #FEF512",
"v  c #FFF31D",
"b  c #FDF81E",
"n  c #FEE224",
"m  c #FFEC21",
"M  c #FEED2B",
"N  c #FFF323",
"B  c #FEF825",
"V  c #FFF629",
"C  c #FEF82B",
"Z  c #FCE534",
"A  c #FEEB32",
"S  c #FEF331",
"D  c #FEF830",
"F  c #FEF13D",
"G  c #FFEA44",
"H  c #FEEE49",
"J  c #FEF445",
"K  c #FEFA41",
"L  c #FEF34D",
"P  c #FEFA49",
"I  c #FCEE5F",
"U  c #FEF557",
"Y  c #FFF35F",
"T  c #FEFA5E",
"R  c #FEFC64",
"E  c #FEF569",
"W  c #FCEE70",
"Q  c #FEF971",
"!  c #FEFC7E",
"~  c #FCF685",
"^  c #FEFC84",
"/  c #FEFC88",
"(  c #FAF191",
")  c #FEFC93",
"_  c #FFF79B",
"`  c #FEFD9C",
"'  c #FCF7A2",
"]  c #FEFDA5",
"[  c #FFFDA5",
"{  c #FEFDA6",
"}  c #FBF4AC",
"|  c #FEFDA8",
" . c #FEFDA9",
".. c #FEF8AD",
"X. c #FEF8AF",
"o. c #FFF7B6",
"O. c #FEFCB0",
"+. c #FEFDB0",
"@. c #FFFAB6",
"#. c #FEFDB4",
"$. c #FEFDB9",
"%. c #FEFDBC",
"&. c #FFFDBD",
"*. c #FEFDBF",
"=. c #FFFDC1",
"-. c #FEFDC2",
";. c #FEFAC6",
":. c #FFFDC5",
">. c #FFFCC7",
",. c #FEFDC7",
"<. c #FCF7CC",
"1. c #FFFDCE",
"2. c #FBF4D3",
"3. c #FFFDD2",
"4. c #FEFCD3",
"5. c #FEFAD6",
"6. c #FFFDD5",
"7. c #FFFDD6",
"8. c #FFFCD7",
"9. c #FFFDD7",
"0. c #FDFAD9",
"q. c #FEFBD8",
"w. c #FFFCDC",
"e. c #FFFEDD",
"r. c #FFFDE1",
"t. c #FFFEE1",
"y. c #FFFEE2",
"u. c #FFFEE3",
"i. c #FFFEE9",
"p. c #FFFDEA",
"a. c #FFFEEA",
"s. c #FFFEEB",
"d. c #FFFFED",
"f. c #FFFEEE",
"g. c #FFFEEF",
"h. c #FFFFF1",
"j. c #FFFFF2",
"k. c #FFFFF3",
/* pixels */
"                                                                ",
"                                                                ",
"                              u Z W (                           ",
"                            2 g L _ ..}                         ",
"                          5 9 h L @.e.3.                        ",
"                        > 7 d h L :.k.f.q.                      ",
"                        2 d f h J :.k.k.i.2.                    ",
"                      0 9 d f h F %.i.f.f.5.                    ",
"                    k w d d f h F +.t.i.i.t.q.<.                ",
"              x x l l h f f f h S ` 3.e.t.t.6.;.o...'           ",
"        z k l h c c c c j h h h N ^ %.1.6.6.6.1.:.%.+.` ~       ",
"      p k h c c c c c b v c j h v R ] $.=.:.:.=.%.#. .` ^ I     ",
"    q w g l c c c c B C B b c j c P / ` ]  . . .] ` ) ^ E G     ",
"    3 8 w g l c c v B C D C b c c C R ! ^ ^ ^ ^ ^ ! Q Y G n     ",
"    2 < 8 9 g h l c b V D D B v c b K T R R R R T U H Z s p     ",
"    y O O < 3 q w k l v N V N v v v C K P P P J F A n p 9       ",
"      ; o o # 1 4 q p k x x v v b b b N S S S M m z p 9 p       ",
"      t O o o $ 1 3 q i p z x v N N v v v m m x z p 9 w         ",
"        y O o # 1 6 q i s z N N N v v v v x x z k w 9           ",
"          y o # 1 6 i s z m N N N x x v N v x x k q a           ",
"            @ # 4 i p z x N V N x k k x N N x x k q             ",
"            & $ 6 i s z m N N v z w 9 k x N N x g 9             ",
"            - $ q p z x N N v x p q 3 q k x x l g 9             ",
"            = 1 q p z x x x x z q 2 < 3 q w k k g 9             ",
"            + 1 q p z l l l k w 2 < < < 3 8 9 g g 9             ",
"            % 1 6 p k k g w q 2 < O # $ $ < 2 7 9 7             ",
"            % $ 6 q w w q 2 < < O O o o o o O O < :             ",
"              o 1 5 5 5 < < < 2 0 0 : O X X . . X e             ",
"              X o @ @ @ ; 5 a         a r , ; ; >               ",
"              * @ @ @ > a                                       ",
"                                                                ",
"                                                                "
};
