/* XPM */
static char *bebedc453ad34503fb5697332d19b2cdiPLkDnLhZUlfBwVv[] = {
/* columns rows colors chars-per-pixel */
"18 18 162 2 ",
"   c None",
".  c #E6B302",
"X  c #E5B502",
"o  c #EFB301",
"O  c #EBB602",
"+  c #ECB501",
"@  c #E9B803",
"#  c #EBBC07",
"$  c #EEBE0D",
"%  c #F0B901",
"&  c #F6BB02",
"*  c #F3BC02",
"=  c #F0BE03",
"-  c #F1BB06",
";  c #F7BF04",
":  c #E9B911",
">  c #EEC803",
",  c #EFC50E",
"<  c #F2C202",
"1  c #F3C402",
"2  c #F6C402",
"3  c #F1C205",
"4  c #F3C707",
"5  c #F8C203",
"6  c #F9C707",
"7  c #F3C907",
"8  c #F6CC07",
"9  c #F7CD07",
"0  c #F9CE05",
"q  c #F9CF07",
"w  c #F9C609",
"e  c #F1C90A",
"r  c #F0CA0B",
"t  c #F5C809",
"y  c #FACA09",
"u  c #FDCD0A",
"i  c #F6D102",
"p  c #F5D207",
"a  c #FBD307",
"s  c #F9DB04",
"d  c #F1D10E",
"f  c #F2D20E",
"g  c #FBD308",
"h  c #FDD20B",
"j  c #F7D90B",
"k  c #FADA09",
"l  c #F9D90A",
"z  c #FBD90B",
"x  c #FBDC0B",
"c  c #FDDC0B",
"v  c #FBDA0C",
"b  c #FDDE0D",
"n  c #FDDF0F",
"m  c #E9C414",
"M  c #F1C817",
"N  c #F8D511",
"B  c #FED412",
"V  c #FEDB12",
"C  c #FCDC10",
"Z  c #FFDF13",
"A  c #FADA15",
"S  c #FFD815",
"D  c #FFDB16",
"F  c #FFDF17",
"G  c #FBE507",
"H  c #FDE504",
"J  c #FEEB05",
"K  c #FEEC07",
"L  c #FEE30B",
"P  c #FEE10E",
"I  c #FEEB08",
"U  c #FEEE0E",
"Y  c #FEF00C",
"T  c #FEE311",
"R  c #FDE413",
"E  c #FEE712",
"W  c #FEE015",
"Q  c #FDE415",
"!  c #FEE515",
"~  c #FEE714",
"^  c #FEE416",
"/  c #FEEC10",
"(  c #FEEF10",
")  c #FDEB17",
"_  c #FEEC16",
"`  c #FEE11B",
"'  c #FFE71C",
"]  c #FFEA19",
"[  c #FEE91A",
"{  c #FEEA1A",
"}  c #FFEC19",
"|  c #FFE91C",
" . c #FFEC1C",
".. c #FEEF1D",
"X. c #FFEF1E",
"o. c #FEF010",
"O. c #FEF510",
"+. c #FEF511",
"@. c #FEF713",
"#. c #FEF414",
"$. c #FDF618",
"%. c #FEF718",
"&. c #FDF71B",
"*. c #FFF01C",
"=. c #FFF21C",
"-. c #FFF11E",
";. c #FEF71D",
":. c #FFF51E",
">. c #FFF41F",
",. c #FFF61E",
"<. c #FEE024",
"1. c #FFE923",
"2. c #FFEF2B",
"3. c #FFF120",
"4. c #FFF222",
"5. c #FEF323",
"6. c #FFF323",
"7. c #FDF721",
"8. c #FFF024",
"9. c #FFF426",
"0. c #FEF42A",
"q. c #FFF62B",
"w. c #FEF829",
"e. c #FEF82D",
"r. c #FEE433",
"t. c #FEED3F",
"y. c #FEFA38",
"u. c #FDF642",
"i. c #FEF64E",
"p. c #FBEA58",
"a. c #FEFB53",
"s. c #FEFA54",
"d. c #FDF065",
"f. c #FFF465",
"g. c #FDF665",
"h. c #FDFC6F",
"j. c #FEF67E",
"k. c #FEF682",
"l. c #FEFB81",
"z. c #FEF78B",
"x. c #FEFC89",
"c. c #FEFC8C",
"v. c #FEFC8D",
"b. c #FEFC95",
"n. c #FBF39A",
"m. c #FBF89A",
"M. c #FEFDA7",
"N. c #FEF9AF",
"B. c #FEFDAF",
"V. c #FEFDBD",
"C. c #FFFDBF",
"Z. c #FFFAC2",
"A. c #FFFDC3",
"S. c #FFFDCE",
"D. c #FDFAD6",
"F. c #FFFCD7",
"G. c #FFFDD9",
"H. c #FFFEDF",
"J. c #FEFCE7",
"K. c #FFFEE7",
"L. c #FFFEEB",
"P. c #FFFFF1",
/* pixels */
"                                    ",
"                d p.n.              ",
"              r G k.F.              ",
"              s J z.P.J.            ",
"            j H J j.J.L.D.          ",
"        ) o.U I K f.S.H.G.Z.N.m.    ",
"    T / O.O.;.#.Y u.M.V.A.V.B.b.d.  ",
"  q c / O.&.e.w.&.7.h.x.c.c.l.f.r.  ",
"  r < a P _ 6.0.;.&.y.a.s.i.t.<.A   ",
"    O o 5 h C [ =.;.;.0.2.1.W x     ",
"    M + & u D ' 6.6.=.=. .! z       ",
"      $ ; B ` 8.9.[ ! 6.6.! N       ",
"        6 D | 6. .C g !  .E z       ",
"        y F [ } E 9 2 q b L z       ",
"        w V b v 9 * % * 1 i p       ",
"        - t 4 3 7 d > @ . X m       ",
"        : # ,                       ",
"                                    "
};
