/* XPM */
static char *b7c13fcc7c7e4c85c0a0f1947283c5a3OUtFK4VXHjGe9yTJ[] = {
/* columns rows colors chars-per-pixel */
"64 64 221 2 ",
"   c #3E734E",
".  c #A63600",
"X  c #AA3701",
"o  c #AD3C05",
"O  c #B53D01",
"+  c #8B4601",
"@  c #8F500E",
"#  c #964F11",
"$  c #AE4403",
"%  c #AC4707",
"&  c #B44302",
"*  c #BA4400",
"=  c #B64A03",
"-  c #BA4A02",
";  c #B64C0B",
":  c #B94F08",
">  c #BA5204",
",  c #B95507",
"<  c #BA540A",
"1  c #A24E18",
"2  c #B95817",
"3  c #9F700E",
"4  c #98611E",
"5  c #B66C03",
"6  c #B86F04",
"7  c #BB7205",
"8  c #BC730A",
"9  c #A26614",
"0  c #A97919",
"q  c #AC5F21",
"w  c #B05422",
"e  c #BA7030",
"r  c #BE7F3D",
"t  c #C14C05",
"y  c #C84F05",
"u  c #C35305",
"i  c #C65B03",
"p  c #CB5B06",
"a  c #C45B0B",
"s  c #C05C11",
"d  c #C26505",
"f  c #CA6405",
"g  c #C26B04",
"h  c #C2630C",
"j  c #CC680B",
"k  c #D36604",
"l  c #D56C08",
"z  c #C57A09",
"x  c #D87306",
"c  c #DE730B",
"v  c #DD790B",
"b  c #CA6D17",
"n  c #D06E15",
"m  c #C67516",
"M  c #CE7419",
"N  c #D87916",
"B  c #E87A09",
"V  c #F17D05",
"C  c #C5722E",
"Z  c #BE7443",
"A  c #7AB055",
"S  c #4D9262",
"D  c #BF9229",
"F  c #D4820D",
"G  c #CB8618",
"H  c #D98615",
"J  c #D4841A",
"K  c #DC8619",
"L  c #DD8D1B",
"P  c #DB931B",
"I  c #E9880C",
"U  c #F7850A",
"Y  c #ED900E",
"T  c #E48717",
"R  c #E48D15",
"E  c #E49514",
"W  c #E59F16",
"Q  c #E2941A",
"!  c #E69B1D",
"~  c #EC9D1A",
"^  c #F49514",
"/  c #F49B14",
"(  c #F6AB0D",
")  c #F7B10C",
"_  c #E7A31B",
"`  c #ECA51C",
"'  c #F3A215",
"]  c #F7A51B",
"[  c #FAA21D",
"{  c #F3AC1E",
"}  c #F6BE17",
"|  c #F9B817",
" . c #FDB21E",
".. c #D48727",
"X. c #DA8D22",
"o. c #C3972C",
"O. c #DC9423",
"+. c #DE9827",
"@. c #CB8432",
"#. c #D48730",
"$. c #C59433",
"%. c #C39A37",
"&. c #D09E34",
"*. c #E58F27",
"=. c #E99727",
"-. c #E49D23",
";. c #EB9B25",
":. c #E3942A",
">. c #E49C29",
",. c #E89E39",
"<. c #DBA63B",
"1. c #E6A423",
"2. c #EEAB25",
"3. c #E7A229",
"4. c #EAA22B",
"5. c #EFAC29",
"6. c #FCA722",
"7. c #F3AC23",
"8. c #FAAC21",
"9. c #F3A82A",
"0. c #F3B223",
"q. c #FAB524",
"w. c #F7BB26",
"e. c #FDBB24",
"r. c #F6B72B",
"t. c #F9B52C",
"y. c #F6B928",
"u. c #FDBC2A",
"i. c #ECA837",
"p. c #EBA53A",
"a. c #F3A734",
"s. c #F2AB33",
"d. c #FCBD32",
"f. c #F6B538",
"g. c #FAC51D",
"h. c #FDC326",
"j. c #FDCB25",
"k. c #F7C52F",
"l. c #FEC42B",
"z. c #FFCC2B",
"x. c #FDD424",
"c. c #FDDB27",
"v. c #FED42C",
"b. c #FEDB2B",
"n. c #F7C030",
"m. c #FDC433",
"M. c #FECD32",
"N. c #FDC33C",
"B. c #FECD3E",
"V. c #FED432",
"C. c #FEDB32",
"Z. c #FADA35",
"A. c #FED33B",
"S. c #FFE42E",
"D. c #FCE234",
"F. c #FCE23B",
"G. c #FEEC3E",
"H. c #FFF13F",
"J. c #BB814B",
"K. c #B19740",
"L. c #D0924A",
"P. c #D4A540",
"I. c #F0AF44",
"U. c #EEBA47",
"Y. c #F1BD45",
"T. c #F2BB49",
"R. c #EABD5A",
"E. c #D7C95C",
"W. c #FEC542",
"Q. c #FDCC44",
"!. c #F3C74D",
"~. c #FDCC4B",
"^. c #FCD243",
"/. c #FCDC47",
"(. c #FCD44D",
"). c #F5CB57",
"_. c #F9D356",
"`. c #FADC5A",
"'. c #F7E341",
"]. c #FBE44B",
"[. c #FDEA4B",
"{. c #FFF149",
"}. c #FBE657",
"|. c #FCEC5D",
" X c #FFF653",
".X c #FFF952",
"XX c #FFFA5D",
"oX c #E9CB67",
"OX c #EBDB68",
"+X c #FBDC62",
"@X c #F1D36A",
"#X c #F7DF69",
"$X c #FEDB6A",
"%X c #E8DC70",
"&X c #FDE764",
"*X c #FAEA67",
"=X c #F5E36C",
"-X c #FDF264",
";X c #FFFA69",
":X c #FFFB6A",
">X c #F5E673",
",X c #F5E976",
"<X c #F6E979",
"1X c #FAE879",
"2X c #FFFB75",
"3X c #FEF579",
"4X c #FFFA7B",
"5X c #EEDE8A",
"6X c #FBEB86",
"7X c #FBEC88",
"8X c #FEF883",
"9X c #F0F28F",
"0X c #FCF18C",
"qX c #FFFB8C",
"wX c #F7EC94",
"eX c #FAF796",
"rX c #FEF99E",
"tX c #FFFAA2",
"yX c #FFFDA5",
"uX c #FEFCAA",
"iX c white",
/* pixels */
"S S S S S S S S S S S S S S S S S S S S S S S S S S S S S S S S S S S S S S S S S S S S S S S S S S S S S S S S S S S S S S S S ",
"S S S S S S S S S S S S S S S S S S S S S S S S S S S S S S S S S S S S S S S S S S S S S S S S S S S S S S S S S S S S S S S S ",
"S S S S S S S S S S S S S S S S S S S S S S S S S S S S S S S S S S S S S S S S S S S S S S     S S S S S S S S S S S S S S S S ",
"S S S S S S S S S S S S S S S S S S S S S S S S S S S S S S S S S S S S S S S S S S S S S S     S S S S S S S S S S S S S S S S ",
"S S S S S S S S S S S S S S S S S S S S S S S S S S S S S S S S S S S S S S S S S S S S     S S     S S S S S S S S S S S S S S ",
"S S S S S S S S S S S S S S S S S S S S S S S S S S S S S S S S S S S S S S S S S S S S     S S     S S S S S S S S S S S S S S ",
"S S S S S S S S S S S S S S S S S S S S S S S S S S S S S S S S S S S S S S S S S S S S S S     S S S S S S S S S S S S S S S S ",
"S S S S S S S S S S S S S S S S S S S S S S S S S S S S S S S S S S S S S S S S S S S S S S     S S S S S S S S S S S S S S S S ",
"S S S S S S S S S S S S S S S S S S S S S S S S S S S S S S S S S S S S S S S S S S S S S S S S S S S S S S S S S S S S S S S S ",
"S S S S S S S S S S S S S S S S S S S S S S S S S S S S S S S S S S S S S S S S S S S S S S S S S S S S S S S S S S S S S S S S ",
"S S S S S S S S S S S S S S S S S S S S S S S S S S S S S S S S S S S S S S S S S S S S S S S S S S S S S S S S S S S S S S S S ",
"S S S S S S S S S S S S S S S S S S S S S S S ,X,X,X,X,X,X,X,X,X,X,X,X,X,X<X<X<XS S S S S S S S S S S S S S S S S S S S S S S S ",
"S S S S S S S S S S S S S S S S S S S S ,X,X,X,X>X>X=X=X=X=X#X#X#X=X#X#X#X#X=X>X<X<X6XwXS S S S S S S S S S S S S S S S S S S S ",
"S S S S S S S S S S S S S S S S S >X,X,X>X=X+X_.(.^.Q.Q.Q.Q.~.~.Q.W.N.N.N.N.W.~.$X1X0XrXyXyXS S S S S S S S S S S S S S S S S S ",
"S S S S S S S S S S S S S S S @X>X,X=X`.(.A.M.z.z.z.z.l.l.l.l.u.u.u.e.e.e.e.u.d.W._.$X7XrXyXyXrXS S S S S S S S S S S S S S S S ",
"S S S S S S S S S S S S S S @X>X=X`.^.M.z.z.z.z.z.z.z.z.j.h.h.e.e.e.e.e.e.e.e.u.l.m.N.~.$X6XtXyXtXwXS S S S S S S S S S S S S S ",
"S S S S S S S S S S A A S OX=X}./.M.z.z.z.z.z.z.j.h.w.0.` ! Q L L L Q ! ` { 7.q.e.h.l.l.m.W.+X0XyXrX9XS S S S S S S S S S S S S ",
"S S S S S S S S S S A A =X&X}.^.z.z.z.z.z.j.e.0.! N h < = & $ o o o $ & ; , < b Q { h.l.l.l.m.(.1XqXeX9XS S S S S S S S S S S S ",
"S S S S S S S S S S A >X&X/.A.z.z.z.z.z.0.Q N - - iXiXiXiXiXiXiXiXiXiXiXiXiX- - - : K q.l.l.l.l.B.&X8XqX9XS S S S S S S S S S S ",
"S S S S S S S S S S =X*X/.V.z.z.z.z.0.H < - - iXiXiXiXiXiXiXiXiXiXiXiXiXiXiXiXiXiX- o a K 9.m.z.z.^.|.3XqXeXS S S S S S S S S S ",
"S S S S S S S S S *X-X].V.v.v.z.m.P , - iXiXiXiXiXiXiXiXiXiXiXiXiXiXiXiXiXiXiXiXiXiX- O & h 4.m.z.M.A.].;XqX7XS S S S S S S S S ",
"S S S S S S S S =X-X[.Z.v.v.z.m.J & iXiXiXiXiXiXiXiXiXiXiXiXiXiXiXiXiXiXiXiXiXiXiXiXiXiX- & h 4.m.z.v.v.[.;X4X<XS S S S S S S S ",
"S S S S S S S %X-X[.F.C.v.v.d.J $ . iXiXiXiXiXiXiXiXiXiXiXiXiXiXiXiXiXiXiXiXiXiXiXiXiXiXiX- & a :.m.v.b.C.[.;X8X5XS S S S S S S ",
"S S S S S S S >X}.F.C.C.v.m.J $ X iXiXiXiXiXiXiXiXiXiXiXiXiXiXiXiXiXiXiXiXiXiXiXiXiXiXiXiXiX: * u =.M.V.b.D. X2X0XS S S S S S S ",
"S S S S S S OX|.F.C.b.C.M.L $ . iXiXiXiXiXiXiXiXiXiXiXiXiXiXiXiXiXiXiXiXiXiXiXiXiXiXiXiXiXiXiX> * u =.A.C.C.G.XX2X7XS S S S S S ",
"S S S S S E.|.'.b.c.b.V.4.: - iXiXiXiXiXiXiXiXiXiXiXiXiXiXiXiXiXiXiXiXiXiXiXiXiXiXiXiXiXiXiXiXiX> * a f.V.b.D.{.;X3X5XS S S S S ",
"S S S S S OX].Z.b.c.b.n.h X iXiXiXiXiXiXiXiXiXiXiXiXiXiXiXiXiXiXiXiXiXiXiXiXiXiXiXiXiXiXiXiXiXiXiX- * N B.C.b.F..X;X<XS S S S S ",
"S S S S oX|.Z.b.c.c.V.L & iXiXiXiXiXiXiXiXiXiXiXiXiXiXiXiXiXiXiXiXiXiXiXiXiXiXiXiXiXiXiXiXiXiXiXiXuX& t a.A.C.D.G..X;X%XS S S S ",
"S S S S #X].x.c.c.b.y.i iXiXiXiXiXiXiXiXiXiXiXiXiXiXiXiXiXiXiXiXiXiXiXiXiXiXiXiXiXiXiXiXiXiXiXiXiXiX: O n N.C.C.D.G..X*XS S S S ",
"S S S S +XZ.x.c.b.z.H & iXiXiXiXiXiXiXiXiXiXiXiXiXiXiXiXiXiXiXiXiXiXiXiXiXiXiXiXiXiXiXiXiXiXiXiXiXiXiX$ = :.A.C.b.S.H.-XS S S S ",
"A A S @X`.j.c.c.b.r.p iXiXiXiXiXiXiXiXiXiXiXiXiXiXiXiXiXiXiXiXiXiXiXiXiXiXiXiXiXiXiXiXiXiXiXiXiXiXiXiXiX& j N.C.b.c.D.|.%XS S S ",
"A A S ).^.j.b.b.v.;.y iXiXiXiXiXiXiXiXiXiXiXiXiXiXiXiXiXiXiXiXiXiXiXiXiXiXiXiXiXiXiXiXiXiXiXiXiXiXiXiXiX= i f.C.c.c.b.}.=XS S S ",
"S S A ).k.g.b.c.v.T t iXiXiXiXiXiXiXiXiXiXiXiXiXiXiXiXiXiXiXiXiXiXiXiXiXiXiXiXiXiXiXiXiXiXiXiXiXiXiXiXiX> : =.V.b.c.c.F.&XS S S ",
"S S A (.} j.b.b.l.v t iXiXiXiXiXiXiXiXiXiXiXiXiXiXiXiXiXiXiXiXiXiXiXiXiXiXiXiXiXiXiXiXiXiXiXiXiXiXiXiXiXiX- H M.b.c.x.b.}.S S S ",
"A A R.W.| z.b.b.w.c iXiXiXiXiXiXiXiXiXiXiXiXiXiXiXiXiXiXiXiXiXiXiXiXiXiXiXiXiXiXiXiXiXiXiXiXiXiXiXiXiXiXiX= l m.b.c.x.j./.S S S ",
"A A R.d.| v.b.v.{ c iXiXiXiXiXiXiXiXiXiXiXiXiXiXiXiXiXiXiXiXiXiXiXiXiXiXiXiXiXiXiXiXiXiXiXiXiXiXiXiXiXiXiX= f t.v.c.x.g.M.!.S S ",
"S S U.0.| b.b.v.' l iXiXiXiXiXiXiXiXiXiXiXiXiXiXiXiXiXiXiXiXiXiXiXiXiXiXiXiXiXiXiXiXiXiXiXiXiXiXiXiXiXiXiX, i ~ v.c.c.} l.T.S S ",
"S S U.8.| b.b.v./ c iXiXiXiXiXiXiXiXiXiXiXiXiXiXiXiXiXiXiXiXiXiXiXiXiXiXiXiXiXiXiXiXiXiXiXiXiXiXiXiXiXiXiXh i ~ v.b.b.} l.Y.S S ",
"S S Y.8. .b.b.V.' v iXiXiXiXiXiXiXiXiXiXiXiXiXiXiXiXiXiXiXiXiXiXiXiXiXiXiXiXiXiXiXiXiXiXiXiXiXiXiXiXiXiXiXd f ~ v.b.b.| l.Y.S S ",
"S S T.6. .b.b.V.6.T iXiXiXiXiXiXiXiXiXiXiXiXiXiXiXiXiXiXiXiXiXiXiXiXiXiXiXiXiXiXiXiXiXiXiXiXiXiXiXiXiXiXiXd k { v.b.b.) u.Y.S S ",
"S S I.[  .b.b.v.8.T iXiXiXiXiXiXiXiXiXiXiXiXiXiXiXiXiXiXiXiXiXiXiXiXiXiXiXiXiXiXiXiXiXiXiXiXiXiXiXiXiXiXiXg l { V.b.b.( q.f.S S ",
"S S p./  .V.v.v. .R iXiXiXiXiXiXiXiXiXiXiXiXiXiXiXiXiXiXiXiXiXiXiXiXiXiXiXiXiXiXiXiXiXiXiXiXiXiXiXiXiXiXiXd x { V.b.V.( 8.f.S S ",
"S S p.^ ] V.v.v.w.E iXiXiXiXiXiXiXiXiXiXiXiXiXiXiXiXiXiXiXiXiXiXiXiXiXiXiXiXiXiXiXiXiXiXiXiXiXiXiXiXiXiXiXd x 0.V.C.V.' 6.f.S S ",
"S S p.~ / V.x.v.l.~ iXiXiXiXiXiXiXiXiXiXiXiXiXiXiXiXiXiXiXiXiXiXiXiXiXiXiXiXiXiXiXiXiXiXiXiXiXiXiXiXiXiXiXg v q.V.C.V./ 6.s.S S ",
"S S <.! Y M.v.v.z.{ iXiXiXiXiXiXiXiXiXiXiXiXiXiXiXiXiXiXiXiXiXiXiXiXiXiXiXiXiXiXiXiXiXiXiXiXiXiXiXiXiXiXiXg F u.V.C.h.^ 6.p.S S ",
"S S &.=.I u.v.x.z.q.E iXiXiXiXiXiXiXiXiXiXiXiXiXiXiXiXiXiXiXiXiXiXiXiXiXiXiXiXiXiXiXiXiXiXiXiXiXiXiXiXiXiXg R m.C.C.q.U [ ,.S S ",
"S S %.*.B q.x.x.x.e.W iXiXiXiXiXiXiXiXiXiXiXiXiXiXiXiXiXiXiXiXiXiXiXiXiXiXiXiXiXiXiXiXiXiXiXiXiXiXiXiXiXiXz ~ M.v.C.' U ^ L.S S ",
"S S K...B ] v.x.x.h.` iXiXiXiXiXiXiXiXiXiXiXiXiXiXiXiXiXiXiXiXiXiXiXiXiXiXiXiXiXiXiXiXiXiXiXiXiXiXiXiXiXiXz 2.M.v.v.Y V R L.S S ",
"S S S #.B R M.j.j.j.{ iXiXiXiXiXiXiXiXiXiXiXiXiXiXiXiXiXiXiXiXiXiXiXiXiXiXiXiXiXiXiXiXiXiXiXiXiXiXiXiXiX- F 0.M.v.l.B V L L.S S ",
"S S S @.v c d.l.j.l.w.W iXiXiXiXiXiXiXiXiXiXiXiXiXiXiXiXiXiXiXiXiXiXiXiXiXiXiXiXiXiXiXiXiXiXiXiXiXiXiXiX7 F r.z.z.0.x B #.S S S ",
"S S S C M k 9.d.w.h.u._ iXiXiXiXiXiXiXiXiXiXiXiXiXiXiXiXiXiXiXiXiXiXiXiXiXiXiXiXiXiXiXiXiXiXiXiXiXiXiXiX7 P t.h.h.E k v @.S S S ",
"S S S Z b p T f.0.y.u.2.P iXiXiXiXiXiXiXiXiXiXiXiXiXiXiXiXiXiXiXiXiXiXiXiXiXiXiXiXiXiXiXiXiXiXiXiXiXiX8 7 -.t.w.r.N k M r S S S ",
"S S S S b p l a.5.2.t.s.O.iXiXiXiXiXiXiXiXiXiXiXiXiXiXiXiXiXiXiXiXiXiXiXiXiXiXiXiXiXiXiXiXiXiXiXiXiXiX6 z 3.t.q.9.d f m J.S S S ",
"S S S S q a u =.3.1.5.s.-.O.iXiXiXiXiXiXiXiXiXiXiXiXiXiXiXiXiXiXiXiXiXiXiXiXiXiXiXiXiXiXiXiXiXiXiXiXm 6 G 3.7.7.T > h e S S S S ",
"S S S S 4 2 - N >.+.-.s.4.X.iXiXiXiXiXiXiXiXiXiXiXiXiXiXiXiXiXiXiXiXiXiXiXiXiXiXiXiXiXiXiXiXiXiXiXiX8 6 G >.-.;.b = 2 e S S S S ",
"S S S S S 2 & s :.O.O.i.a.:.X.iXiXiXiXiXiXiXiXiXiXiXiXiXiXiXiXiXiXiXiXiXiXiXiXiXiXiXiXiXiXiXiXiXiXiX5 8 G +.>.*., ; 2 S S S S S ",
"S S S S S 1 % % ..O.O.>.s.,.X.iXiXiXiXiXiXiXiXiXiXiXiXiXiXiXiXiXiXiXiXiXiXiXiXiXiXiXiXiXiXiXiXiXiXiX5 8 ..+.:.M $ ; w S S S S S ",
"S S S S S S @ + 0 $.o.o.<.P.$.iXiXiXiXiXiXiXiXiXiXiXiXiXiXiXiXiXiXiXiXiXiXiXiXiXiXiXiXiXiXiXiXiXiX0 3 0 D o.$.9 + # S S S S S S ",
"S S S S S S S S S S S S S S S S S S S S S S S S S S S S S S A A S S S S S S S S S S S S S S S S S S S S S S S S S S S S S S S S ",
"S S S S S S S S S S S S S S S S S S S S S S S S S S S S S S A A S S S S S S S S S S S S S S S S S S S S S S S S S S S S S S S S ",
"S S S S S S S S S S S S S S S S S S S S S S S S S S S S A A S S A A S S S S S S S S S S S S S S S S S S S S S S S S S S S S S S ",
"S S S S S S S S S S S S S S S S S S S S S S S S S S S S A A S S A A S S S S S S S S S S S S S S S S S S S S S S S S S S S S S S ",
"S S S S S S S S S S S S S S S S S S S S S S S S S S S S S S S S S S S S S S S S S S S S S S S S S S S S S S S S S S S S S S S S ",
"S S S S S S S S S S S S S S S S S S S S S S S S S S S S S S S S S S S S S S S S S S S S S S S S S S S S S S S S S S S S S S S S "
};
