/* XPM */
static char *_bc7a804707545749d6ba9d2f1fd8579nHqZ11tdhZgLuMHg[] = {
/* columns rows colors chars-per-pixel */
"64 64 114 2 ",
"   c #3E734E",
".  c #7AB055",
"X  c #4D9262",
"o  c #E4AF02",
"O  c #E5B402",
"+  c #ECB402",
"@  c #EDBC03",
"#  c #ECB30E",
"$  c #ECBB09",
"%  c #F2B601",
"&  c #F3BB02",
"*  c #EAB213",
"=  c #EFBC10",
"-  c #E7BB1F",
";  c #EFBB1F",
":  c #EFBD26",
">  c #ECC204",
",  c #EFCB02",
"<  c #EEC50F",
"1  c #ECC90B",
"2  c #F4C303",
"3  c #F9C204",
"4  c #F4CB05",
"5  c #FACC05",
"6  c #FBC708",
"7  c #F4CA09",
"8  c #FCCC0B",
"9  c #F7D604",
"0  c #F9D305",
"q  c #FADA05",
"w  c #F3D30D",
"e  c #FCD40B",
"r  c #FCDB0C",
"t  c #E9C512",
"y  c #EDCD11",
"u  c #EEC71B",
"i  c #F2CA12",
"p  c #F1D011",
"a  c #FFD512",
"s  c #FEDC14",
"d  c #F4D41B",
"f  c #FEDE1A",
"g  c #FDE404",
"h  c #FEEA06",
"j  c #FDE20D",
"k  c #FEEC0C",
"l  c #FEF10E",
"z  c #FEE413",
"x  c #FEEC13",
"c  c #FEE41A",
"v  c #FEEC1B",
"b  c #FEF512",
"n  c #FFF31D",
"m  c #FDF81E",
"M  c #FEE224",
"N  c #FFEC21",
"B  c #FEED2B",
"V  c #FFF323",
"C  c #FEF825",
"Z  c #FFF629",
"A  c #FEF82B",
"S  c #FCE534",
"D  c #FEEB32",
"F  c #FEF331",
"G  c #FEF830",
"H  c #FEF13D",
"J  c #FFEA44",
"K  c #FEEE49",
"L  c #FEF445",
"P  c #FEFA41",
"I  c #FEF34D",
"U  c #FEFA49",
"Y  c #FCEE5F",
"T  c #FEF557",
"R  c #FFF35F",
"E  c #FEFA5E",
"W  c #FEFC64",
"Q  c #FEF569",
"!  c #FCEE70",
"~  c #FEF971",
"^  c #FEFC7E",
"/  c #FCF684",
"(  c #FEFC84",
")  c #FEFC88",
"_  c #FAF190",
"`  c #FEFC93",
"'  c #FFF79B",
"]  c #FEFD9C",
"[  c #FCF7A1",
"{  c #FEFDA5",
"}  c #FCF3AC",
"|  c #FEFDA9",
" . c #FEF8AD",
".. c #FFF7B6",
"X. c #FEFDB0",
"o. c #FFFAB6",
"O. c #FEFDB4",
"+. c #FEFDB9",
"@. c #FEFDBC",
"#. c #FFFDC1",
"$. c #FEFAC6",
"%. c #FFFDC5",
"&. c #FCF7CC",
"*. c #FFFDCE",
"=. c #FBF4D3",
"-. c #FFFDD2",
";. c #FEFAD6",
":. c #FFFDD5",
">. c #FEFBD8",
",. c #FFFEDD",
"<. c #FFFEE1",
"1. c #FFFEE9",
"2. c #FFFEEE",
"3. c #FFFFF3",
/* pixels */
"X X X X X X X X X X X X X X X X X X X X X X X X X X X X X X X X X X X X X X X X X X X X X X X X X X X X X X X X X X X X X X X X ",
"X X X X X X X X X X X X X X X X X X X X X X X X X X X X X X X X X X X X X X X X X X X X X X X X X X X X X X X X X X X X X X X X ",
"X X X X X X X X X X X X X X X X X X X X X X X X X X X X X X X X X X X X X X X X X X X X X X     X X X X X X X X X X X X X X X X ",
"X X X X X X X X X X X X X X X X X X X X X X X X X X X X X X X X X X X X X X X X X X X X X X     X X X X X X X X X X X X X X X X ",
"X X X X X X X X X X X X X X X X X X X X X X X X X X X X X X X X X X X X X X X X X X X X     X X     X X X X X X X X X X X X X X ",
"X X X X X X X X X X X X X X X X X X X X X X X X X X X X X X X X X X X X X X X X X X X X     X X     X X X X X X X X X X X X X X ",
"X X X X X X X X X X X X X X X X X X X X X X X X X X X X X X X X X X X X X X X X X X X X X X     X X X X X X X X X X X X X X X X ",
"X X X X X X X X X X X X X X X X X X X X X X X X X X X X X X X X X X X X X X X X X X X X X X     X X X X X X X X X X X X X X X X ",
"X X X X X X X X X X X X X X X X X X X X X X X X X X X X X X X X X X X X X X X X X X X X X X X X X X X X X X X X X X X X X X X X ",
"X X X X X X X X X X X X X X X X X X X X X X X X X X X X X X X X X X X X X X X X X X X X X X X X X X X X X X X X X X X X X X X X ",
"X X X X X X X X X X X X X X X X X X X X X X X X X X X X X X X X X X X X X X X X X X X X X X X X X X X X X X X X X X X X X X X X ",
"X X X X X X X X X X X X X X X X X X X X X X X X X X X X X X X X X X X X X X X X X X X X X X X X X X X X X X X X X X X X X X X X ",
"X X X X X X X X X X X X X X X X X X X X X X X X X X X X X X X X X X X X X X X X X X X X X X X X X X X X X X X X X X X X X X X X ",
"X X X X X X X X X X X X X X X X X X X X X X X X X X X X X X X X X X X X X X X X X X X X X X X X X X X X X X X X X X X X X X X X ",
"X X X X X X X X X X X X X X X X X X X X X X X X X X X X X X X X X X . . X X X X X X X X X X X X X X X X X X X X X X X X X X X X ",
"X X X X X X X X X X X X X X X X X X X X X X X X X X X X X X X X X X . . X X X X X X X X X X X X X X X X X X X X X X X X X X X X ",
"X X X X X X X X X X . . X X X X X X X X X X X X X X X X X X X X X X . . . . X X X X X X X X X X X X X X X X X X X X X X X X X X ",
"X X X X X X X X X X . . X X X X X X X X X X X X X X X X X X X X X X . . . . X X X X X X X X X X X X X X X X X X X X X X X X X X ",
"X X X X X X X X X X . . X X X X X X X X X X X X X X X X X X X p S ! _ . . . X X X X . . X X X X X X X X X X X X X X X X X X X X ",
"X X X X X X X X X X . . X X X X X X X X X X X X X X X X X X 4 j I '  .} . . X X X X . . X X X X X X X X X X X X X X X X X X X X ",
"X X X X X X X X X X . . . . X X X X X X X X X X X X X X X 7 q k I o.,.-.. .     . . . . X X X X X X X X X X X X X X X X X X X X ",
"X X X X X X X X X X . . . . X X X X X X X X X X X X X X < 9 g k I %.3.2.>..     . . . . X X X X X X X X X X X X X X X X X X X X ",
"X X X X X X X X X X . . . . X X X X X X X X X X X X X X 4 g h k L %.3.3.1.=.. . . .     X X X X X X X X X X X X X X X X X X X X ",
"X X X X X X X X X X . . . . X X X X X X X X X X X X X w q g h k H @.1.2.2.;.. . . .     X X X X X X X X X X X X X X X X X X X X ",
"X X X X X X X X X X X X . . X X X X X X X X X X X X z r g g h k H X.<.1.1.<.>.&.    X X X X X X X X X X X X X X X X X X X X X X ",
"X X X X X X X X X X X X . . X X X X X X X X X v v x x k h h h k F ] -.,.<.<.:.$... .[ X X X X X X X X X X X X X X X X X X X X X ",
"X X X X X X X X X X X X X X X X X X X X c z x k b b b b l k k k V ( @.*.:.:.:.*.%.@.X.] / X X X X X X X X X X X X X X X X X X X ",
"X X X X X X X X X X X X X X X X X X X s z k b b b b b m n b l k n W { +.#.%.%.#.@.O.| ] ( Y X X X X X X X X X X X X X X X X X X ",
"X X X X X X X X X X X X X X X X X X e r j x b b b b C A C m b l b U ) ] { | | | { ] ` ( Q J X X X X X X X X X X X X X X X X X X ",
"X X X X X X X X X X X X X X X X X X 5 0 r j x b b n C A G A m b b A W ^ ( ( ( ( ( ^ ~ R J M X X X X X X X X X X X X X X X X X X ",
". . X X X X X X X X X X X X X X X X 4 2 0 q j k x b m Z G G C n b m P E W W W W E T K S f s X X X X X X X X X X X X X X X X X X ",
". . X X X X X X X X X X X X X X X X i @ @ 2 5 e r z x n V Z V n n n A P U U U L H D M s q X X X X X X X X X X X X X X X X X X X ",
"X X . . X X X X X X X X X X X X X X X > + + % 3 6 e s z v v n n m m m V G G F B N c s q s X X X X X X X X X X X X X X X X X X X ",
"X X . . X X X X X X X X X X X X X X X u @ + + & 3 5 e a s c v n V V n n n N N v c s q r X X X X X X X X X X X X X X X X X X X X ",
". . X X X X X X X X X X X X X X X X X X i @ + % 3 8 e a f c V V V n n n n v v c z r q X X X X X X X X X X X X X X X X X X X X X ",
". . X X X X X X X X X X X X X X X X X X X i + % 3 8 a f c N V V V v v n V n v v z e d X X X X X X X X X X X X X X X X X X X X X ",
"X X X X X X X X X X X X X X X X X X X X X X $ % 6 a s c v V Z V v z z v V V n v z e X X X X X X X X X X X X X X X X X X X X X X ",
"X X X X X X X X X X X X X X X X X X X X X X = & 8 a f c N V V n c r q z v V V v j q X X X X X X X X X X X X X X X X X X X X X X ",
"X X X X X X X X X X X X X X X X X X X X X X : & e s c v N V n v s e 5 e z v v x j q X X X X X X X X X X X X X X X X X X X X X X ",
"X X X X X X X X X X X X X X X X X X X X X X ; 2 e s c v v v v c e 4 2 5 e r z z j q X X X X X X X X X X X X X X X X X X X X X X ",
"X X X X X X X X X X X X X X X X X X X X X X # 2 e s c x x x z r 4 2 2 2 5 0 q j j q X X X X X X X X X X X X X X X X X X X X X X ",
"X X X X X X X X X X X X X X X X X X X X X X * 2 8 s z z j r e 4 2 @ % & & 2 4 9 q 9 X X X X X X X X X X X X X X X X X X X X X X ",
"X X X X X X X X X X X X X X X X X X     X X * & 8 e r r e 4 2 2 @ @ + + + + @ @ 2 4 X X X X X X X X X X X X X X X X X X X X X X ",
"X X X X X X X X X X X X X X X X X X     X X X $ 2 7 7 7 2 2 2 4 w w , @ O O o o O t X X X X X X X X X X X X X X X X X X X X X X ",
"X X X X X X X X X X X X X X X X     X X     X O $ $ $ $ > 7 d X X X X d y 1 > > t X X X X X X X X X X X X X X X X X X X X X X X ",
"X X X X X X X X X X X X X X X X     X X     X - $ $ $ < d X X X X X X X X X X X X X X X X X X X X X X X X X X X X X X X X X X X ",
"X X X X X X X X X X X X X X X X X X     X X X X X X X X X X X X X X X X X X X X X X X X X X X X X X X X X X X X X X X X X X X X ",
"X X X X X X X X X X X X X X X X X X     X X X X X X X X X X X X X X X X X X X X X X X X X X X X X X X X X X X X X X X X X X X X ",
"X X X X X X X X X X X X X X X X X X X X X X X X X X X X X X X X X X X X X X X X X X X X X X X X X X X X . . X X X X X X X X X X ",
"X X X X X X X X X X X X X X X X X X X X X X X X X X X X X X X X X X X X X X X X X X X X X X X X X X X X . . X X X X X X X X X X ",
"X X X X X X X X X X X X X X X X X X X X X X X X X X X X X X X X X X X X X X X X X X X X X X X X X X . . . . X X X X X X X X X X ",
"X X X X X X X X X X X X X X X X X X X X X X X X X X X X X X X X X X X X X X X X X X X X X X X X X X . . . . X X X X X X X X X X ",
"X X X X X X X X X X X X X X X X X X X X X X X X X X X X X X X X X X X X X X X X X X X X X X X X X X . . . . X X X X X X X X X X ",
"X X X X X X X X X X X X X X X X X X X X X X X X X X X X X X X X X X X X X X X X X X X X X X X X X X . . . . X X X X X X X X X X ",
"X X X X X X X X X X X X X X X X X X X X X X X X X X X X X X X X X X X X X X X X X X X X X X X X X X . . X X X X X X X X X X X X ",
"X X X X X X X X X X X X X X X X X X X X X X X X X X X X X X X X X X X X X X X X X X X X X X X X X X . . X X X X X X X X X X X X ",
"X X X X X X X X X X X X X X X X X X X X X X X X X X X X X X X X X X X X X X X X X X X X X X X X X X X X X X X X X X X X X X X X ",
"X X X X X X X X X X X X X X X X X X X X X X X X X X X X X X X X X X X X X X X X X X X X X X X X X X X X X X X X X X X X X X X X ",
"X X X X X X X X X X X X X X X X X X X X X X X X X X X X X X . . X X X X X X X X X X X X X X X X X X X X X X X X X X X X X X X X ",
"X X X X X X X X X X X X X X X X X X X X X X X X X X X X X X . . X X X X X X X X X X X X X X X X X X X X X X X X X X X X X X X X ",
"X X X X X X X X X X X X X X X X X X X X X X X X X X X X . . X X . . X X X X X X X X X X X X X X X X X X X X X X X X X X X X X X ",
"X X X X X X X X X X X X X X X X X X X X X X X X X X X X . . X X . . X X X X X X X X X X X X X X X X X X X X X X X X X X X X X X ",
"X X X X X X X X X X X X X X X X X X X X X X X X X X X X X X X X X X X X X X X X X X X X X X X X X X X X X X X X X X X X X X X X ",
"X X X X X X X X X X X X X X X X X X X X X X X X X X X X X X X X X X X X X X X X X X X X X X X X X X X X X X X X X X X X X X X X "
};
