/* XPM */
static char *_3c8df17f49745b297149252dc236ab3[] = {
/* columns rows colors chars-per-pixel */
"73 73 2 1 ",
"  c black",
". c #4D9262",
/* pixels */
".........................................................................",
".........................................................................",
".........................................................................",
".........................................................................",
".........................................................................",
".........................................................................",
".........................................................................",
".........................................................................",
".........................................................................",
".........................................................................",
".........................................................................",
".........................................................................",
".........................................................................",
".........................................................................",
".........................................................................",
".........................................................................",
".........................................................................",
".........................................................................",
".........................................................................",
".........................................................................",
".........................................................................",
".........................................................................",
".........................................................................",
".........................................................................",
".........................................................................",
".........................................................................",
".........................................................................",
".........................................................................",
".........................................................................",
".........................................................................",
".........................................................................",
".........................................................................",
".........................................................................",
".........................................................................",
".........................................................................",
".........................................................................",
".........................................................................",
".........................................................................",
".........................................................................",
".........................................................................",
".........................................................................",
".........................................................................",
".........................................................................",
".........................................................................",
".........................................................................",
".........................................................................",
".........................................................................",
".........................................................................",
".........................................................................",
".........................................................................",
".........................................................................",
".........................................................................",
".........................................................................",
".........................................................................",
".........................................................................",
".........................................................................",
".........................................................................",
".........................................................................",
".........................................................................",
"                                                                         ",
"                                                                         ",
"                                                                         ",
"                                                                         ",
"                                                                         ",
"                                                                         ",
"                                                                         ",
".........................................................................",
".........................................................................",
".........................................................................",
".........................................................................",
".........................................................................",
".........................................................................",
"........................................................................."
};
