/* XPM */
static char *_d64d9474b794a46999f5185b9025bfe4xPRpprw1wV2k2kp[] = {
/* columns rows colors chars-per-pixel */
"64 64 13 1 ",
"  c black",
". c #631010",
"X c #3E734E",
"o c #B50029",
"O c #D60052",
"+ c #DE4973",
"@ c #7AB055",
"# c #4D9262",
"$ c #FF1884",
"% c #F771A5",
"& c #FF92C6",
"* c #FFA2DE",
"= c white",
/* pixels */
"################################################################",
"################################################################",
"##############################################XX################",
"##############################################XX################",
"############################################XX##XX##############",
"############################################XX##XX##############",
"##############################################XX################",
"##############################################XX################",
"################################################################",
"################################################################",
"################################################################",
"################################################################",
"################################################################",
"################################################################",
"##################################@@############################",
"############################        ############################",
"##########@@################        @@##########################",
"##########@@############    oo++++oo    ########################",
"##########@@############    oo++++oo    ##@@####################",
"##########@@##########  ++%%********%%++    ####################",
"##########@@@@########  ++%%********%%++    ####################",
"##########@@@@######  &&****************&&..  ##################",
"##########@@@@######  &&****************&&..  ##################",
"##########@@@@####  %%********oo++**oo++**%%  ##################",
"############@@####  %%********oo++**oo++**%%  ##################",
"############@@####  **********==..**==..****oo  ################",
"##################  **********==..**==..****oo  ################",
"################  %%**********oo  **$$  ****++  ################",
"################  %%**********oo  **$$  ****++  ################",
"##############  ++**&&********++  **++  ****&&    ##############",
"@@############  ++**&&********++  **++  ****&&    ##############",
"@@##########  ..**********$$$$%%  ****  $$&&**&&..  ############",
"##@@########  ..**********$$$$%%  ****  $$&&**&&..  ############",
"##@@########  ******************************&&&&**  ############",
"@@##########  ******************************&&&&**  ############",
"@@##########  %%**&&%%&&************++******&&%%%%  ############",
"############  %%**&&%%&&************++******&&%%%%  ############",
"############  oo%%%%%%%%&&******************++++..  ############",
"############  oo%%%%%%%%&&******************++++..  ############",
"##############    ..++%%%%&&**************%%oo..  ##############",
"##############    ..++%%%%&&**************%%oo..  ##############",
"################  OOOO++%%%%%%%%&&&&&&%%%%++oo  ################",
"################  OOOO++%%%%%%%%&&&&&&%%%%++oo  ################",
"##############  $$==$$$$$$++%%%%%%%%%%%%oo$$$$$$  ##############",
"##############  $$==$$$$$$++%%%%%%%%%%%%oo$$$$$$  ##############",
"############  oo$$$$$$$$$$OO++%%%%**++ooOO$$$$$$..  ############",
"############  oo$$$$$$$$$$OO++%%%%**++ooOO$$$$$$..  ############",
"############  ooOOOOOOOOOOOOoo    ooooooOOOOOOoo..  ############",
"############  ooOOOOOOOOOOOOoo    ooooooOOOOOOoo..  @@##########",
"##############                ####                ##@@##########",
"##############                ####                @@@@##########",
"##################################################@@@@##########",
"##################################################@@@@##########",
"##################################################@@@@##########",
"##################################################@@############",
"##################################################@@############",
"################################################################",
"################################################################",
"##############################@@################################",
"##############################@@################################",
"############################@@##@@##############################",
"############################@@##@@##############################",
"################################################################",
"################################################################"
};
