/* XPM */
static char *_3ae69a892ea4342ab854363c854394c[] = {
/* columns rows colors chars-per-pixel */
"64 64 130 2 ",
"   c black",
".  c #070D08",
"X  c #871241",
"o  c #8B1544",
"O  c #8C1A46",
"+  c #8D1949",
"@  c #911E4D",
"#  c #8E214A",
"$  c #90254E",
"%  c #8F2051",
"&  c #942251",
"*  c #992755",
"=  c #942954",
"-  c #992856",
";  c #932858",
":  c #9C2C5A",
">  c #9E315F",
",  c #9E3361",
"<  c #A13361",
"1  c #A13965",
"2  c #A53E6B",
"3  c #A6456F",
"4  c #A9416E",
"5  c #A94570",
"6  c #AD4A76",
"7  c #B24D7A",
"8  c #B3517C",
"9  c #4D9262",
"0  c #171587",
"q  c #1C1A89",
"w  c #1E2790",
"e  c #23248F",
"r  c #232590",
"t  c #252E93",
"y  c #373496",
"u  c #393397",
"i  c #2067AA",
"p  c #2C65AA",
"a  c #3F62AD",
"s  c #46459E",
"d  c #6A62AF",
"f  c #6863B0",
"g  c #BC5E89",
"h  c #976689",
"j  c #9A6689",
"k  c #BD648D",
"l  c #BC6390",
"z  c #B07A9F",
"x  c #8266B2",
"c  c #827ABB",
"v  c #9E72B7",
"b  c #9F75B9",
"n  c #B67CA2",
"m  c #A076BA",
"M  c #A67FBE",
"N  c #C56F98",
"B  c #C6719A",
"V  c #C9729D",
"C  c #FD638D",
"Z  c #FD6690",
"A  c #FF5FA2",
"S  c #CE77A3",
"D  c #CD78A4",
"F  c #D27CA6",
"G  c #FF64A6",
"H  c #FF66A8",
"J  c #FF6CAB",
"K  c #FF72AF",
"L  c #FF75B1",
"P  c #FF7AB4",
"I  c #FF7FB8",
"U  c #3181B5",
"Y  c #7787BF",
"T  c #C186AC",
"R  c #C789AF",
"E  c #D280A9",
"W  c #DD8DB6",
"Q  c #DC8DB9",
"!  c #D495BD",
"~  c #DF92BA",
"^  c #FE86AE",
"/  c #FE8BB4",
"(  c #FF83BB",
")  c #FF8BBD",
"_  c #E193BD",
"`  c #FE94BE",
"'  c #8D8AC4",
"]  c #9291C6",
"[  c #9D90C7",
"{  c #9A9CCC",
"}  c #AA84C1",
"|  c #BA8AC4",
" . c #C18AC5",
".. c #C995C6",
"X. c #C993CB",
"o. c #CC9BCD",
"O. c #DF9ECF",
"+. c #FF8DC2",
"@. c #E79AC4",
"#. c #E99CC6",
"$. c #E09FCF",
"%. c #FF93C5",
"&. c #F09CC6",
"*. c #FD96C8",
"=. c #F39AC8",
"-. c #FF9BCA",
";. c #DCA4D2",
":. c #EDA0C7",
">. c #EDA1C9",
",. c #F2A3CD",
"<. c #FFA2CE",
"1. c #E8A7D6",
"2. c #E8A8D0",
"3. c #F5A7D0",
"4. c #FFA5D1",
"5. c #F5ADD6",
"6. c #FFADD6",
"7. c #F2ABD9",
"8. c #FFAFD8",
"9. c #FFB0D7",
"0. c #FAB1D9",
"q. c #FFB1DA",
"w. c #FFB4DA",
"e. c #FFB3DC",
"r. c #F8B5DD",
"t. c #FFB5DD",
"y. c #FAB9DC",
"u. c #E9EBF5",
"i. c #E9ECF5",
"p. c white",
/* pixels */
"9 9 9 9 9 9 9 9 9 9 9 9 9 9 9 9 9 9 9 9 9 9 9 9 9 9 9 9 9 9 9 9 9 9 9 9 9 9 9 9 9 9 9 9 9 9 9 9 9 9 9 9 9 9 9 9 9 9 9 9 9 9 9 9 ",
"9 9 9 9 9 9 9 9 9 9 9 9 9 9 9 9 9 9 9 9 9 9 9 9 9 9 9 9 9 9 9 9 9 9 9 9 9 9 9 9 9 9 9 9 9 9 9 9 9 9 9 9 9 9 9 9 9 9 9 9 9 9 9 9 ",
"9 9 9 9 9 9 9 9 9 9 9 9 9 9 9 9 9 9 9 9 9 9 9 9 9 9 9 9 9 9 9 9 9 9 9 9 9 9 9 9 9 9 9 9 9 9 9 9 9 9 9 9 9 9 9 9 9 9 9 9 9 9 9 9 ",
"9 9 9 9 9 9 9 9 9 9 9 9 9 9 9 9 9 9 9 9 9 9 9 9 9 9 9 9 9 9 9 9 9 9 9 9 9 9 9 9 9 9 9 9 9 9 9 9 9 9 9 9 9 9 9 9 9 9 9 9 9 9 9 9 ",
"9 9 9 9 9 9 9 9 9 9 9 9 9 9 9 9 9 9 9 9 9 9 9 9 9 9 9 9 9 9 9 9 9 9 9 9 9 9 9 9 9 9 9 9 9 9 9 9 9 9 9 9 9 9 9 9 9 9 9 9 9 9 9 9 ",
"9 9 9 9 9 9 9 9 9 9 9 9 9 9 9 9 9 9 9 9 9 9 9 9 9 9 9 9 9 9 9 9 9 9 9 9 9 9 9 9 9 9 9 9 9 9 9 9 9 9 9 9 9 9 9 9 9 9 9 9 9 9 9 9 ",
"9 9 9 9 9 9 9 9 9 9 9 9 9 9 9 9 9 9 9 9 9 9 9 9 9 9 9 9 9 9 9 9 9 9 9 9 9 9 9 9 9 9 9 9 9 9 9 9 9 9 9 9 9 9 9 9 9 9 9 9 9 9 9 9 ",
"9 9 9 9 9 9 9 9 9 9 9 9 9 9 9 9 9 9 9 9 9 9 9 9 9 9 9 9 9 9 9 9 9 9 9 9 9 9 9 9 9 9 9 9 9 9 9 9 9 9 9 9 9 9 9 9 9 9 9 9 9 9 9 9 ",
"9 9 9 9 9 9 9 9 9 9 9 9 9 9 9 9 9 9 9 9 9 9 9 9 9 9 9 9 9 9 9 9 9 9 9 9 9 9 9 9 9 9 9 9 9 9 9 9 9 9 9 9 9 9 9 9 9 9 9 9 9 9 9 9 ",
"9 9 9 9 9 9 9 9 9 9 9 9 9 9 9 9 9 9 9 9 9 9 9 9 9 9 9 9 9 9 9 9 9 9 9 9 9 9 9 9 9 9 9 9 9 9 9 9 9 9 9 9 9 9 9 9 9 9 9 9 9 9 9 9 ",
"9 9 9 9 9 9 9 9 9 9 9 9 9 9 9 9 9 9 9 9 9 9 9 9 9 9 9 9 9 9 9 9 9 9 9 9 9 9 9 9 9 9 9 9 9 9 9 9 9 9 9 9 9 9 9 9 9 9 9 9 9 9 9 9 ",
"9 9 9 9 9 9 9 9 9 9 9 9 9 9 9 9 9 9 9 9 9 9 9 9 9 9 9 9 9 9 9 9 9 9 9 9 9 9 9 9 9 9 9 9 9 9 9 9 9 9 9 9 9 9 9 9 9 9 9 9 9 9 9 9 ",
"9 9 9 9 9 9 9 9 9 9 9 9 9 9 9 9 9 9 9 9 9 9 9 9 9 9 9 9 9 9 9 9 9 9 9 9 9 9 9 9 9 9 9 9 9 9 9 9 9 9 9 9 9 9 9 9 9 9 9 9 9 9 9 9 ",
"9 9 9 9 9 9 9 9 9 9 9 9 9 9 9 9 9 9 9 9 9 9 9 9 9 9 9 9 9 9 9 9 9 9 9 9 9 9 9 9 9 9 9 9 9 9 9 9 9 9 9 9 9 9 9 9 9 9 9 9 9 9 9 9 ",
"9 9 9 9 9 9 9 9 9 9 9 9 9 9 9 9 9 9 9 9 9 9 9 9 9 9 9 O + & : < < : & + O 9 9 9 9 9 9 9 9 9 9 9 9 9 9 9 9 9 9 9 9 9 9 9 9 9 9 9 ",
"9 9 9 9 9 9 9 9 9 9 9 9 9 9 9 9 9 9 9 9 9 9 9 9 9 O $ 5 V _ &.,.,.&._ V 3 = + 9 9 9 9 9 9 9 9 9 9 9 9 9 9 9 9 9 9 9 9 9 9 9 9 9 ",
"9 9 9 9 9 9 9 9 9 9 9 9 9 9 9 9 9 9 9 9 9 9 9 + + 8 _ 6.4.-.-.-.-.-.-.4.6._ 8 + O 9 9 9 9 9 9 9 9 9 9 9 9 9 9 9 9 9 9 9 9 9 9 9 ",
"9 9 9 9 9 9 9 9 9 9 9 9 9 9 9 9 9 9 9 9 9 9 + ; E 5.4.-.-.-.-.<.<.-.-.-.-.4.5.E = O 9 9 9 9 9 9 9 9 9 9 9 9 9 9 9 9 9 9 9 9 9 9 ",
"9 9 9 9 9 9 9 9 9 9 9 9 9 9 9 9 9 9 9 9 9 + , _ 8.<.<.<.4.4.4.4.4.4.4.4.<.<.<.8._ : O 9 9 9 9 9 9 9 9 9 9 9 9 9 9 9 9 9 9 9 9 9 ",
"9 9 9 9 9 9 9 9 9 9 9 9 9 9 9 9 9 9 9 9 + ; _ q.4.4.4.6.8.8.8.8.8.8.8.8.6.4.4.4.q._ = O 9 9 9 9 9 9 9 9 9 9 9 9 9 9 9 9 9 9 9 9 ",
"9 9 9 9 9 9 9 9 9 9 9 9 9 9 9 9 9 9 9 9 + F t.6.8.8.8.0.$.5.q.8.8.q.5.O.0.8.8.8.4.t.F + 9 9 9 9 9 9 9 9 9 9 9 9 9 9 9 9 9 9 9 9 ",
"9 9 9 9 9 9 9 9 9 9 9 9 9 9 9 9 9 9 9 o 7 y.9.8.8.8.q.M d x 5.8.8.5.x f M q.8.8.8.q.r.7 o 9 9 9 9 9 9 9 9 9 9 9 9 9 9 9 9 9 9 9 ",
"9 9 9 9 9 9 9 9 9 9 9 9 9 9 9 9 9 9 9 @ _ t.8.8.8.q.;.c u.' | q.q.| ' i.c ;.q.8.8.8.t._ & 9 9 9 9 9 9 9 9 9 9 9 9 9 9 9 9 9 9 9 ",
"9 9 9 9 9 9 9 9 9 9 9 9 9 9 9 9 9 9 + 4 0.8.8.8.8.w. .c p.{ b q.w.b { p.c  .w.8.8.8.q.0.4 + 9 9 9 9 9 9 9 9 9 9 9 9 9 9 9 9 9 9 ",
"9 9 9 9 9 9 9 9 9 9 9 9 9 9 9 9 9 9 o V t.8.8.8.8.w.| y ] s v w.w.v s ] u | w.8.8.9.8.t.V O 9 9 9 9 9 9 9 9 9 9 9 9 9 9 9 9 9 9 ",
"9 9 9 9 9 9 9 9 9 9 9 9 9 9 9 9 9 9 + ~ t.8.8.8.8.w.| q q 0 m w.w.m 0 q q | w.8.8.8.8.w.~ # 9 9 9 9 9 9 9 9 9 9 9 9 9 9 9 9 9 9 ",
"9 9 9 9 9 9 9 9 9 9 9 9 9 9 9 9 9 9 : >.q.8.8.8.8.w.X.t r w } w.w.} w e t ..w.8.8.8.8.q.:.- 9 9 9 9 9 9 9 9 9 9 9 9 9 9 9 9 9 9 ",
"9 9 9 9 9 9 9 9 9 9 9 9 9 9 9 9 9 9 < ,.q.8.q.q.q.q.1.a i p o.q.q.o.p i a 2.w.q.q.q.8.q.,.> 9 9 9 9 9 9 9 9 9 9 9 9 9 9 9 9 9 9 ",
"9 9 9 9 9 9 9 9 9 9 9 9 9 9 9 9 9 9 < 3.q.q.<./ ^ ` 8.[ U Y 5.8.8.5.Y U [ 8.` ^ / <.q.q.,.> 9 9 9 9 9 9 9 9 9 9 9 9 9 9 9 9 9 9 ",
"9 9 9 9 9 9 9 9 9 9 9 9 9 9 9 9 9 9 : ,.8.8./ C C Z -.0.;.7.e.q.q.e.7.;.0.-.Z C C / 8.q.>.: 9 9 9 9 9 9 9 9 9 9 9 9 9 9 9 9 9 9 ",
"9 9 9 9 9 9 9 9 9 9 9 9 9 9 9 9 9 9 & _ 8.4.<./ / ` 6.8.8.0.n ! ! z 0.9.8.6.` / / <.6.8._ & 9 9 9 9 9 9 9 9 9 9 9 9 9 9 9 9 9 9 ",
"9 9 9 9 9 9 9 9 9 9 9 9 9 9 9 9 9 9 X D 8.<.4.4.6.6.6.6.6.8.R j h T 8.8.6.6.6.6.4.4.<.6.S + 9 9 9 9 9 9 9 9 9 9 9 9 9 9 9 9 9 9 ",
"9 9 9 9 9 9 9 9 9 9 9 9 9 9 9 9 9 9 X 8 8.-.-.-.<.<.4.4.4.4.8.6.5.8.4.4.4.4.<.<.-.-.*.6.7 o 9 9 9 9 9 9 9 9 9 9 9 9 9 9 9 9 9 9 ",
"9 9 9 9 9 9 9 9 9 9 9 9 9 9 9 9 9 9 9 - #.*.+.%.*.-.-.-.<.<.<.4.4.<.<.<.-.-.-.*.*.%.*.@.* 9 9 9 9 9 9 9 9 9 9 9 9 9 9 9 9 9 9 9 ",
"9 9 9 9 9 9 9 9 9 9 9 9 9 9 9 9 9 9 9 o g 4.( ) +.+.%.*.-.-.-.-.-.-.-.-.*.%.+.+.) ( 4.g o 9 9 9 9 9 9 9 9 9 9 9 9 9 9 9 9 9 9 9 ",
"9 9 9 9 9 9 9 9 9 9 9 9 9 9 9 9 9 9 9 9 & ~ %.L I ( ( ) +.+.%.%.%.%.+.+.) ( ( I P %.W @ 9 9 9 9 9 9 9 9 9 9 9 9 9 9 9 9 9 9 9 9 ",
"9 9 9 9 9 9 9 9 9 9 9 9 9 9 9 9 9 9 9 9 + < >.( J L P I ( ( ( ( ( ( ( ( I P L J ( >., + 9 9 9 9 9 9 9 9 9 9 9 9 9 9 9 9 9 9 9 9 ",
"9 9 9 9 9 9 9 9 9 9 9 9 9 9 9 9 9 9 9 9 9 o 5 >.( H J K L L P P P P L L K J H ( >.2 o 9 9 9 9 9 9 9 9 9 9 9 9 9 9 9 9 9 9 9 9 9 ",
"9 9 9 9 9 9 9 9 9 9 9 9 9 9 9 9 9 9 9 9 9 9 o 2 _ %.J G H J J J J J J H G J %._ 1 o 9 9 9 9 9 9 9 9 9 9 9 9 9 9 9 9 9 9 9 9 9 9 ",
"9 9 9 9 9 9 9 9 9 9 9 9 9 9 9 9 9 9 9 9 9 9 9 o = B ,.+.L H A A A G H L +.>.N * @ 9 9 9 9 9 9 9 9 9 9 9 9 9 9 9 9 9 9 9 9 9 9 9 ",
"9 9 9 9 9 9 9 9 9 9 9 9 9 9 9 9 9 9 9 9 9 9 9 9 9 O , l Q =.*.*.*.=.#.Q k , O 9 9 9 9 9 9 9 9 9 9 9 9 9 9 9 9 9 9 9 9 9 9 9 9 9 ",
"9 9 9 9 9 9 9 9 9 9 9 9 9 9 9 9 9 9 9 9 9 9 9 9 9 9 9 X % , 4 6 6 3 > @ X 9 9 9 9 9 9 9 9 9 9 9 9 9 9 9 9 9 9 9 9 9 9 9 9 9 9 9 ",
"9 9 9 9 9 9 9 9 9 9 9 9 9 9 9 9 9 9 9 9 9 9 9 9 9 9 9 9 9 9 9 9 9 9 9 9 9 9 9 9 9 9 9 9 9 9 9 9 9 9 9 9 9 9 9 9 9 9 9 9 9 9 9 9 ",
"9 9 9 9 9 9 9 9 9 9 9 9 9 9 9 9 9 9 9 9 9 9 9 9 9 9 9 9 9 9 9 9 9 9 9 9 9 9 9 9 9 9 9 9 9 9 9 9 9 9 9 9 9 9 9 9 9 9 9 9 9 9 9 9 ",
"9 9 9 9 9 9 9 9 9 9 9 9 9 9 9 9 9 9 9 9 9 9 9 9 9 9 9 9 9 9 9 9 9 9 9 9 9 9 9 9 9 9 9 9 9 9 9 9 9 9 9 9 9 9 9 9 9 9 9 9 9 9 9 9 ",
"9 9 9 9 9 9 9 9 9 9 9 9 9 9 9 9 9 9 9 9 9 9 9 9 9 9 9 9 9 9 9 9 9 9 9 9 9 9 9 9 9 9 9 9 9 9 9 9 9 9 9 9 9 9 9 9 9 9 9 9 9 9 9 9 ",
"9 9 9 9 9 9 9 9 9 9 9 9 9 9 9 9 9 9 9 9 9 9 9 9 9 9 9 9 9 9 9 9 9 9 9 9 9 9 9 9 9 9 9 9 9 9 9 9 9 9 9 9 9 9 9 9 9 9 9 9 9 9 9 9 ",
"9 9 9 9 9 9 9 9 9 9 9 9 9 9 9 9 9 9 9 9 9 9 9 9 9 9 9 9 9 9 9 9 9 9 9 9 9 9 9 9 9 9 9 9 9 9 9 9 9 9 9 9 9 9 9 9 9 9 9 9 9 9 9 9 ",
"9 9 9 9 9 9 9 9 9 9 9 9 9 9 9 9 9 9 9 9 9 9 9 9 9 9 9 9 9 9 9 9 9 9 9 9 9 9 9 9 9 9 9 9 9 9 9 9 9 9 9 9 9 9 9 9 9 9 9 9 9 9 9 9 ",
"9 9 9 9 9 9 9 9 9 9 9 9 9 9 9 9 9 9 9 9 9 9 9 9 9 9 9 9 9 9 9 9 9 9 9 9 9 9 9 9 9 9 9 9 9 9 9 9 9 9 9 9 9 9 9 9 9 9 9 9 9 9 9 9 ",
"9 9 9 9 9 9 9 9 9 9 9 9 9 9 9 9 9 9 9 9 9 9 9 9 9 9 9 9 9 9 9 9 9 9 9 9 9 9 9 9 9 9 9 9 9 9 9 9 9 9 9 9 9 9 9 9 9 9 9 9 9 9 9 9 ",
"9 9 9 9 9 9 9 9 9 9 9 9 9 9 9 9 9 9 9 9 9 9 9 9 9 9 9 9 9 9 9 9 9 9 9 9 9 9 9 9 9 9 9 9 9 9 9 9 9 9 9 9 9 9 9 9 9 9 9 9 9 9 9 9 ",
"                                                                                                                                ",
"                                                                                                                                ",
"                                                                                                                                ",
"                                                                                                                                ",
"                                                                                                                                ",
". . . . . . . . . . . . . . . . . . . . . . . . . . . . . . . . . . . . . . . . . . . . . . . . . . . . . . . . . . . . . . . . ",
"9 9 9 9 9 9 9 9 9 9 9 9 9 9 9 9 9 9 9 9 9 9 9 9 9 9 9 9 9 9 9 9 9 9 9 9 9 9 9 9 9 9 9 9 9 9 9 9 9 9 9 9 9 9 9 9 9 9 9 9 9 9 9 9 ",
"9 9 9 9 9 9 9 9 9 9 9 9 9 9 9 9 9 9 9 9 9 9 9 9 9 9 9 9 9 9 9 9 9 9 9 9 9 9 9 9 9 9 9 9 9 9 9 9 9 9 9 9 9 9 9 9 9 9 9 9 9 9 9 9 ",
"9 9 9 9 9 9 9 9 9 9 9 9 9 9 9 9 9 9 9 9 9 9 9 9 9 9 9 9 9 9 9 9 9 9 9 9 9 9 9 9 9 9 9 9 9 9 9 9 9 9 9 9 9 9 9 9 9 9 9 9 9 9 9 9 ",
"9 9 9 9 9 9 9 9 9 9 9 9 9 9 9 9 9 9 9 9 9 9 9 9 9 9 9 9 9 9 9 9 9 9 9 9 9 9 9 9 9 9 9 9 9 9 9 9 9 9 9 9 9 9 9 9 9 9 9 9 9 9 9 9 ",
"9 9 9 9 9 9 9 9 9 9 9 9 9 9 9 9 9 9 9 9 9 9 9 9 9 9 9 9 9 9 9 9 9 9 9 9 9 9 9 9 9 9 9 9 9 9 9 9 9 9 9 9 9 9 9 9 9 9 9 9 9 9 9 9 ",
"9 9 9 9 9 9 9 9 9 9 9 9 9 9 9 9 9 9 9 9 9 9 9 9 9 9 9 9 9 9 9 9 9 9 9 9 9 9 9 9 9 9 9 9 9 9 9 9 9 9 9 9 9 9 9 9 9 9 9 9 9 9 9 9 "
};
