/* XPM */
static char *_bc8aae4831f483eb97ae39c5cfc6709Y6CtcfrtzgHgy4DY[] = {
/* columns rows colors chars-per-pixel */
"64 64 240 2 ",
"   c None",
".  c #9B480B",
"X  c #A54A0B",
"o  c #A7510F",
"O  c #BE550D",
"+  c #BE5B14",
"@  c #BC5B1C",
"#  c #B65512",
"$  c #B04A0A",
"%  c #BD6A1B",
"&  c #B76319",
"*  c #BE5D23",
"=  c #BA5726",
"-  c #BE5F31",
";  c #BC6327",
":  c #BD7D22",
">  c #C25C0C",
",  c #C35E14",
"<  c #C6620A",
"1  c #CA6B0E",
"2  c #C8650C",
"3  c #C36415",
"4  c #CA6B14",
"5  c #CB6C1A",
"6  c #C46718",
"7  c #CC7213",
"8  c #CD731D",
"9  c #C47A19",
"0  c #D17414",
"q  c #D57B14",
"w  c #DA7B14",
"e  c #D5791B",
"r  c #D07211",
"t  c #E17F14",
"y  c #C05C22",
"u  c #C16225",
"i  c #C7692C",
"p  c #CC7727",
"a  c #D57828",
"s  c #C46B3C",
"d  c #C66B34",
"f  c #D1793B",
"g  c #BE6442",
"h  c #C56E42",
"j  c #CA7848",
"k  c #C97955",
"l  c #D27941",
"z  c #BF8B3D",
"x  c #DC8A16",
"c  c #DA841C",
"v  c #DE8B1C",
"b  c #D68316",
"n  c #D9931B",
"m  c #C78015",
"M  c #E6860F",
"N  c #E48B18",
"B  c #E3941D",
"V  c #E49B1C",
"C  c #EB9B1B",
"Z  c #E89418",
"A  c #F29716",
"S  c #ECA51C",
"D  c #EEAB1C",
"F  c #E6A41C",
"G  c #F4A31B",
"H  c #F6AC1D",
"J  c #F5B21E",
"K  c #CD8D26",
"L  c #C98627",
"P  c #D48D24",
"I  c #D78627",
"U  c #DA9325",
"Y  c #D9972C",
"T  c #CA8C34",
"R  c #D58A35",
"E  c #D69335",
"W  c #E28C21",
"Q  c #E39425",
"!  c #E39A24",
"~  c #EB9D2A",
"^  c #E99B26",
"/  c #E69231",
"(  c #E6A222",
")  c #EBA323",
"_  c #EDAB23",
"`  c #ECA32A",
"'  c #E9A62A",
"]  c #F3AC23",
"[  c #F2AD2B",
"{  c #F6A726",
"}  c #F3B423",
"|  c #F9B423",
" . c #F6BC24",
".. c #F9BB24",
"X. c #F4B52A",
"o. c #F9B62A",
"O. c #F6BB2C",
"+. c #F9BC2A",
"@. c #E8A837",
"#. c #F3AD36",
"$. c #F1A734",
"%. c #FABE32",
"&. c #F4B836",
"*. c #EFB42F",
"=. c #F7C226",
"-. c #FBC425",
";. c #FBCB25",
":. c #F6C22C",
">. c #FBC42A",
",. c #FCCC2A",
"<. c #FDD32B",
"1. c #FEDA2C",
"2. c #FDD327",
"3. c #FCC333",
"4. c #FCCC33",
"5. c #FCC53A",
"6. c #FCCA3A",
"7. c #F7C038",
"8. c #FDD433",
"9. c #FEDC34",
"0. c #FDD33C",
"q. c #FDDC3A",
"w. c #FDE23C",
"e. c #FEE538",
"r. c #D39945",
"t. c #CE825C",
"y. c #D3895C",
"u. c #D69F56",
"i. c #CF924C",
"p. c #E69C4D",
"a. c #E7AC4A",
"s. c #EEB446",
"d. c #F3BE4A",
"f. c #ECB559",
"g. c #EEB25A",
"h. c #CE8565",
"j. c #D28B63",
"k. c #D28D6C",
"l. c #D59569",
"z. c #DA9D7C",
"x. c #D59679",
"c. c #CE8D7A",
"v. c #E19A66",
"b. c #D6A465",
"n. c #DCA571",
"m. c #D5AF76",
"M. c #D8B17D",
"N. c #EFBD6B",
"B. c #EDBA73",
"V. c #E9AD6F",
"C. c #FDCD47",
"Z. c #FCCD49",
"A. c #F2C446",
"S. c #FCD343",
"D. c #FBDC45",
"F. c #FBD44C",
"G. c #FBDB4C",
"H. c #F5DB48",
"J. c #ECC756",
"K. c #EDDA5A",
"L. c #FDD453",
"P. c #FBDB53",
"I. c #FADE5B",
"U. c #F5D957",
"Y. c #F3C650",
"T. c #FCE344",
"R. c #FDED4B",
"E. c #FBE549",
"W. c #F9E355",
"Q. c #FAE857",
"!. c #FDF15B",
"~. c #FEF155",
"^. c #F3C368",
"/. c #EAD665",
"(. c #F6DD62",
"). c #FCDD65",
"_. c #F4DC69",
"`. c #F1C375",
"'. c #F5E263",
"]. c #F9E364",
"[. c #F6E46C",
"{. c #F9E769",
"}. c #FDF36A",
"|. c #FBF164",
" X c #F6E673",
".X c #F6E974",
"XX c #FAE977",
"oX c #FCF374",
"OX c #FCF37B",
"+X c #DBA185",
"@X c #DDA88D",
"#X c #DBB785",
"$X c #DDAB93",
"%X c #DCA998",
"&X c #DFB496",
"*X c #E4B59B",
"=X c #E6B190",
"-X c #E1B4A4",
";X c #E6BFA8",
":X c #E3BCB1",
">X c #EAC488",
",X c #F2CA89",
"<X c #EFCD98",
"1X c #FEEB85",
"2X c #FAF489",
"3X c #FDF292",
"4X c #FBF698",
"5X c #E7C6A5",
"6X c #F1CEA8",
"7X c #F3D3A8",
"8X c #E9C4B1",
"9X c #EACAB9",
"0X c #EAD4B8",
"qX c #F4D9B8",
"wX c #FFFAA2",
"eX c #FFFEA9",
"rX c #EED3C3",
"tX c #EED5CA",
"yX c #EEDBCA",
"uX c #F2DDCC",
"iX c #F3DCC1",
"pX c #F1DDD2",
"aX c #F1DFD9",
"sX c #EECFC0",
"dX c #F7E3C7",
"fX c #F2E5D3",
"gX c #F5E3DA",
"hX c #F9EBDC",
"jX c #F6E9D9",
"kX c #EEE1CE",
"lX c #F6EAE3",
"zX c #FAEDE5",
"xX c #F9EFEB",
"cX c #F5E6E1",
"vX c #FAF0E3",
"bX c #FAF3ED",
"nX c #F7F0E7",
"mX c #FBF5F2",
"MX c #FCF9F6",
"NX c #FFFFFF",
/* pixels */
"                                                                                                                                ",
"                                                                                                                                ",
"                                                                                                                                ",
"                                                                                                                                ",
"                                                                                                                                ",
"                                                                                                                                ",
"                                        XXXX.X.X X X X X[.[.[.[.[.[.[.[.[.[. X X.X.X                                            ",
"                                        .X X[.[.[.].].).(.(.(.(.(.(.(.(.(.(.)._.[.[.                                            ",
"                                 X X[.].].).I.P.P.P.F.F.F.F.F.F.F.C.C.C.C.C.Z.L.L.).XX1X3XwXeXeX                                ",
"                                [.].I.I.P.F.S.S.0.0.6.6.6.6.5.5.3.3.3.3.3.3.3.5.C.L.).XX1X3X4XwX                                ",
"                        /._._.].I.P.D.0.8.8.4.4.4.,.,.>.>.+.O.o.| o.o.o.+.+.+.>.3.6.C.L.).XX1X3X4XwX                            ",
"                        (.(.(.P.G.0.8.<.,.-.-.=. .} D D F V Z Z Z Z Z C C F S S ] o.%.5.C.L.).XX1X3X                            ",
"                    _.(.'.I.G.S.8.<.<.,.-...} S V x q 7 1 2 < < < < < 2 1 1 r q x B ] +.3.6.C.L.).XX1X2X2X2X                    ",
"                    '.'.W.G.0.8.,.-.=.} S C N b 0 4 6 , + + + @ @ * * * * u u 6 4 0 v C ] o.%.6.F.I.XXOX2X2X                    ",
"                [.[.'.W.D.0.8.,.-.} F x r 2 > O + y i d h j j k t.t.h.h.h.h.k s = # > 4 b V [ %.6.S.P.{.oX2X2X4X                ",
"                [.'.W.D.q.<.,. .D B b 7 3 @ * d h k h.x.z.+X@X$X&X-X-X-X-X%X@Xc.k g - u 5 q B _ O.4.0.G.].oX2X2X                ",
"            [.[.].W.T.q.8.,. .( b 4 , u s k k.+X*X8X9XtXuXpXpXgXhXcXcXlXlXcXaXtX:X%Xx.t.d 5 4 b ) O.4.0.D.Q.}.OXOXXX            ",
"            [.'.W.E.q.8.<. .F b 6 * s k x.$X8XrXgXzXmXMXNXNXNXNXNXNXNXNXNXNXNXMXlXpX9X%Xl.j i 5 v ` O.4.8.T.~.}.oXXX            ",
"            '.W.E.w.9.8.=.( 0 3 u j +X8XtXgXlXbXmXMXNXNXNXNXNXNXNXNXNXNXNXNXNXNXMXmXxXgXrX=Xt.i 5 w ` O.4.q.E.~.}.oX            ",
"            W.E.w.9.8.:.( b 3 * k +XsXzXMXNXNXNXNXNXNXNXNXNXNXNXNXNXNXNXNXNXNXNXNXNXNXNXmXuX$Xy.i 5 c ) :.8.w.R.!.}.            ",
"        K.W.E.w.9.1.,._ b 3 * j @XrXzXMXNXNXNXNXNXNXNXNXNXNXNXNXNXNXNXNXNXNXNXNXNXNXNXNXNXbXyX*Xj.d 5 b [ 4.9.w.R.!.oXOX        ",
"        K.W.w.9.1.,.} B 4 * j z.rXbXNXNXNXNXNXNXNXNXNXNXNXNXNXNXNXNXNXNXNXNXNXNXNXNXNXNXNXNXmXpX*Xj.d 8 Q X.4.w.E.~.}.oX        ",
"    /.K.U.D.9.1.1.=.V q 6 h +X9XzXNXNXNXNXNXNXNXNXNXNXNXNXNXNXNXNXNXNXNXNXNXNXNXNXNXNXNXNXNXNXbXgX;Xj.f I ! :.9.w.E.!.|..X X    ",
"    /.K.H.q.1.1.<.} b 6 d k.8XzXMXNXNXNXNXNXNXNXNXNXNXNXNXNXNXNXNXNXNXNXNXNXNXNXNXNXNXNXNXNXNXNXNXgX&Xj.a c X.8.9.w.R.!.{..X    ",
"    K.U.q.1.1.<.=.V 1 u j.*XgXMXNXNXNXNXNXNXNXNXNXNXNXNXNXNXNXNXNXNXNXNXNXNXNXNXNXNXNXNXNXNXNXNXNXbXtX$Xj 8 ^ %.8.e.e.R.!.|.    ",
"    U.G.9.1.1.,._ v 3 s @XtXmXNXNXNXNXNXNXNXNXNXNXNXNXNXNXNXNXNXNXNXNXNXNXNXNXNXNXNXNXNXNXNXNXNXNXMXxX9Xt.i I ' 4.9.e.e.R.~.    ",
"    F.S.8.1.1.=.V e i y.8XzXMXNXNXNXNXNXNXNXNXNXNXNXNXNXNXNXNXNXNXNXNXNXNXNXNXNXNXNXNXNXNXNXNXNXNXNXNXpXz.j a B :.8.1.e.E.R.    ",
"    S.0.1.<.<. .N 8 l z.uXNXNXNXNXNXNXNXNXNXNXNXNXNXNXNXNXNXNXNXNXNXNXNXNXNXNXNXNXNXNXNXNXNXNXNXNXNXNXcX&Xy.p b X.8.1.9.T.E.    ",
"J.Y.6.4.<.<.,.J w a y.*XhXNXNXNXNXNXNXNXNXNXNXNXNXNXNXNXNXNXNXNXNXNXNXNXNXNXNXNXNXNXNXNXNXNXNXNXNXNXNXxX9Xz.p q } <.1.1.q.E.W.W.",
"J.Y.6.,.<.<.;.D w a n.9XxXNXNXNXNXNXNXNXNXNXNXNXNXNXNXNXNXNXNXNXNXNXNXNXNXNXNXNXNXNXNXNXNXNXNXNXNXNXNXmXpX&Xf 0 ) >.<.1.8.q.G.W.",
"Y.A.3.,.<.<.-.S w f =XuXmXNXNXNXNXNXNXNXNXNXNXNXNXNXNXNXNXNXNXNXNXNXNXNXNXNXNXNXNXNXNXNXNXNXNXNXNXNXNXMXcX;Xj 8 ^ ..<.1.1.8.D.G.",
"d.A.:.;.<.<...) a i.5XhXMXNXNXNXNXNXNXNXNXNXNXNXNXNXNXNXNXNXNXNXNXNXNXNXNXNXNXNXNXNXNXNXNXNXNXNXNXNXNXNXbX9Xy.p Q } ,.1.2.<.0.S.",
"s.&.=.;.<.<.} ^ / v.0XmXNXNXNXNXNXNXNXNXNXNXNXNXNXNXNXNXNXNXNXNXNXNXNXNXNXNXNXNXNXNXNXNXNXNXNXNXNXNXNXNXMXrXl.p v D ;.1.2.,.6.6.",
"&.&. .;.<.;.J ~ / V.uXNXNXNXNXNXNXNXNXNXNXNXNXNXNXNXNXNXNXNXNXNXNXNXNXNXNXNXNXNXNXNXNXNXNXNXNXNXNXNXNXNXMXyXl.R v S ;.1.;.>.3.5.",
"#.&. .-.<.;.J ` p.=XjXNXNXNXNXNXNXNXNXNXNXNXNXNXNXNXNXNXNXNXNXNXNXNXNXNXNXNXNXNXNXNXNXNXNXNXNXNXNXNXNXNXNXuXn.R v S ;.<.;.=.O.%.",
"#.#.o.=.<.;.J $.g.*XhXNXNXNXNXNXNXNXNXNXNXNXNXNXNXNXNXNXNXNXNXNXNXNXNXNXNXNXNXNXNXNXNXNXNXNXNXNXNXNXNXNXNXuXn.R B S ;.<.;.-.O.&.",
"#.#.o.-.<.2.} #.V.5XzXNXNXNXNXNXNXNXNXNXNXNXNXNXNXNXNXNXNXNXNXNXNXNXNXNXNXNXNXNXNXNXNXNXNXNXNXNXNXNXNXNXNXuXn.R B S ;.<.;.-.+.o.",
"$.[ | -.<.<. .#.B.6XzXNXNXNXNXNXNXNXNXNXNXNXNXNXNXNXNXNXNXNXNXNXNXNXNXNXNXNXNXNXNXNXNXNXNXNXNXNXNXNXNXNXNXuXn.E B D ;.<.;...o.o.",
"$.{ ] ..<.<...&.B.6XvXNXNXNXNXNXNXNXNXNXNXNXNXNXNXNXNXNXNXNXNXNXNXNXNXNXNXNXNXNXNXNXNXNXNXNXNXNXNXNXNXNXNXuXn.E ! D ,.1.-.| | [ ",
"~ ` ] ..<.<.-.&.N.6XvXNXNXNXNXNXNXNXNXNXNXNXNXNXNXNXNXNXNXNXNXNXNXNXNXNXNXNXNXNXNXNXNXNXNXNXNXNXNXNXNXNXNXuXn.E ! } <.1...| { { ",
"~ ` { | ,.<.-.7.N.6XvXNXNXNXNXNXNXNXNXNXNXNXNXNXNXNXNXNXNXNXNXNXNXNXNXNXNXNXNXNXNXNXNXNXNXNXNXNXNXNXNXNXMXuXn.E ) } <.<...H { { ",
"~ ^ G H -.<.;.3.f.<XhXNXNXNXNXNXNXNXNXNXNXNXNXNXNXNXNXNXNXNXNXNXNXNXNXNXNXNXNXNXNXNXNXNXNXNXNXNXNXNXNXNXMXiXb.Y ) ..<.,.| G { { ",
"Y ! C H -.,.;.3.d.,XdXMXNXNXNXNXNXNXNXNXNXNXNXNXNXNXNXNXNXNXNXNXNXNXNXNXNXNXNXNXNXNXNXNXNXNXNXNXNXNXNXNXbX0Xu.U _ ..,.,.H A ) ~ ",
"Y U Z G ..;.;.>.&.`.dXbXNXNXNXNXNXNXNXNXNXNXNXNXNXNXNXNXNXNXNXNXNXNXNXNXNXNXNXNXNXNXNXNXNXNXNXNXNXNXNXMXlX5Xr.n _ =.,.-.G A ^ ^ ",
"T P N C ..;.;.-.%.^.qXzXMXNXNXNXNXNXNXNXNXNXNXNXNXNXNXNXNXNXNXNXNXNXNXNXNXNXNXNXNXNXNXNXNXNXNXNXNXNXNXmXfX<Xr.n } >.,...A N W Q ",
"T L c Z ] =.;.-.+.Y.7XjXMXNXNXNXNXNXNXNXNXNXNXNXNXNXNXNXNXNXNXNXNXNXNXNXNXNXNXNXNXNXNXNXNXNXNXNXNXNXNXbXyX#XE n } >.=.J A M I I ",
"    e N ) ..-.=...d.,XiXbXNXNXNXNXNXNXNXNXNXNXNXNXNXNXNXNXNXNXNXNXNXNXNXNXNXNXNXNXNXNXNXNXNXNXNXNXNXNXnX0Xm.E n } >...G M t I R ",
"    0 e C ] +.+...&.`.7XvXNXNXNXNXNXNXNXNXNXNXNXNXNXNXNXNXNXNXNXNXNXNXNXNXNXNXNXNXNXNXNXNXNXNXNXNXNXNXlX5Xb.Y B } ..] Z M w I R ",
"    5 e v C [ +...&.f.,XjXMXNXNXNXNXNXNXNXNXNXNXNXNXNXNXNXNXNXNXNXNXNXNXNXNXNXNXNXNXNXNXNXNXNXNXNXNXNXjX&Xu.Y V } } C N w 0     ",
"    6 5 q N ` X.X.X.s.`.dXmXNXNXNXNXNXNXNXNXNXNXNXNXNXNXNXNXNXNXNXNXNXNXNXNXNXNXNXNXNXNXNXNXNXNXNXNXNXfXM.r.U V } ] N q 7 4     ",
"    @ 3 4 w ^ { [ [ @.N.qXbXMXNXNXNXNXNXNXNXNXNXNXNXNXNXNXNXNXNXNXNXNXNXNXNXNXNXNXNXNXNXNXNXNXNXNXNXmX0Xb.T U ( ] S b 7 6 %     ",
"    @ + , 4 W ^ ` ' ' f.7XjXMXNXNXNXNXNXNXNXNXNXNXNXNXNXNXNXNXNXNXNXNXNXNXNXNXNXNXNXNXNXNXNXNXNXNXMXjX5Xi.L U ! ` B 0 3 % %     ",
"        O , e U ! ( ' s.,XdXbXNXNXNXNXNXNXNXNXNXNXNXNXNXNXNXNXNXNXNXNXNXNXNXNXNXNXNXNXNXNXNXNXNXNXbXrX#XT m n ! Q c 4 + & ;     ",
"        $ # 8 I U ! ' a.B.7XvXNXNXNXNXNXNXNXNXNXNXNXNXNXNXNXNXNXNXNXNXNXNXNXNXNXNXNXNXNXNXNXNXNXNXlX5Xb.L 9 P U I 8 + # @ ;     ",
"        X o & p P Y ' @.f.>XfXMXNXNXNXNXNXNXNXNXNXNXNXNXNXNXNXNXNXNXNXNXNXNXNXNXNXNXNXNXNXNXNXNXNXfX#Xi.: 9 K P p % # o         ",
"        . o & 9 K Y Y @.a.>XdXmXNXNXNXNXNXNXNXNXNXNXNXNXNXNXNXNXNXNXNXNXNXNXNXNXNXNXNXNXNXNXNXNXNXkXm.z : 9 K K 9 & o X         ",
"                                                                                                                                ",
"                                                                                                                                ",
"                                                                                                                                ",
"                                                                                                                                ",
"                                                                                                                                ",
"                                                                                                                                ",
"                                                                                                                                ",
"                                                                                                                                "
};
