/* XPM */
static char *_8197415ec724f80a088f892daa848bbZ1mrFoVzOriowy9F[] = {
/* columns rows colors chars-per-pixel */
"32 32 7 1 ",
"  c None",
". c black",
"X c #3E2731",
"o c #733E39",
"O c #D77643",
"+ c #3E8948",
"@ c #63C74D",
/* pixels */
"                                ",
"                                ",
"                                ",
"                                ",
"                                ",
"                                ",
"                                ",
"                                ",
"                                ",
"              ........          ",
"             ..++++++...        ",
"           ...++@@@@+++..       ",
"         ...+++@@@@@@@++..      ",
"        ..+++@@@@@@@@@@++.      ",
"        .++@@@@@@@@@@@@@+.      ",
"        .+@@@@@@@@@@@@@@+.      ",
"       ..+@@@@@@@@@@@@+++.      ",
"       .++@@@@@@@@@@@@+...      ",
"       .+@@@@@@++++++@+.        ",
"       .++++++++....+++.        ",
"       ...++.....XX.+...        ",
"         ..+.X..oo....          ",
"          ...oooooX.            ",
"            ...oXXX.            ",
"              .ooo..            ",
"              .Ooo.             ",
"              .Ooo.             ",
"              .OOo.             ",
"             ..oOo..            ",
"            ..ooOoo..           ",
"           ..o.Xoo.X..          ",
"          .............         "
};
