/* XPM */
static char *cd4e0c52f3584293f9f367ac78c8c809v5d8M1Ef3ZHVEebh[] = {
/* columns rows colors chars-per-pixel */
"32 32 8 1 ",
"  c None",
". c black",
"X c #3E8948",
"o c #63C74D",
"O c #3E2731",
"+ c #733E39",
"@ c #D77643",
"# c white",
/* pixels */
"                                ",
"                                ",
"                                ",
"                                ",
"                                ",
"                                ",
"                                ",
"                                ",
"                                ",
"              .......           ",
"             ..XXXXX...         ",
"           ...XXoooXXX..        ",
"         ...XXXooooooXX..       ",
"        ..XXXoooooooooXX.       ",
"        .XXooooooooooooX.       ",
"        .XoooooooooooooX.       ",
"       ..XooooooooooooXX.       ",
"       .XXooooooooooooX..       ",
"       .XooooooXXXXXXoX.        ",
"       .XXXXXXXX....XXX.        ",
"       ...XX.....OO.X...        ",
"         ..X.O..++....          ",
"          ...+++++O.            ",
"            ...+OOO.            ",
"              .+++..            ",
"              .@++.             ",
"              .@++.             ",
"              .@@+.             ",
"             ..+@+..            ",
"            ..++@++..           ",
"           ..+.O++.O..          ",
"          .............         "
};
