/* XPM */
static char *a24b93b453cf4114984cd79e10bea67fhWnBCspByqDEqis3[] = {
/* columns rows colors chars-per-pixel */
"32 32 8 1 ",
"  c None",
". c black",
"X c #3E8948",
"o c #63C74D",
"O c #3E2731",
"+ c #733E39",
"@ c #D77643",
"# c white",
/* pixels */
"                                ",
"                                ",
"                                ",
"                                ",
"                                ",
"                                ",
"                                ",
"                                ",
"                                ",
"             .......            ",
"            ..XXXXX...          ",
"          ...XXoooXXX..         ",
"        ...XXXooooooXX..        ",
"       ..XXXoooooooooXX.        ",
"       .XXooooooooooooX.        ",
"       .XoooooooooooooX.        ",
"      ..XooooooooooooXX.        ",
"      .XXooooooooooooX..        ",
"      .XoooooooXXXXXoX.         ",
"      .XXXXXXXXX....XX.         ",
"      ...XXX.....OO....         ",
"        ...X.O..++...           ",
"          ...+++++O.            ",
"            ...+OOO.            ",
"              .+++..            ",
"              .@++.             ",
"              .@++.             ",
"              .@@+.             ",
"             ..+@+..            ",
"            ..++@++..           ",
"           ..+.O++.O..          ",
"          .............         "
};
