/* XPM */
static char *_9fa2078e5cf474adc52a27f21f80c77fnbZzF8wwilmclf7[] = {
/* columns rows colors chars-per-pixel */
"18 18 107 2 ",
"   c None",
".  c #FFDC7C",
"X  c #FFE06D",
"o  c #FFE16E",
"O  c #FFE26F",
"+  c #FFE36F",
"@  c #FFE370",
"#  c #FFE472",
"$  c #FFE972",
"%  c #FFEE73",
"&  c #FFEB75",
"*  c #FFED74",
"=  c #FFEC75",
"-  c #FFEF74",
";  c #FFE07B",
":  c #FFEE7E",
">  c #FFF277",
",  c #FFF475",
"<  c #FFF476",
"1  c #FFF776",
"2  c #FFF677",
"3  c #FFF877",
"4  c #FFF579",
"5  c #FFF67E",
"6  c #FFF97B",
"7  c #FFFB7B",
"8  c #FFFC7C",
"9  c #FFFD7C",
"0  c #FFFF7C",
"q  c #FFFF7D",
"w  c #FFFF7E",
"e  c #E7A387",
"r  c #EDA98D",
"t  c #F9B681",
"y  c #FFBC86",
"u  c #FFCD86",
"i  c #FFC28B",
"p  c #FDC18E",
"a  c #FFC18F",
"s  c #FFD588",
"d  c #FFDA8F",
"f  c #FDC494",
"g  c #FFE980",
"h  c #FFF084",
"j  c #FFF982",
"k  c #FFFF80",
"l  c #FFFF81",
"z  c #FFFF82",
"x  c #FFFF83",
"c  c #FFF985",
"v  c #FFFF85",
"b  c #FFFF86",
"n  c #FFFF87",
"m  c #FFFF88",
"M  c #FFFF89",
"N  c #FFFF8A",
"B  c #FFFF8B",
"V  c #FFF88E",
"C  c #FFFF8C",
"Z  c #FFFF8D",
"A  c #FFFF8E",
"S  c #FFFF8F",
"D  c #FFEB96",
"F  c #FFFF90",
"G  c #FFFF92",
"H  c #FFFF93",
"J  c #FFFF94",
"K  c #FFFF95",
"L  c #FFFF96",
"P  c #FFFF97",
"I  c #FFFF98",
"U  c #FFFF99",
"Y  c #FFFF9A",
"T  c #FFFF9B",
"R  c #FFFF9C",
"E  c #FFFF9D",
"W  c #FFFF9E",
"Q  c #FFFFA0",
"!  c #FFFFA1",
"~  c #FFFFA2",
"^  c #FFFFA4",
"/  c #FFFFA9",
"(  c #FFFFAB",
")  c #FFFFAF",
"_  c #FFFFB5",
"`  c #FFFFB9",
"'  c #FFFFBA",
"]  c #FFFFBE",
"[  c #FFFFC1",
"{  c #FFFFC2",
"}  c #FFFFC9",
"|  c #FFFFCE",
" . c #FFFFCF",
".. c #FFFFD2",
"X. c #FFFFD3",
"o. c #FFFFD7",
"O. c #FFF7DB",
"+. c #FFFFD8",
"@. c #FFFFD9",
"#. c #FFFFDE",
"$. c #FFFFE8",
"%. c #FFFFED",
"&. c #FFFFF4",
"*. c #FFFFF6",
"=. c #FFFFF8",
"-. c #FFFFFA",
";. c white",
/* pixels */
"                                    ",
"                h _  .              ",
"              g n ..;.O.            ",
"            p z B o.;.;.            ",
"            n n B  .;.;.-.          ",
"      D F F C B B [ ;.;.;.*.$. .    ",
"  d C F F J Y J C ) $.*.-.*.%.#.]   ",
"  w n C J Y ^ ! Y E } @.@.@...[ !   ",
"  5 1 z B F E ! Y Y ( ` ` _ ( J V   ",
"  r @ o 1 z C J Y Y Y ! ! Y C n     ",
"    s o - z B J E Y J Y J F n f     ",
"      . > n F E E J C Y Y F n       ",
"      i w C J Y Y B z C Y C n       ",
"      y w C J J C w 3 w B B n       ",
"      t w B B n w - $ % 1 w j       ",
"      e - w 6 1 6 c 4 # o o u       ",
"        ; & : p                     ",
"                                    "
};
