/* XPM */
static char *_2adfc7ac8754276a6e95d975cf5d740vgq60SWmhB6ymLac[] = {
/* columns rows colors chars-per-pixel */
"43 43 128 2 ",
"   c #871241",
".  c #8B1544",
"X  c #8C1A46",
"o  c #8D1949",
"O  c #911E4D",
"+  c #8E214A",
"@  c #90254E",
"#  c #8F2051",
"$  c #942251",
"%  c #992755",
"&  c #942954",
"*  c #992856",
"=  c #932858",
"-  c #9C2C5A",
";  c #9E315F",
":  c #9E3361",
">  c #A13361",
",  c #A13965",
"<  c #A53E6B",
"1  c #A6456F",
"2  c #A9416E",
"3  c #A94570",
"4  c #AD4A76",
"5  c #B24D7A",
"6  c #B3517C",
"7  c #4D9262",
"8  c #171587",
"9  c #1C1A89",
"0  c #1E2790",
"q  c #23248F",
"w  c #232590",
"e  c #252E93",
"r  c #373496",
"t  c #393397",
"y  c #2067AA",
"u  c #2C65AA",
"i  c #3F62AD",
"p  c #46459E",
"a  c #6A62AF",
"s  c #6863B0",
"d  c #BC5E89",
"f  c #976689",
"g  c #9A6689",
"h  c #BD648D",
"j  c #BC6390",
"k  c #B07A9F",
"l  c #8266B2",
"z  c #827ABB",
"x  c #9E72B7",
"c  c #9F75B9",
"v  c #B67CA2",
"b  c #A076BA",
"n  c #A67FBE",
"m  c #C56F98",
"M  c #C6719A",
"N  c #C9729D",
"B  c #FD638D",
"V  c #FD6690",
"C  c #FF5FA2",
"Z  c #CE77A3",
"A  c #CD78A4",
"S  c #D27CA6",
"D  c #FF64A6",
"F  c #FF66A8",
"G  c #FF6CAB",
"H  c #FF72AF",
"J  c #FF75B1",
"K  c #FF7AB4",
"L  c #FF7FB8",
"P  c #3181B5",
"I  c #7787BF",
"U  c #C186AC",
"Y  c #C789AF",
"T  c #D280A9",
"R  c #DD8DB6",
"E  c #DC8DB9",
"W  c #D495BD",
"Q  c #DF92BA",
"!  c #FE86AE",
"~  c #FE8BB4",
"^  c #FF83BB",
"/  c #FF8BBD",
"(  c #E193BD",
")  c #FE94BE",
"_  c #8D8AC4",
"`  c #9291C6",
"'  c #9D90C7",
"]  c #9A9CCC",
"[  c #AA84C1",
"{  c #BA8AC4",
"}  c #C18AC5",
"|  c #C995C6",
" . c #C993CB",
".. c #CC9BCD",
"X. c #DF9ECF",
"o. c #FF8DC2",
"O. c #E79AC4",
"+. c #E99CC6",
"@. c #E09FCF",
"#. c #FF93C5",
"$. c #F09CC6",
"%. c #FD96C8",
"&. c #F39AC8",
"*. c #FF9BCA",
"=. c #DCA4D2",
"-. c #EDA0C7",
";. c #EDA1C9",
":. c #F2A3CD",
">. c #FFA2CE",
",. c #E8A7D6",
"<. c #E8A8D0",
"1. c #F5A7D0",
"2. c #FFA5D1",
"3. c #F5ADD6",
"4. c #FFADD6",
"5. c #F2ABD9",
"6. c #FFAFD8",
"7. c #FFB0D7",
"8. c #FAB1D9",
"9. c #FFB1DA",
"0. c #FFB4DA",
"q. c #FFB3DC",
"w. c #F8B5DD",
"e. c #FFB5DD",
"r. c #FAB9DC",
"t. c #E9EBF5",
"y. c #E9ECF5",
"u. c white",
/* pixels */
"7 7 7 7 7 7 7 7 7 7 7 7 7 7 7 7 7 7 7 7 7 7 7 7 7 7 7 7 7 7 7 7 7 7 7 7 7 7 7 7 7 7 7 ",
"7 7 7 7 7 7 7 7 7 7 7 7 7 7 7 7 7 7 7 7 7 7 7 7 7 7 7 7 7 7 7 7 7 7 7 7 7 7 7 7 7 7 7 ",
"7 7 7 7 7 7 7 7 7 7 7 7 7 7 7 7 7 7 7 7 7 7 7 7 7 7 7 7 7 7 7 7 7 7 7 7 7 7 7 7 7 7 7 ",
"7 7 7 7 7 7 7 7 7 7 7 7 7 7 7 7 7 7 7 7 7 7 7 7 7 7 7 7 7 7 7 7 7 7 7 7 7 7 7 7 7 7 7 ",
"7 7 7 7 7 7 7 7 7 7 7 7 7 7 7 7 7 7 7 7 7 7 7 7 7 7 7 7 7 7 7 7 7 7 7 7 7 7 7 7 7 7 7 ",
"7 7 7 7 7 7 7 7 7 7 7 7 7 7 7 7 7 7 7 7 7 7 7 7 7 7 7 7 7 7 7 7 7 7 7 7 7 7 7 7 7 7 7 ",
"7 7 7 7 7 7 7 7 7 7 7 7 7 7 7 7 7 7 7 7 7 7 7 7 7 7 7 7 7 7 7 7 7 7 7 7 7 7 7 7 7 7 7 ",
"7 7 7 7 7 7 7 7 7 7 7 7 7 7 7 7 7 7 7 7 7 7 7 7 7 7 7 7 7 7 7 7 7 7 7 7 7 7 7 7 7 7 7 ",
"7 7 7 7 7 7 7 7 7 7 7 7 7 7 7 7 7 7 7 7 7 7 7 7 7 7 7 7 7 7 7 7 7 7 7 7 7 7 7 7 7 7 7 ",
"7 7 7 7 7 7 7 7 7 7 7 7 7 7 7 7 X o $ - > > - $ o X 7 7 7 7 7 7 7 7 7 7 7 7 7 7 7 7 7 ",
"7 7 7 7 7 7 7 7 7 7 7 7 7 7 X @ 3 N ( $.:.:.$.( N 1 & o 7 7 7 7 7 7 7 7 7 7 7 7 7 7 7 ",
"7 7 7 7 7 7 7 7 7 7 7 7 o o 6 ( 3.2.*.*.*.*.*.*.2.3.( 6 o X 7 7 7 7 7 7 7 7 7 7 7 7 7 ",
"7 7 7 7 7 7 7 7 7 7 7 o = T 3.2.*.*.*.*.>.>.*.*.*.*.2.3.T & X 7 7 7 7 7 7 7 7 7 7 7 7 ",
"7 7 7 7 7 7 7 7 7 7 o : ( 6.>.>.>.2.2.2.2.2.2.2.2.>.>.>.6.( - X 7 7 7 7 7 7 7 7 7 7 7 ",
"7 7 7 7 7 7 7 7 7 o = ( 9.2.2.2.4.4.4.4.4.4.4.4.4.4.2.2.2.9.( & X 7 7 7 7 7 7 7 7 7 7 ",
"7 7 7 7 7 7 7 7 7 o S e.4.4.4.4.8.@.3.9.4.4.9.3.X.8.4.4.4.2.e.S o 7 7 7 7 7 7 7 7 7 7 ",
"7 7 7 7 7 7 7 7 X 6 r.7.4.4.4.9.n a l 3.4.4.3.l s n 9.4.4.4.9.w.5 . 7 7 7 7 7 7 7 7 7 ",
"7 7 7 7 7 7 7 7 @ ( e.7.4.4.9.=.z t._ { 9.9.{ _ y.z =.9.4.4.4.e.( $ 7 7 7 7 7 7 7 7 7 ",
"7 7 7 7 7 7 7 o 2 8.4.4.4.4.0.} z u.] c 0.0.c ] u.z } 0.7.4.4.9.8.2 o 7 7 7 7 7 7 7 7 ",
"7 7 7 7 7 7 7 . N e.4.4.4.4.0.{ r ` p x 0.0.x p ` t { 0.7.4.4.4.e.N X 7 7 7 7 7 7 7 7 ",
"7 7 7 7 7 7 7 o Q e.4.4.4.4.0.{ 9 9 8 b 0.0.b 8 9 9 { 0.4.4.4.4.0.Q + 7 7 7 7 7 7 7 7 ",
"7 7 7 7 7 7 7 - ;.9.4.4.4.4.0. .e w 0 [ 0.0.[ 0 q e | 0.4.4.7.4.9.-.* 7 7 7 7 7 7 7 7 ",
"7 7 7 7 7 7 7 > :.9.4.9.9.9.9.,.i y u ..9.9...u y i <.0.9.9.9.4.9.:.; 7 7 7 7 7 7 7 7 ",
"7 7 7 7 7 7 7 > 1.9.9.>.~ ! ) 6.' P I 3.4.4.3.I P ' 9.) ! ~ >.9.9.:.; 7 7 7 7 7 7 7 7 ",
"7 7 7 7 7 7 7 - :.6.6.~ B B V *.8.=.5.q.9.9.q.5.=.8.*.V B B ~ 6.9.;.- 7 7 7 7 7 7 7 7 ",
"7 7 7 7 7 7 7 $ ( 4.2.>./ ~ ) 4.4.6.8.v W W k 8.7.4.4.) ~ / >.4.6.( $ 7 7 7 7 7 7 7 7 ",
"7 7 7 7 7 7 7   A 4.>.2.2.4.4.4.4.4.6.Y g f U 6.4.4.4.4.4.2.2.>.4.Z o 7 7 7 7 7 7 7 7 ",
"7 7 7 7 7 7 7   6 4.*.*.*.>.>.2.2.2.2.4.3.3.4.2.2.2.2.>.>.*.*.%.4.5 . 7 7 7 7 7 7 7 7 ",
"7 7 7 7 7 7 7 7 * +.%.o.#.%.*.*.*.>.>.>.2.2.>.>.>.*.*.*.%.%.#.%.O.% 7 7 7 7 7 7 7 7 7 ",
"7 7 7 7 7 7 7 7 . d 2.^ / o.o.#.%.*.*.*.*.*.*.*.*.%.#.o.o./ ^ 2.d . 7 7 7 7 7 7 7 7 7 ",
"7 7 7 7 7 7 7 7 7 $ Q #.J L ^ ^ / o.o.#.#.#.#.o.o./ ^ ^ L J #.R O 7 7 7 7 7 7 7 7 7 7 ",
"7 7 7 7 7 7 7 7 7 o > -.^ G J K L ^ ^ ^ ^ ^ ^ ^ ^ L K J G ^ -.: o 7 7 7 7 7 7 7 7 7 7 ",
"7 7 7 7 7 7 7 7 7 7 . 3 ;.^ F G H J J J J J J J J H G F ^ ;.< . 7 7 7 7 7 7 7 7 7 7 7 ",
"7 7 7 7 7 7 7 7 7 7 7 . < ( #.G D F G G G G G G F D G #.( , . 7 7 7 7 7 7 7 7 7 7 7 7 ",
"7 7 7 7 7 7 7 7 7 7 7 7 . & M :.o.J F C C C D F J o.;.m % O 7 7 7 7 7 7 7 7 7 7 7 7 7 ",
"7 7 7 7 7 7 7 7 7 7 7 7 7 7 X : j E &.%.%.%.&.+.E h : X 7 7 7 7 7 7 7 7 7 7 7 7 7 7 7 ",
"7 7 7 7 7 7 7 7 7 7 7 7 7 7 7 7   # : 2 4 4 1 ; O   7 7 7 7 7 7 7 7 7 7 7 7 7 7 7 7 7 ",
"7 7 7 7 7 7 7 7 7 7 7 7 7 7 7 7 7 7 7 7 7 7 7 7 7 7 7 7 7 7 7 7 7 7 7 7 7 7 7 7 7 7 7 ",
"7 7 7 7 7 7 7 7 7 7 7 7 7 7 7 7 7 7 7 7 7 7 7 7 7 7 7 7 7 7 7 7 7 7 7 7 7 7 7 7 7 7 7 ",
"7 7 7 7 7 7 7 7 7 7 7 7 7 7 7 7 7 7 7 7 7 7 7 7 7 7 7 7 7 7 7 7 7 7 7 7 7 7 7 7 7 7 7 ",
"7 7 7 7 7 7 7 7 7 7 7 7 7 7 7 7 7 7 7 7 7 7 7 7 7 7 7 7 7 7 7 7 7 7 7 7 7 7 7 7 7 7 7 ",
"7 7 7 7 7 7 7 7 7 7 7 7 7 7 7 7 7 7 7 7 7 7 7 7 7 7 7 7 7 7 7 7 7 7 7 7 7 7 7 7 7 7 7 ",
"7 7 7 7 7 7 7 7 7 7 7 7 7 7 7 7 7 7 7 7 7 7 7 7 7 7 7 7 7 7 7 7 7 7 7 7 7 7 7 7 7 7 7 "
};
