/* XPM */
static char *_5d0cce047554f55af44fdaeb1d50acccfPtqlNysXgHbNux[] = {
/* columns rows colors chars-per-pixel */
"43 43 112 2 ",
"   c #4D9262",
".  c #E4AF02",
"X  c #E5B402",
"o  c #ECB402",
"O  c #EDBC03",
"+  c #ECB30E",
"@  c #ECBB09",
"#  c #F2B601",
"$  c #F3BB02",
"%  c #EAB213",
"&  c #EFBC10",
"*  c #E7BB1F",
"=  c #EFBB1F",
"-  c #EFBD26",
";  c #ECC204",
":  c #EFCB02",
">  c #EEC50F",
",  c #ECC90B",
"<  c #F4C303",
"1  c #F9C204",
"2  c #F4CB05",
"3  c #FACC05",
"4  c #FBC708",
"5  c #F4CA09",
"6  c #FCCC0B",
"7  c #F7D604",
"8  c #F9D305",
"9  c #FADA05",
"0  c #F3D30D",
"q  c #FCD40B",
"w  c #FCDB0C",
"e  c #E9C512",
"r  c #EDCD11",
"t  c #EEC71B",
"y  c #F2CA12",
"u  c #F1D011",
"i  c #FFD512",
"p  c #FEDC14",
"a  c #F4D41B",
"s  c #FEDE1A",
"d  c #FDE404",
"f  c #FEEA06",
"g  c #FDE20D",
"h  c #FEEC0C",
"j  c #FEF10E",
"k  c #FEE413",
"l  c #FEEC13",
"z  c #FEE41A",
"x  c #FEEC1B",
"c  c #FEF512",
"v  c #FFF31D",
"b  c #FDF81E",
"n  c #FEE224",
"m  c #FFEC21",
"M  c #FEED2B",
"N  c #FFF323",
"B  c #FEF825",
"V  c #FFF629",
"C  c #FEF82B",
"Z  c #FCE534",
"A  c #FEEB32",
"S  c #FEF331",
"D  c #FEF830",
"F  c #FEF13D",
"G  c #FFEA44",
"H  c #FEEE49",
"J  c #FEF445",
"K  c #FEFA41",
"L  c #FEF34D",
"P  c #FEFA49",
"I  c #FCEE5F",
"U  c #FEF557",
"Y  c #FFF35F",
"T  c #FEFA5E",
"R  c #FEFC64",
"E  c #FEF569",
"W  c #FCEE70",
"Q  c #FEF971",
"!  c #FEFC7E",
"~  c #FCF684",
"^  c #FEFC84",
"/  c #FEFC88",
"(  c #FAF190",
")  c #FEFC93",
"_  c #FFF79B",
"`  c #FEFD9C",
"'  c #FCF7A1",
"]  c #FEFDA6",
"[  c #FCF3AC",
"{  c #FEFDA9",
"}  c #FEF8AD",
"|  c #FFF7B6",
" . c #FEFDB0",
".. c #FFFAB6",
"X. c #FEFDB4",
"o. c #FEFDB9",
"O. c #FEFDBC",
"+. c #FFFDC1",
"@. c #FEFAC6",
"#. c #FFFDC5",
"$. c #FCF7CC",
"%. c #FFFDCE",
"&. c #FBF4D3",
"*. c #FEFCD3",
"=. c #FEFAD6",
"-. c #FFFDD6",
";. c #FDF9D9",
":. c #FFFEDD",
">. c #FFFEE2",
",. c #FFFDEA",
"<. c #FFFFED",
"1. c #FFFFF3",
/* pixels */
"                                                                                      ",
"                                                                                      ",
"                                                                                      ",
"                                                                                      ",
"                                                                                      ",
"                                                                                      ",
"                                                                                      ",
"                                        u Z W (                                       ",
"                                      2 g L _ } [                                     ",
"                                    5 9 h L ..:.*.                                    ",
"                                  > 7 d h L #.1.<.;.                                  ",
"                                  2 d f h J #.1.1.,.&.                                ",
"                                0 9 d f h F O.,.<.<.=.                                ",
"                              k w d d f h F  .>.,.,.>.;.$.                            ",
"                        x x l l h f f f h S ` *.:.>.>.-.@.| } '                       ",
"                  z k l h c c c c j h h h N ^ O.%.-.-.-.%.#.O. .` ~                   ",
"                p k h c c c c c b v c j h v R ] o.+.#.#.+.O.X.{ ` ^ I                 ",
"              q w g l c c c c B C B b c j c P / ` ] { { { ] ` ) ^ E G                 ",
"              3 8 w g l c c v B C D C b c c C R ! ^ / / / / ! Q Y G n                 ",
"              2 < 3 w g h l c b V D D B v c b K T R R R R T U H Z s p                 ",
"              y O O < 3 q w k x v N V N v v v C K P P P J F A n p w                   ",
"                ; o o $ 1 4 q p k x x v v b b b N S S S M m z p w p                   ",
"                t O o o $ 1 3 q i p z x v N N v v v m m x z p w w                     ",
"                  y O o # 1 6 q i s z N N N v v v v x x z k w 9                       ",
"                    y o # 1 6 i s z m N N N x x v N v x x k q a                       ",
"                      @ $ 4 i p z x N V N x k k x N N x x k q                         ",
"                      & $ 6 i s z m N N v z w w k x N N x g 9                         ",
"                      - $ q p z x N N v x p 8 3 q k x x l g 9                         ",
"                      = 1 q p z x x x x k q 2 < 3 q w k g g 9                         ",
"                      + 1 q p z l l l k w 3 < < < 3 8 w g g 9                         ",
"                      % 1 6 p k k g w q 2 < O $ $ $ < 2 7 9 7                         ",
"                      % $ 6 q w w 8 2 < < O O o o o o O O < 2                         ",
"                        o 1 5 5 5 < < < 3 0 0 : O X X . . X e                         ",
"                        X o @ @ @ ; 5 a         a r , ; ; e                           ",
"                        * @ @ @ > a                                                   ",
"                                                                                      ",
"                                                                                      ",
"                                                                                      ",
"                                                                                      ",
"                                                                                      ",
"                                                                                      ",
"                                                                                      ",
"                                                                                      "
};
