/* XPM */
static char *_b290496061a48dc9b055a9936918b0bo0WYTyZViHxapssx[] = {
/* columns rows colors chars-per-pixel */
"64 64 245 2 ",
"   c #3E734E",
".  c #A72E01",
"X  c #A63600",
"o  c #AA3402",
"O  c #AD3B03",
"+  c #B43C05",
"@  c #BB3B17",
"#  c #8F4B08",
"$  c #AE4403",
"%  c #AC4707",
"&  c #B44402",
"*  c #B74807",
"=  c #BB4C03",
"-  c #BB5509",
";  c #B34619",
":  c #BB5615",
">  c #9C6916",
",  c #B86B05",
"<  c #BB7307",
"1  c #AB7619",
"2  c #BC4629",
"3  c #B7592C",
"4  c #BB7130",
"5  c #C24D06",
"6  c #C55A08",
"7  c #C24914",
"8  c #C55C15",
"9  c #C56607",
"0  c #C3630B",
"q  c #D46907",
"w  c #C57B0A",
"e  c #DB7509",
"r  c #CA6613",
"t  c #CB6918",
"y  c #D36C14",
"u  c #C97415",
"i  c #D77819",
"p  c #E87A09",
"a  c #E97B12",
"s  c #C54C2B",
"d  c #C75728",
"f  c #C65939",
"g  c #D36929",
"h  c #D67624",
"j  c #CF7130",
"k  c #E57730",
"l  c #BE7443",
"z  c #CD5757",
"x  c #D25950",
"c  c #D3654D",
"v  c #D76957",
"b  c #E57651",
"n  c #D05C6F",
"m  c #CB6F6F",
"M  c #D96968",
"N  c #DA6B76",
"B  c #DB747A",
"V  c #E5746F",
"C  c #7AB055",
"Z  c #4D9262",
"A  c #BD8622",
"S  c #BD8B23",
"D  c #BF9229",
"F  c #D4820D",
"G  c #CC8417",
"H  c #D88719",
"J  c #DA941C",
"K  c #EE890B",
"L  c #E58715",
"P  c #E79718",
"I  c #E49B1D",
"U  c #F49814",
"Y  c #ECA81B",
"T  c #F8A519",
"R  c #F2AC1E",
"E  c #F3B011",
"W  c #F9B917",
"Q  c #FBB31D",
"!  c #C38C26",
"~  c #C28E29",
"^  c #D98622",
"/  c #D88627",
"(  c #D68B22",
")  c #DB8C24",
"_  c #C4942C",
"`  c #DC9423",
"'  c #DB9828",
"]  c #D48633",
"[  c #C59534",
"{  c #D89835",
"}  c #E58A27",
"|  c #E29625",
" . c #E39C24",
".. c #E4942B",
"X. c #EA9928",
"o. c #ED9830",
"O. c #E89B35",
"+. c #DCA52B",
"@. c #DBA638",
"#. c #E4A325",
"$. c #EAA626",
"%. c #EBAB26",
"&. c #E5A429",
"*. c #EAA42B",
"=. c #E5AC29",
"-. c #EEAB2B",
";. c #F7A726",
":. c #F3AC24",
">. c #F1AC2D",
",. c #EEB12B",
"<. c #EBB828",
"1. c #F3B224",
"2. c #FAB424",
"3. c #F3BB26",
"4. c #FCBB24",
"5. c #F3B42B",
"6. c #F9B52C",
"7. c #F6BA2B",
"8. c #FBBC2B",
"9. c #ECA635",
"0. c #F3A636",
"q. c #F3AB33",
"w. c #E9B433",
"e. c #F6B535",
"r. c #FCBC32",
"t. c #FCC61D",
"y. c #FDC325",
"u. c #FECB24",
"i. c #F6C228",
"p. c #FDC32B",
"a. c #FECC2B",
"s. c #FDD325",
"d. c #FDDB27",
"f. c #FED42C",
"g. c #FEDB2C",
"h. c #E8C533",
"j. c #FDC432",
"k. c #FECC32",
"l. c #FAC639",
"z. c #FED433",
"x. c #FEDB32",
"c. c #FDD53A",
"v. c #FEE433",
"b. c #FFEB36",
"n. c #FDE33A",
"m. c #FEEC3D",
"M. c #B68C46",
"N. c #D28D4C",
"B. c #E6904D",
"V. c #DAA845",
"C. c #DCA64B",
"Z. c #DFBB4F",
"A. c #F0AB4B",
"S. c #ECB947",
"D. c #F1BC46",
"F. c #E7BB5A",
"G. c #D88664",
"H. c #DA8F6D",
"J. c #E89071",
"K. c #D9A164",
"L. c #EAB579",
"P. c #D7C95C",
"I. c #EAC945",
"U. c #FBC947",
"Y. c #FCD648",
"T. c #EAC85A",
"R. c #F8CC59",
"E. c #EFD550",
"W. c #F9D758",
"Q. c #FCE849",
"!. c #FFF246",
"~. c #FCE958",
"^. c #FFF858",
"/. c #EACF6F",
"(. c #ECDC68",
"). c #F7DF69",
"_. c #FBDA68",
"`. c #FBDC7C",
"'. c #FBEA67",
"]. c #F5E36C",
"[. c #FFF867",
"{. c #EFE076",
"}. c #F5E673",
"|. c #F5E871",
" X c #F5E976",
".X c #F8E979",
"XX c #FEF979",
"oX c #D35C88",
"OX c #D96788",
"+X c #C97C88",
"@X c #D97889",
"#X c #D66693",
"$X c #DB7398",
"%X c #E3698B",
"&X c #E57789",
"*X c #E16A96",
"=X c #E77797",
"-X c #DC79A5",
";X c #EA75AA",
":X c #E678A8",
">X c #D78A86",
",X c #D89090",
"<X c #E78886",
"1X c #EB8699",
"2X c #F48B98",
"3X c #EE9491",
"4X c #DDAC8F",
"5X c #DB88A5",
"6X c #DC90B1",
"7X c #E886A7",
"8X c #EE8BA8",
"9X c #F795A6",
"0X c #EC87B4",
"qX c #F68AB7",
"wX c #F28CBC",
"eX c #E996B6",
"rX c #F596B7",
"tX c #F2ADB6",
"yX c #EDD888",
"uX c #FADD84",
"iX c #F2D08D",
"pX c #EFE38A",
"aX c #FAE786",
"sX c #FBF488",
"dX c #FEFC8C",
"fX c #F6EB96",
"gX c #FDF998",
"hX c #EFD4AE",
"jX c #FFFCA4",
"kX c #FDFAAD",
"lX c #F7EFB0",
"zX c #F3E5B8",
"xX c #F294C7",
"cX c #F49AC7",
"vX c #F9A4C6",
"bX c #F8A9D5",
"nX c #FBB2D5",
"mX c #F6D3D0",
"MX c #F3E7C7",
"NX c #FCFBC7",
"BX c #F9E9D8",
"VX c #FEFDD5",
"CX c #F8E7E4",
"ZX c #FEFCEA",
"AX c #FEFFF3",
/* pixels */
"Z Z Z Z Z Z Z Z Z Z Z Z Z Z Z Z Z Z Z Z Z Z Z Z Z Z Z Z Z Z Z Z Z Z Z Z Z Z Z Z Z Z Z Z Z Z Z Z Z Z Z Z Z Z Z Z Z Z Z Z Z Z Z Z ",
"Z Z Z Z Z Z Z Z Z Z Z Z Z Z Z Z Z Z Z Z Z Z Z Z Z Z Z Z Z Z Z Z Z Z Z Z Z Z Z Z Z Z Z Z Z Z Z Z Z Z Z Z Z Z Z Z Z Z Z Z Z Z Z Z ",
"Z Z Z Z Z Z Z Z Z Z Z Z Z Z Z Z Z Z Z Z Z Z Z Z Z Z Z Z Z Z Z Z Z Z Z Z Z Z Z Z Z Z Z Z Z Z     Z Z Z Z Z Z Z Z Z Z Z Z Z Z Z Z ",
"Z Z Z Z Z Z Z Z Z Z Z Z Z Z Z Z Z Z Z Z Z Z Z Z Z Z Z Z Z Z Z Z Z Z Z Z Z Z Z Z Z Z Z Z Z Z     Z Z Z Z Z Z Z Z Z Z Z Z Z Z Z Z ",
"Z Z Z Z Z Z Z Z Z Z Z Z Z Z Z Z Z Z Z Z Z Z Z Z Z Z Z Z Z Z Z Z Z Z Z Z Z Z Z Z Z Z Z Z     Z Z     Z Z Z Z Z Z Z Z Z Z Z Z Z Z ",
"Z Z Z Z Z Z Z Z Z Z Z Z Z Z Z Z Z Z Z Z Z Z Z Z Z Z Z Z Z Z Z Z Z Z Z Z Z Z Z Z Z Z Z Z     Z Z     Z Z Z Z Z Z Z Z Z Z Z Z Z Z ",
"Z Z Z Z Z Z Z Z Z Z Z Z Z Z Z Z Z Z Z Z Z Z Z Z Z Z Z Z Z Z Z Z Z Z Z Z Z Z Z Z Z Z Z Z Z Z     Z Z Z Z Z Z Z Z Z Z Z Z Z Z Z Z ",
"Z Z Z Z Z Z Z Z Z Z Z Z Z Z Z Z Z Z Z Z Z Z Z Z Z Z Z Z Z Z Z Z Z Z Z Z Z Z Z Z Z Z Z Z Z Z     Z Z Z Z Z Z Z Z Z Z Z Z Z Z Z Z ",
"Z Z Z Z Z Z Z Z Z Z Z Z Z Z Z Z Z Z Z Z Z Z Z Z Z Z Z Z Z Z Z Z Z Z Z Z Z Z Z Z Z Z Z Z Z Z Z Z Z Z Z Z Z Z Z Z Z Z Z Z Z Z Z Z ",
"Z Z Z Z Z Z Z Z Z Z Z Z Z Z Z Z Z Z Z Z Z Z Z Z Z Z Z Z Z Z Z Z Z Z Z Z Z Z Z Z Z Z Z Z Z Z Z Z Z Z Z Z Z Z Z Z Z Z Z Z Z Z Z Z ",
"Z Z Z Z Z Z Z Z Z Z Z Z Z Z Z Z Z Z Z Z Z Z Z Z Z Z Z Z Z Z Z Z Z Z Z Z Z Z Z Z Z Z Z Z Z Z Z Z Z Z Z Z Z Z Z Z Z Z Z Z Z Z Z Z ",
"Z Z Z Z Z Z Z Z Z Z Z Z Z Z Z Z Z Z Z Z Z Z Z  X X X X X X X X X X X X X X.X.X.XZ Z Z Z Z Z Z Z Z Z Z Z Z Z Z Z Z Z Z Z Z Z Z Z ",
"Z Z Z Z Z Z Z Z Z Z Z Z Z Z Z Z Z Z Z Z  X X X X}.}.].].].].).).).].).).).).}.}..X.XaXfXZ Z Z Z Z Z Z Z Z Z Z Z Z Z Z Z Z Z Z Z ",
"Z Z Z Z Z Z Z Z Z Z Z Z Z Z Z Z Z }. X X}.]._.W.Y.Y.U.U.U.U.U.U.U.U.l.l.l.l.U.R._..XsXgXjXjXZ Z Z Z Z Z Z Z Z Z Z Z Z Z Z Z Z Z ",
"Z Z Z Z Z Z Z Z Z Z Z Z Z Z Z (.}. X].W.Y.c.k.a.a.a.a.p.p.p.p.8.8.8.4.4.4.4.8.r.U.R.).aXgXjXjXgXZ Z Z Z Z Z Z Z Z Z Z Z Z Z Z Z ",
"Z Z Z Z Z Z Z Z Z Z Z Z Z Z /.}.].W.Y.k.a.a.a.a.a.a.a.a.u.y.y.4.4.4.4.4.4.4.4.8.p.j.l.U._.aXjXjXjXfXZ Z Z Z Z Z Z Z Z Z Z Z Z Z ",
"Z Z Z Z Z Z Z Z Z Z C C Z (.].~.Y.k.a.a.a.a.a.a.u.y.4.1.Y I P H H H P I Y R :.2.4.y.p.p.j.U._.sXjXgXsXZ Z Z Z Z Z Z Z Z Z Z Z Z ",
"Z Z Z Z Z Z Z Z Z Z C C ].'.~.Y.a.a.a.a.a.u.4.1.I i 0 - * & $ O O O $ & * - - u P R y.p.p.p.j.Y..XdXgXsXZ Z Z Z Z Z Z Z Z Z Z Z ",
"Z Z Z Z Z Z Z Z Z Z C |.'.Y.c.a.a.a.a.a.1.P i - O o o o O O O O O O o o o . . o O * H 2.p.p.p.p.c.'.sXdXfXZ Z Z Z Z Z Z Z Z Z Z ",
"Z Z Z Z Z Z Z Z Z Z ].'.Y.z.a.a.a.a.1.H - O o . o * 8 8 r r y i y y y r r 8 - o . . O 6 H >.j.a.a.Y.~.XXdXgXZ Z Z Z Z Z Z Z Z Z ",
"Z Z Z Z Z Z Z Z Z '.[.Q.z.f.f.a.j.J - O o o + : g / ..X.&.&.$.$.$.$.$.&.$.#.| h : * + + & 8 *.j.k.k.c.Q.[.dXaXZ Z Z Z Z Z Z Z Z ",
"Z Z Z Z Z Z Z Z ].'.Q.x.f.f.a.j.H & X & 8 h / ..&.&.%.,.%.$.&.I J #.=.=.=.=.&.O.o.} y 6 = & 0 *.j.a.f.f.Q.[.XX.XZ Z Z Z Z Z Z Z ",
"Z Z Z Z Z Z Z (.'.Q.n.x.f.f.r.H $ X - } O.9.=.%.,.>.*.| J $.>.I #.,.#.| X.9.>.,.%.-.*.X.i = & 6 ..j.f.g.x.!.[.sXyXZ Z Z Z Z Z Z ",
"Z Z Z Z Z Z Z }.~.n.x.x.f.j.G $ o : ..q.5.7.e.>...i - & 0 q.e.I $.5.X.q 5 8 ^ 9.e.7.5.,.*.H = & 6 X.k.z.g.v.^.XXsXZ Z Z Z Z Z Z ",
"Z Z Z Z Z Z (.~.n.g.g.x.k.J $ X - ..q.7.r.*.i 6 * + @ ; t q.r.Y %.7.$.y 7 ; * * r } q.r.5.-.^ - & 5 X.c.x.x.m.^.XXaXZ Z Z Z Z Z ",
"Z Z Z Z Z P.~.Q.g.d.g.z.&.= o : ..q.7.8.P - * s c v x s t 6.p.Y :.p.:.i d c v x s * r *.r.5.-.H - & 6 e.z.g.v.!.[.XXyXZ Z Z Z Z ",
"Z Z Z Z Z (.Q.x.g.d.g.p.0 o * O.q.7.r.P - f N =X=XN V c y 2.a.Y :.p.2.} b V B =X=XM s 8 *.r.7.:.H = & i l.x.g.n.^.[..XZ Z Z Z Z ",
"Z Z Z Z T.~.x.g.d.d.z.H & O h 0.r.r.P - f M =X=XOXB <Xb i 8.a.Y 1.a.4.X.J.<XN OX=X%XM d 8 o.r.2.*.r & 5 0.c.x.v.m.^.[.(.Z Z Z Z ",
"Z Z Z Z ).Q.s.d.d.g.7.6 O 8 O.e.r.X.8 v 2X=X*X%X&X2X9XJ./ p.a.Y 3.k.y.0.J.9X1XOXOX%X1X<Xf r q.r.6.} = + y l.x.x.v.m.^.'.Z Z Z Z ",
"Z Z Z Z _.z.s.d.g.k.H + * ..e.p.6.y v 9XrXrX=X=XrXrXrXJ./ 7.u.Y 1.a.y.0.3XrXrX8X=X8XrXrX1Xf i r.7.>.u $ = ..c.x.g.v.m.[.Z Z Z Z ",
"C C Z /.W.a.d.d.g.5.6 + t 0.7.p.P g =XqXqX0XrXrX7X0XwX@Xh 1.p.I.U.p.Q o.2XwX0X0XvXrX0XxXwXN d X.r.5.X.- & r l.x.g.d.v.~.{.Z Z Z ",
"C C Z T.U.u.g.g.f.X.5 5 o.5.i.2.i c =X;X;X0XnXnX6X-X:XN i :.Y.gXlXR.2.X.&X:X-XcXnXvX:X:X;X%Xf i e.7.5.H = 6 >.x.d.d.g.~.].Z Z Z ",
"Z Z C R.j.t.g.d.f.L 5 8 0.3.8.U g B %X*X:XbXnXbXbX-X#Xn t <.'.fXNXzXS.} M $XwXbXnXnXcX-X*X%XV 8 X.r.5. .= 5 X.z.g.d.d.n.'.Z Z Z ",
"Z Z C Y.W u.g.g.p.e 5 h q.7.8.L b 1X:X=XcXbXbXcXcXwX$Xn u W.jXyXlXZXpX{ v 7XxXcXcXcXcXqX=X8X2Xf i r.3.&.- = H k.g.d.s.g.~.Z Z Z ",
"C C F.U.W f.g.g.4.e 6 } >.8.2.a b &XrXrX0X0XxXxX0X-XeX>XF.gXNXyXpXZXVX4X3X7X-X0XwXwX0XeXvX7X&Xc i r.7.-.u = q j.g.g.s.u.Y.Z Z Z ",
"C C F.7.W f.g.f.R e 0 o.6.8.Q a x =XvXnXcX;X;X;X*X7XtXiXaXkXNX/.{.VXAXBXhXtX5X$X;X;X:XvXnXrXOXx h 6.8.>.H = 9 2.f.d.s.t.k.U.Z Z ",
"Z Z S.1.W g.g.f.T e y 0.6.p.2.k M 9XvXnXnXqX%X&X3XiXaXsXdXkXkXT.(.kXZXZXZXZXmXeX-X:XcXnXbXvX7Xz g ;.8.6.| - 6 P f.d.d.W p.D.Z Z ",
"Z Z S.:.W g.g.f.U e i >.7.p.2.k &XqXcXcXcXtXiXuXsXXXXXXXdXgXdXI.E.jXNXNXVXVXZXZXBXmXtXcXcXwX8XN g I 8.7.X.0 6 P f.g.g.W p.D.Z Z ",
"Z Z D.;.Q g.g.f.T p i -.7.y.6.B.B =X0XwX8XL.Y.~.^.^.^.[.XXXXXXh.E.dXgXgXdXdXdXjXgXXXL.7XqX:XOXB j $.p.3.&.9 9 I f.g.g.W p.D.Z Z ",
"Z Z D.;.Q g.g.z.T a H -.8.p.8.B.B OX*X;X*XJ.j.f.g.v.m.!.^.^.^.h.I.[.[.[.^.!.!.!.!.c.B.OX*X#XOX<X] :.p.3.#.9 q R f.g.g.E 8.D.Z Z ",
"Z Z A.T Q g.g.f.R L H :.7.u.a.A.H.@XOXoX:X9XA.i.t.t.s.g.v.m.!.<.h.!.m.b.b.v.v.d.f.A.3X$XoXOX1XJ.] 1.p.5. .9 q R z.g.g.E 2.e.Z Z ",
"Z Z 9.U T x.g.f.Q L H :.7.y.c.R.G.&X@X@X0XxX3XA.Q W t.u.s.f.x.<.3.g.g.g.g.s.s.u.e.3XwX7X$X=X&XG.0.4.i.5.| 9 q R z.g.z.E 2.e.Z Z ",
"Z Z 9.U T z.f.f.4.P H :.7.y.Y.uXH.+X5XeX5X6XeXJ.>.Q E W t.s.x.<.3.g.s.u.y.y.y.e.J.6X5X6XeX,XB G.U.a.i.5.| 9 e 1.z.x.z.T ;.e.Z Z ",
"Z Z 9.U U z.s.f.p.P H :.7.i.W.kXBXCXCXCXCXCXCXMXF.3.W W u.n.!.h.3.x.f.u.t.u.l.uXBXCXCXCXBXMXzXfX'.c.i.7.| 9 e 2.z.x.z.U ;.0.Z Z ",
"Z Z @.I K k.f.f.a.R L $.7.i.Y._.uXuXuX`.`.uX`.`.S.<.a.s.Q.^.^.h.1.g.v.g.f.f.i.R.`.uXaXaX`.`.)._.Y.j.4.5.J 9 F 4.z.x.i.U ;.9.Z Z ",
"Z Z { X.K 7.f.s.a.2.P I 5.i.a.k.p.a.u.u.u.p.p.8.Y 3.n.!.[.XXXXI.R s.v.v.v.x.y.Q y.p.p.u.u.a.k.k.p.p.8.5.G 9 L j.f.x.2.K T O.Z Z ",
"Z Z [ } p 2.s.s.s.4.P I 5.7.p.p.p.p.p.p.p.8.8.6.%.i.~.XXgXjXdXI.Y u.v.m.m.v.y.Q 2.4.8.p.p.p.p.p.p.p.8.-.w w P k.f.x.T K U C.Z Z ",
"Z Z M./ p T f.s.s.y.Y I -.7.p.2.U L a y y y r - u e.[.dXkXgXXX=.L 4.x.!.m.v.1.9 0 0 r r r y i H 2.p.5.&.< w %.k.f.f.K p P N.Z Z ",
"Z Z Z ] p L k.u.u.u.R P &.5.8.2.L 8 s s 2 2 f 3 j D.'.XX.XR.w.u 6 L Y j.x.v.,.3 3 3 2 2 2 2 7 e 6.7.>.` < F 1.k.f.p.p p H N.Z Z ",
"Z Z Z ] e e r.p.u.p.4.P  .-.5.8.6.k x z n &X1X<XG.S.Y.U.&.G u i t - 9 H Y 4.e.H.<X<XB z z z g X.6.7.-.H < F 5.a.a.1.e p ] Z Z Z ",
"Z Z Z j u q *.r.3.i.4.Y J #.=.<.c.A.v n &X7X7X5XH.N.) u , G X.| ..O.H 0 9 i B.<X5X5X1XOXn M B.&.,.%.#.w < J 7.i.i.P q e ] Z Z Z ",
"Z Z Z l t 6 L e.1.7.8.%.J  .&.=.l.R.G.@X@X$X:X:X@XM v j u ' #.J J *.*...k c N =X:X-X$X$X@Xm { +.=.&.` < < | 6.4.7.e q u 4 Z Z Z ",
"Z Z Z Z t 6 y 0.-.%.6.>.` `  .#.w.|.L.>XOXOX%X%Xn N @XN.' +.#.J J #.w.U.K.m n OXOXoXn @X>XK.V.+.+. .H , w &.6.2.$.9 9 u M.Z Z Z ",
"Z Z Z Z 3 6 6 ..&.#.-.q. .` | | +.pXzX4X6X5X@X@X+X,X>XK.S.+.' J J ' S.aX4X,X>X+X+X+X,X4X4X/.Z.+.' ` u , G &.:.:.L = 0 4 Z Z Z Z ",
"Z Z Z Z > : = i ..'  .q.*.) ` J ' /.zXMXMXMXMXzXzXhXiX/.T.@.' J H ' T.fXlXzXMXzXzXzXzXzXhXyXV.' ' ( < , G  . .X.r = : 4 Z Z Z Z ",
"Z Z Z Z Z : & 8 ..` ` 9.q.| ) J ( { C.C.C.C.V.V.V.V.V.@.{ ' ` ( H ` { V.C.C.C.C.C.C.C.C.C.C.{ ) ) G , < G '  ...- * : Z Z Z Z Z ",
"Z Z Z Z Z ; % % / ` ` X.q.O.) ( H ^ / ( ( ( ( ( ( ( ( ( ) ) ) ^ i ^ H H H ^ ^ / ^ ^ ^ ^ ^ ^ ) ) ^ w , < ( ' ..u $ * 3 Z Z Z Z Z ",
"Z Z Z Z Z Z # # 1 [ _ _ @.V.[ S A A S S S S S S S S ~ ! ~ ~ _ A 1 A A S S ! ! ! ! ! ! ! ! ! ! ~ S 1 > 1 D _ [ > # # Z Z Z Z Z Z ",
"Z Z Z Z Z Z Z Z Z Z Z Z Z Z Z Z Z Z Z Z Z Z Z Z Z Z Z Z Z Z C C Z Z Z Z Z Z Z Z Z Z Z Z Z Z Z Z Z Z Z Z Z Z Z Z Z Z Z Z Z Z Z Z ",
"Z Z Z Z Z Z Z Z Z Z Z Z Z Z Z Z Z Z Z Z Z Z Z Z Z Z Z Z Z Z C C Z Z Z Z Z Z Z Z Z Z Z Z Z Z Z Z Z Z Z Z Z Z Z Z Z Z Z Z Z Z Z Z ",
"Z Z Z Z Z Z Z Z Z Z Z Z Z Z Z Z Z Z Z Z Z Z Z Z Z Z Z Z C C Z Z C C Z Z Z Z Z Z Z Z Z Z Z Z Z Z Z Z Z Z Z Z Z Z Z Z Z Z Z Z Z Z ",
"Z Z Z Z Z Z Z Z Z Z Z Z Z Z Z Z Z Z Z Z Z Z Z Z Z Z Z Z C C Z Z C C Z Z Z Z Z Z Z Z Z Z Z Z Z Z Z Z Z Z Z Z Z Z Z Z Z Z Z Z Z Z ",
"Z Z Z Z Z Z Z Z Z Z Z Z Z Z Z Z Z Z Z Z Z Z Z Z Z Z Z Z Z Z Z Z Z Z Z Z Z Z Z Z Z Z Z Z Z Z Z Z Z Z Z Z Z Z Z Z Z Z Z Z Z Z Z Z ",
"Z Z Z Z Z Z Z Z Z Z Z Z Z Z Z Z Z Z Z Z Z Z Z Z Z Z Z Z Z Z Z Z Z Z Z Z Z Z Z Z Z Z Z Z Z Z Z Z Z Z Z Z Z Z Z Z Z Z Z Z Z Z Z Z "
};
