/* XPM */
static char *f6dae2c53a26473beec580dfd1b4924dpDx83cObGc7CkYMA[] = {
/* columns rows colors chars-per-pixel */
"64 64 86 1 ",
"  c #3E734E",
". c #7AB055",
"X c #4D9262",
"o c #FFD600",
"O c #FFD704",
"+ c #FFD900",
"@ c #FFDD01",
"# c #FFDF04",
"$ c #FFD80E",
"% c #FFD611",
"& c #FFD619",
"* c #FFE300",
"= c #FFE500",
"- c #FFE305",
"; c #FFE404",
": c #FFEB00",
"> c #FFED00",
", c #FFE804",
"< c #FFE508",
"1 c #FFF000",
"2 c #FFF403",
"3 c #FFF305",
"4 c #FFF705",
"5 c #FFF800",
"6 c #FFFC03",
"7 c #FFF805",
"8 c #FFFF07",
"9 c #FFF608",
"0 c #FFF10E",
"q c #FFF908",
"w c #FFFF0A",
"e c #FFFF0F",
"r c #FFE312",
"t c #FFEE17",
"y c #FFF511",
"u c #FFFB12",
"i c #FFFF12",
"p c #FFFF16",
"a c #FFF61B",
"s c #FFFF19",
"d c #FFFF1D",
"f c #FFDE27",
"g c #FFE227",
"h c #FFF121",
"j c #FFFF21",
"k c #FFFF26",
"l c #FFFF29",
"z c #FFFF2F",
"x c #FFE130",
"c c #FFFF32",
"v c #FFFF35",
"b c #FFFF38",
"n c #FFFF3E",
"m c #FFFF41",
"M c #FFFF44",
"N c #FFFF48",
"B c #FFFF53",
"V c #FFFF57",
"C c #FFFF58",
"Z c #FFFF5D",
"A c #FFFF63",
"S c #FFFF64",
"D c #FFFF6A",
"F c #FFFF6D",
"G c #FFFF79",
"H c #FFFF80",
"J c #FFFF85",
"K c #FFFF8B",
"L c #FFFF8C",
"P c #FFFF91",
"I c #FFFF94",
"U c #FFFF9F",
"Y c #FFFFB3",
"T c #FFFFB6",
"R c #FFFFBA",
"E c #FFFFBD",
"W c #FFFFC0",
"Q c #FFFFD2",
"! c #FFFFD9",
"~ c #FFFFDF",
"^ c #FFFFE1",
"/ c #FFFFE8",
"( c #FFFFED",
") c #FFFFF2",
"_ c #FFFFF8",
"` c #FFFFFD",
/* pixels */
"XXXXXXXXXXXXXXXXXXXXXXXXXXXXXXXXXXXXXXXXXXXXXXXXXXXXXXXXXXXXXXXX",
"XXXXXXXXXXXXXXXXXXXXXXXXXXXXXXXXXXXXXXXXXXXXXXXXXXXXXXXXXXXXXXXX",
"XXXXXXXXXXXXXXXXXXXXXXXXXXXXXXXXXXXXXXXXXXXXXX  XXXXXXXXXXXXXXXX",
"XXXXXXXXXXXXXXXXXXXXXXXXXXXXXXXXXXXXXXXXXXXXXX  XXXXXXXXXXXXXXXX",
"XXXXXXXXXXXXXXXXXXXXXXXXXXXXXXXXXXXXXXXXXXXX  XX  XXXXXXXXXXXXXX",
"XXXXXXXXXXXXXXXXXXXXXXXXXXXXXXXXXXXXXXXXXXXX  XX  XXXXXXXXXXXXXX",
"XXXXXXXXXXXXXXXXXXXXXXXXXXXXXXXXXXXXXXXXXXXXXX  XXXXXXXXXXXXXXXX",
"XXXXXXXXXXXXXXXXXXXXXXXXXXXXXXXXXXXXXXXXXXXXXX  XXXXXXXXXXXXXXXX",
"XXXXXXXXXXXXXXXXXXXXXXXXXXXXXXXXXXXXXXXXXXXXXXXXXXXXXXXXXXXXXXXX",
"XXXXXXXXXXXXXXXXXXXXXXXXXXXXXXXXXXXXXXXXXXXXXXXXXXXXXXXXXXXXXXXX",
"XXXXXXXXXXXXXXXXXXXXXXXXXXXXXXXXXXXXXXXXXXXXXXXXXXXXXXXXXXXXXXXX",
"XXXXXXXXXXXXXXXXXXXXXXXXXXXXXXXXXXXXXXXXXXXXXXXXXXXXXXXXXXXXXXXX",
"XXXXXXXXXXXXXXXXXXXXXXXXXXXXXXXXXXXXXXXXXXXXXXXXXXXXXXXXXXXXXXXX",
"XXXXXXXXXXXXXXXXXXXXXXXXXXXXXXXXXXXXXXXXXXXXXXXXXXXXXXXXXXXXXXXX",
"XXXXXXXXXXXXXXXXXXXXXXXXXXXXXXXXXX..XXXXXXXXXXXXXXXXXXXXXXXXXXXX",
"XXXXXXXXXXXXXXXXXXXXXXXXXXXXXXXXXX..XXXXXXXXXXXXXXXXXXXXXXXXXXXX",
"XXXXXXXXXX..XXXXXXXXXXXXXXXXXXXXXX....XXXXXXXXXXXXXXXXXXXXXXXXXX",
"XXXXXXXXXX..XXXXXXXXXXXXXXXXXXXXXX....XXXXXXXXXXXXXXXXXXXXXXXXXX",
"XXXXXXXXXX..XXXXXXXXXXXXXXXXXXXimUQ...XXXX..XXXXXXXXXXXXXXXXXXXX",
"XXXXXXXXXX..XXXXXXXXXXXXXXXXXX6eD~__..XXXX..XXXXXXXXXXXXXXXXXXXX",
"XXXXXXXXXX....XXXXXXXXXXXXXXX96eF```..  ....XXXXXXXXXXXXXXXXXXXX",
"XXXXXXXXXX....XXXXXXXXXXXXXX066wD````.  ....XXXXXXXXXXXXXXXXXXXX",
"XXXXXXXXXX....XXXXXXXXXXXXXX6668Z`````....  XXXXXXXXXXXXXXXXXXXX",
"XXXXXXXXXX....XXXXXXXXXXXXXw6668V`````....  XXXXXXXXXXXXXXXXXXXX",
"XXXXXXXXXXXX..XXXXXXXXXXXXs86668B```````  XXXXXXXXXXXXXXXXXXXXXX",
"XXXXXXXXXXXX..XXXXXXXXXjdiiw8668m~```````_/XXXXXXXXXXXXXXXXXXXXX",
"XXXXXXXXXXXXXXXXXXXXjpieiiiiew88zR`````````^EXXXXXXXXXXXXXXXXXXX",
"XXXXXXXXXXXXXXXXXXXsieeeiisjsiwwjP(```````)!TJXXXXXXXXXXXXXXXXXX",
"XXXXXXXXXXXXXXXXXXeweiiiipkvzjpepSW^()))(^QTIZXXXXXXXXXXXXXXXXXX",
"XXXXXXXXXXXXXXXXXX66weiiidznnvkppnKYREEWEYUJZzXXXXXXXXXXXXXXXXXX",
"..XXXXXXXXXXXXXXXX5168eeiskvnncdpkCHKLLKJGSNkpXXXXXXXXXXXXXXXXXX",
"..XXXXXXXXXXXXXXXXu**168eisjzczdddvVSSAZBmzs8XXXXXXXXXXXXXXXXXXX",
"XX..XXXXXXXXXXXXXXX:++*:2wipdjjjkkkcmMnbzji8pXXXXXXXXXXXXXXXXXXX",
"XX..XXXXXXXXXXXXXXXh=oo*>5wisdjkkkjjklljdi8eXXXXXXXXXXXXXXXXXXXX",
"..XXXXXXXXXXXXXXXXXXa=o@:7epdjlzlkjjjjjdpw6XXXXXXXXXXXXXXXXXXXXX",
"..XXXXXXXXXXXXXXXXXXXy@@>qidjlccljdjkkjdi8jXXXXXXXXXXXXXXXXXXXXX",
"XXXXXXXXXXXXXXXXXXXXXX<*3isjkzczjppdlzkdi8XXXXXXXXXXXXXXXXXXXXXX",
"XXXXXXXXXXXXXXXXXXXXXXr=qpdjlczksewijllde6XXXXXXXXXXXXXXXXXXXXXX",
"XXXXXXXXXXXXXXXXXXXXXXx:wsdjllkdi868ijjse6XXXXXXXXXXXXXXXXXXXXXX",
"XXXXXXXXXXXXXXXXXXXXXXf:esdjjjdpw5258eiiw6XXXXXXXXXXXXXXXXXXXXXX",
"XXXXXXXXXXXXXXXXXXXXXX$:essssppe5>:1268886XXXXXXXXXXXXXXXXXXXXXX",
"XXXXXXXXXXXXXXXXXXXXXX%:eppiee85>=*=:>5666XXXXXXXXXXXXXXXXXXXXXX",
"XXXXXXXXXXXXXXXXXX  XX&=9eew851>:*@@@@*:12XXXXXXXXXXXXXXXXXXXXXX",
"XXXXXXXXXXXXXXXXXX  XXX@:442>:15ee5:@+oo@tXXXXXXXXXXXXXXXXXXXXXX",
"XXXXXXXXXXXXXXXX  XX  XO#;;:>qdXXXXdi91>yXXXXXXXXXXXXXXXXXXXXXXX",
"XXXXXXXXXXXXXXXX  XX  Xg-;,0jXXXXXXXXXXXXXXXXXXXXXXXXXXXXXXXXXXX",
"XXXXXXXXXXXXXXXXXX  XXXXXXXXXXXXXXXXXXXXXXXXXXXXXXXXXXXXXXXXXXXX",
"XXXXXXXXXXXXXXXXXX  XXXXXXXXXXXXXXXXXXXXXXXXXXXXXXXXXXXXXXXXXXXX",
"XXXXXXXXXXXXXXXXXXXXXXXXXXXXXXXXXXXXXXXXXXXXXXXXXXXX..XXXXXXXXXX",
"XXXXXXXXXXXXXXXXXXXXXXXXXXXXXXXXXXXXXXXXXXXXXXXXXXXX..XXXXXXXXXX",
"XXXXXXXXXXXXXXXXXXXXXXXXXXXXXXXXXXXXXXXXXXXXXXXXXX....XXXXXXXXXX",
"XXXXXXXXXXXXXXXXXXXXXXXXXXXXXXXXXXXXXXXXXXXXXXXXXX....XXXXXXXXXX",
"XXXXXXXXXXXXXXXXXXXXXXXXXXXXXXXXXXXXXXXXXXXXXXXXXX....XXXXXXXXXX",
"XXXXXXXXXXXXXXXXXXXXXXXXXXXXXXXXXXXXXXXXXXXXXXXXXX....XXXXXXXXXX",
"XXXXXXXXXXXXXXXXXXXXXXXXXXXXXXXXXXXXXXXXXXXXXXXXXX..XXXXXXXXXXXX",
"XXXXXXXXXXXXXXXXXXXXXXXXXXXXXXXXXXXXXXXXXXXXXXXXXX..XXXXXXXXXXXX",
"XXXXXXXXXXXXXXXXXXXXXXXXXXXXXXXXXXXXXXXXXXXXXXXXXXXXXXXXXXXXXXXX",
"XXXXXXXXXXXXXXXXXXXXXXXXXXXXXXXXXXXXXXXXXXXXXXXXXXXXXXXXXXXXXXXX",
"XXXXXXXXXXXXXXXXXXXXXXXXXXXXXX..XXXXXXXXXXXXXXXXXXXXXXXXXXXXXXXX",
"XXXXXXXXXXXXXXXXXXXXXXXXXXXXXX..XXXXXXXXXXXXXXXXXXXXXXXXXXXXXXXX",
"XXXXXXXXXXXXXXXXXXXXXXXXXXXX..XX..XXXXXXXXXXXXXXXXXXXXXXXXXXXXXX",
"XXXXXXXXXXXXXXXXXXXXXXXXXXXX..XX..XXXXXXXXXXXXXXXXXXXXXXXXXXXXXX",
"XXXXXXXXXXXXXXXXXXXXXXXXXXXXXXXXXXXXXXXXXXXXXXXXXXXXXXXXXXXXXXXX",
"XXXXXXXXXXXXXXXXXXXXXXXXXXXXXXXXXXXXXXXXXXXXXXXXXXXXXXXXXXXXXXXX"
};
