/* XPM */
static char *fb9eb7fa07894c128ef91027a03096d4ANkwwmg2EaBjLVAE[] = {
/* columns rows colors chars-per-pixel */
"31 31 217 2 ",
"   c None",
".  c #CE7108",
"X  c #CF7208",
"o  c #CD7108",
"O  c #CC6F08",
"+  c #CA6E08",
"@  c #CE7008",
"#  c #CD7008",
"$  c #E38308",
"%  c #CA6D08",
"&  c #D17408",
"*  c #CE7108",
"=  c #CB6C08",
"-  c #C96908",
";  c #CE7108",
":  c #CE7108",
">  c #CE7108",
",  c #CE7008",
"<  c #DB8708",
"1  c #E29308",
"2  c #CF7208",
"3  c #CE7108",
"4  c #CD7108",
"5  c #CD7008",
"6  c #D07108",
"7  c #D77808",
"8  c #C86B08",
"9  c #CD7008",
"0  c #DB7D08",
"q  c #CE6F08",
"w  c #CC7008",
"e  c #CE7008",
"r  c #D37508",
"t  c #CD7008",
"y  c #CA6D08",
"u  c #DC7F08",
"i  c #CC6F08",
"p  c #C76C08",
"a  c #B35108",
"s  c #CD6D08",
"d  c #D07108",
"f  c #CE7108",
"g  c #CE7208",
"h  c #D07208",
"j  c #CE6F08",
"k  c #C66508",
"l  c #BF6508",
"z  c #CF7208",
"x  c #CA6E08",
"c  c #CF7008",
"v  c #D87B08",
"b  c #DB8A08",
"n  c #D87F08",
"m  c #D27208",
"M  c #CA6D08",
"N  c #CE7108",
"B  c #CF7208",
"V  c #CD7008",
"C  c #D87A08",
"Z  c #DE8108",
"A  c #CE7108",
"S  c #CE7108",
"D  c #CC6F08",
"F  c #CE6F08",
"G  c None",
"H  c #CD7108",
"J  c #B75E08",
"K  c #DA7808",
"L  c #E58608",
"P  c #C96D08",
"I  c #C36808",
"U  c #D27308",
"Y  c #CC6F08",
"T  c #CC6F08",
"R  c #D27608",
"E  c #D88208",
"W  c #CC6F08",
"Q  c #D07208",
"!  c #CC6E08",
"~  c #CC6E08",
"^  c #CD6F08",
"/  c #CD7008",
"(  c #CF7008",
")  c #D37408",
"_  c #CD7008",
"`  c #CC6F08",
"'  c #CF7108",
"]  c #D67A08",
"[  c #CC6E08",
"{  c #CE6F08",
"}  c #D67508",
"|  c #CF7208",
" . c #CD7008",
".. c #D47D08",
"X. c #CB6C08",
"o. c #CA6E08",
"O. c #DA7B08",
"+. c #CE6F08",
"@. c #C66908",
"#. c #E48708",
"$. c #CE7008",
"%. c #C66508",
"&. c #E49508",
"*. c #C86A08",
"=. c #E18608",
"-. c #D87908",
";. c #CC6E08",
":. c #CA6C08",
">. c #D47408",
",. c #E08908",
"<. c #CE7008",
"1. c #CD7108",
"2. c #D07208",
"3. c #D57708",
"4. c #CF7008",
"5. c #C96C08",
"6. c #CD7108",
"7. c #C76B08",
"8. c #CD6F08",
"9. c #D27308",
"0. c #D47508",
"q. c #CD7008",
"w. c #CE7108",
"e. c #CD7008",
"r. c #CD6E08",
"t. c #CD6F08",
"y. c #CD7008",
"u. c #CD7008",
"i. c #CE7108",
"p. c #EC9E08",
"a. c #FAE408",
"s. c #FEED08",
"d. c #F2B808",
"f. c #FCD408",
"g. c #FFFD08",
"h. c #FFEB08",
"j. c #E59208",
"k. c #EC9F08",
"l. c #FFF308",
"z. c #FFFC08",
"x. c #FFFB08",
"c. c #F8BF08",
"v. c #FDD208",
"b. c #E89008",
"n. c #DE9508",
"m. c #FFF108",
"M. c #FFFA08",
"N. c #ECB608",
"B. c #F2A908",
"V. c #F5D308",
"C. c #F8EA08",
"Z. c #FBF108",
"A. c #F5DC08",
"S. c #F5B508",
"D. c #E29208",
"F. c #E89808",
"G. c #FCCA08",
"H. c #FEEE08",
"J. c #FEF608",
"K. c #FDD608",
"L. c #EFA708",
"P. c #E9A808",
"I. c #FFEE08",
"U. c #FFF508",
"Y. c #F6C908",
"T. c #FCC808",
"R. c #FFFF08",
"E. c #FFFE08",
"W. c #FFE708",
"Q. c #EEAA08",
"!. c #FFF408",
"~. c #F7C808",
"^. c #EEB508",
"/. c #F7D308",
"(. c #D67E08",
"). c #FDDC08",
"_. c #FFEF08",
"`. c #E39708",
"'. c #E69808",
"]. c #FEE808",
"[. c #F0B308",
"{. c #F1AA08",
"}. c #FFF808",
"|. c #F09A08",
" X c #FBBA08",
".X c #F0B808",
"XX c #FBD708",
"oX c #F9DA08",
"OX c #FEF408",
"+X c #E48E08",
"@X c #FFE308",
"#X c #FFF208",
"$X c #FFF708",
"%X c #FFF608",
"&X c #F19E08",
"*X c #FFEC08",
"=X c #F9C408",
"-X c #E99F08",
";X c #E89E08",
":X c #F3B508",
">X c #FFE108",
",X c #FFF908",
"<X c #F0B008",
"1X c #FFC708",
"2X c #FFF008",
"3X c #FAC508",
"4X c #E79608",
"5X c #F7B708",
"6X c #FEE508",
"7X c #FFDB08",
"8X c #ED9608",
"9X c #E58808",
"0X c #EEA808",
"qX c #EB9708",
"wX c #E48B08",
"eX c #EB9508",
"rX c white",
/* pixels */
"                                                              ",
"                      . . . . . . . .                         ",
"                      . . * = - ; : . .                       ",
"                    . . > , < 1 2 3 4 .                       ",
"                    . 5 6 p.a.s.d.7 8 .                       ",
"                  . . 9 0 f.g.g.h.j.q X .                     ",
"                  . w e k.l.z.x.z.c.r t . .                   ",
"              . . . y u v.z.x.x.z.h.b.i . . . .               ",
"      . . o p a s d f n.m.z.x.x.x.M.N.g h j k l O . .         ",
"    . . z x c v b B.V.C.z.x.x.x.x.z.Z.A.S.D.n m M N . .       ",
"    . B V C F.G.H.M.z.z.x.x.x.x.x.x.z.g.M.J.K.L.Z A S .       ",
"    . D F P.I.z.x.x.x.x.x.x.x.x.x.x.x.x.x.x.g.U.Y.G H .       ",
"    . J K T.R.x.x.x.x.x.x.x.x.x.x.x.x.x.x.x.x.E.W.L P .       ",
"    . I U Q.!.z.x.x.x.x.x.x.x.x.x.x.x.x.x.x.x.M.~.C Y .       ",
"    . + T R ^.x.x.x.x.x.x.x.x.x.x.x.x.x.x.x.g./.E W Q .       ",
"    . . @ ! (.).z.x.x.x.x.x.x.x.x.x.x.x.x.z._.`.~ ^ . .       ",
"        . / ( '.].z.x.x.x.x.x.x.x.x.x.x.x.U.[.) _ .           ",
"        . # ` ' {.}.x.x.x.x.x.x.x.x.x.x.z.G.] [ # .           ",
"          . . { |.U.x.x.x.x.x.x.x.x.x.x.z. X} $ . .           ",
"          . |  ..XM.x.x.x.x.x.x.x.x.x.x.z.XX..X..             ",
"          . o.O.oXg.x.x.x.x.z.z.x.x.x.x.x.OX+X+..             ",
"          . @.#.@Xg.x.x.z.M.#X#X$Xg.x.x.x.%X&X$..             ",
"          . %.&.*Xg.z.z.*X=X-X;X:X>XM.z.z.,X<X$..             ",
"          . *.=.1XU.2X3X4X-.;.:.>.,.5X6X$X7X8X<..             ",
"          . 1.2.9X0XqX3.4.5.6.% 7.8.9.wX0XeX0.q..             ",
"          . . w.e.r.t.y.& # . . . X u.e.r.t.i.# .             ",
"            . . . . . . .         . . . . . . .               ",
"                                                              ",
"                                                              ",
"                                                              ",
"                                                              "
};
