/* XPM */
static char *_ef68619bd234b64f008f7ccf9e054eeLB2byb3p2iLKULoZ[] = {
/* columns rows colors chars-per-pixel */
"31 31 190 2 ",
"   c None",
".  c #4A6474",
"X  c #516B79",
"o  c #73797B",
"O  c #7C7872",
"+  c #A09B7B",
"@  c #B89C76",
"#  c #C1955D",
"$  c #FAD64D",
"%  c #F5DA58",
"&  c #FFE253",
"*  c #D8C467",
"=  c #EEDB66",
"-  c #F4E26A",
";  c #FFFC7A",
":  c #365FB2",
">  c #3865AE",
",  c #3462B1",
"<  c #3165BC",
"1  c #476389",
"2  c #546E88",
"3  c #556E85",
"4  c #4E718B",
"5  c #567382",
"6  c #5B7585",
"7  c #5D7C8C",
"8  c #58778C",
"9  c #40679E",
"0  c #557395",
"q  c #5A7D95",
"w  c #5D7698",
"e  c #6C7B84",
"r  c #667B8A",
"t  c #757E86",
"y  c #657D99",
"u  c #677D94",
"i  c #416CAE",
"p  c #5C7EA4",
"a  c #426FB2",
"s  c #4A77B7",
"d  c #6279A3",
"f  c #2D63C0",
"g  c #366BC5",
"h  c #3E75CF",
"j  c #4077CF",
"k  c #4579C6",
"l  c #437BD3",
"z  c #487FD0",
"x  c #5B8197",
"c  c #798089",
"v  c #658594",
"b  c #6B8493",
"n  c #62859B",
"m  c #6B869D",
"M  c #6B899C",
"N  c #6B8896",
"B  c #708794",
"V  c #798B96",
"C  c #748B9C",
"Z  c #798D9A",
"A  c #738799",
"S  c #7C919F",
"D  c #73919E",
"F  c #5A8ABC",
"G  c #6081A8",
"H  c #6B8AAB",
"J  c #7A8DA3",
"K  c #7788A3",
"L  c #7594A4",
"P  c #7D94A3",
"I  c #7F98A7",
"U  c #7B95A9",
"Y  c #779AA9",
"T  c #7D9CAC",
"R  c #7594AA",
"E  c #658CB4",
"W  c #6D91B6",
"Q  c #6697B7",
"!  c #7197B7",
"~  c #7499BC",
"^  c #7F9DBD",
"/  c #7897B4",
"(  c #7FA0AE",
")  c #7EA2B3",
"_  c #5889CA",
"`  c #4A84DE",
"'  c #558CDC",
"]  c #5B8CDA",
"[  c #578BD8",
"{  c #608AC5",
"}  c #799FC6",
"|  c #669EDB",
" . c #77AAC2",
".. c #76A5D7",
"X. c #4D8AE7",
"o. c #548EE6",
"O. c #598DE7",
"+. c #5B92E4",
"@. c #5691EB",
"#. c #5C96E5",
"$. c #5D99F4",
"%. c #5A95F0",
"&. c #6493EC",
"*. c #649BEE",
"=. c #6397F0",
"-. c #71A3E3",
";. c #78ADE8",
":. c #7ABAE8",
">. c #6AA4F4",
",. c #69A7FD",
"<. c #70A8F6",
"1. c #79B1FA",
"2. c #878F96",
"3. c #82929E",
"4. c #8C999B",
"5. c #949C95",
"6. c #A3A389",
"7. c #ABA493",
"8. c #B3B790",
"9. c #839AA6",
"0. c #849CA9",
"q. c #8A9CAB",
"w. c #8897A9",
"e. c #929FA6",
"r. c #879DB4",
"t. c #85A5AF",
"y. c #8EA3AC",
"u. c #96A6AA",
"i. c #9DB0A3",
"p. c #85A3B3",
"a. c #8CA7B4",
"s. c #86ADBC",
"d. c #8AABBD",
"f. c #87A3BD",
"g. c #9AABB9",
"h. c #8FB0BE",
"j. c #93B0B9",
"k. c #ABB0AF",
"l. c #AEB2B0",
"z. c #BCC18A",
"x. c #BFC0AE",
"c. c #AEC6BA",
"v. c #D8E191",
"b. c #F6EE80",
"n. c #CECFBE",
"m. c #E4F1B2",
"M. c #8CACC2",
"N. c #98AFC1",
"B. c #8FB5CA",
"V. c #8FB8CB",
"C. c #97B7C4",
"Z. c #9AB5C5",
"A. c #9CBBC7",
"S. c #94BCCD",
"D. c #9ABDCA",
"F. c #97B6C9",
"G. c #8AB6DA",
"H. c #98B9D1",
"J. c #A1B7C0",
"K. c #A5BCCD",
"L. c #A8B9C8",
"P. c #88BAEE",
"I. c #86BAF2",
"U. c #96C3D4",
"Y. c #9DC3D4",
"T. c #97C7DB",
"R. c #AFC0C9",
"E. c #B2C6CF",
"W. c #ACCBDB",
"Q. c #A5C8D5",
"!. c #B6CDD6",
"~. c #B5D7D7",
"^. c #BDD3DA",
"/. c #8AC5E8",
"(. c #9DCDEE",
"). c #95C1E2",
"_. c #86C4F3",
"`. c #92C8F8",
"'. c #A1D1EB",
"]. c #BAD8E7",
"[. c #B4DEF1",
"{. c #BEE4ED",
"}. c #BDE5F1",
"|. c #DCDAC2",
" X c #C3CED1",
".X c #C1D1D0",
"XX c #C8DDE5",
"oX c #CAE2EB",
"OX c #C5EBF8",
"+X c #D5EFF9",
/* pixels */
"                    Y.OXA.                                    ",
"                    U.{.V.                                    ",
"                  D.U.{.Y.        ~.                          ",
"                  Y.T.{.D.D.      ^.                          ",
"                  P.(.}.Y.d.    J.].!.4.                      ",
"                +.,.1.I.).    L.XXoX+Xx.                      ",
"                ' _.>.&.&.] J ^.[.'.OX|.                      ",
"              : p.m.(._.1.=.*.I._._./.n.                      ",
"              p.v.; b.c.>.<.`.<.+.:.:..X#                     ",
"              8.% & = } %.>.T. .#.#...!.@                     ",
"              L * $ - G.$.*...Q | Q z ..7.                    ",
"              R z.i.u.-.@.O.@.o.' F _ s H O                   ",
"                ] ` X.X.$.` h l j l k a ,             l.k.    ",
"                ] X.$.o.l k a i > , < g f        X!.E.K.Z.    ",
"                s ' @.k F 0 p E ^ f.9 , _ H.W.].W.H.M.p.V     ",
"                  { @.-.F.M ~ } F.U r.f./ ^ K.R.e.t o o       ",
"                  a.;.G.W.T ~ ~ d.N b J u d L.g.S b 6 3       ",
"        Z.N.g.g.P 9.Y.V.W.) W ~ ! m C b A J J 9.9.U L M q q   ",
"B.M.d.M.p.P       Z A.S.W.p.H W E G w b B C J 6.+ 3.S L N q x ",
"          6 u w.w.e a.S.Q.h.9.y.0.U 0 1 y y q.u.5.2.          ",
"      2 K U U V     q.D.S.C.L 0.t.t.V r 2 w 2.A U U           ",
"    4 M L C       q.  j.s.C.L P 0.T Z B A K c       m q       ",
"    8 7         P 3.    s.d.( b P P Z Z U J e         b n     ",
"            N T U       t.) a.v v P I q.w.B e             n   ",
"          2 L T           T p.L X 6 N V                       ",
"          n T               Y T D 5 .                         ",
"        x n v                   L L 7                         ",
"                                  N v X                       ",
"                                    M 5                       ",
"                                    L 6                       ",
"                                    Y v                       "
};
