/* XPM */
static char *fcab588d78b141b68f6e647cb7ce9cd1[] = {
/* columns rows colors chars-per-pixel */
"32 32 87 1 ",
"  c #4D9262",
". c #417A52",
"X c #49895C",
"o c #447F56",
"O c #468358",
"+ c #4E9363",
"@ c #4B8F60",
"# c #437D55",
"$ c #468459",
"% c #4C9061",
"& c #4A8D5F",
"* c #4C8F60",
"= c #4C9162",
"- c #4D9362",
"; c #4C9262",
": c #549760",
"> c #63A05C",
", c #599A5E",
"< c #78AF56",
"1 c #619F5C",
"2 c #4E9362",
"3 c #5A9B5E",
"4 c #599A5F",
"5 c #7CB154",
"6 c #77AE56",
"7 c #509562",
"8 c #5B9B5E",
"9 c #529660",
"0 c #4B9162",
"q c #609F5D",
"w c #6FA958",
"e c #559760",
"r c #70AA58",
"t c #76AD56",
"y c #4C8B5C",
"u c #58985E",
"i c #5B9C5E",
"p c #5F9E5D",
"a c #6EA858",
"s c #529560",
"d c #6A9F53",
"f c #4F8450",
"g c #75AB54",
"h c #72A754",
"j c #56975E",
"k c #609E5D",
"l c #6EA859",
"z c #569860",
"x c #74AC57",
"c c #4F9361",
"v c #467D51",
"b c #6FA554",
"n c #72A854",
"m c #4A8151",
"M c #48895D",
"N c #5E9E5D",
"B c #6BA659",
"V c #56985F",
"C c #4B8E5F",
"Z c #427951",
"A c #427850",
"S c #4A8C5E",
"D c #509461",
"F c #73AB57",
"G c #4D9162",
"H c #4F9362",
"J c #549660",
"K c #61A05C",
"L c #66A35B",
"P c #539660",
"I c #4A8B5D",
"U c #427B53",
"Y c #498B5D",
"T c #48885C",
"R c #4C9161",
"E c #498A5D",
"W c #4B9163",
"Q c #64A15B",
"! c #5A9A5E",
"~ c #63A15C",
"^ c #609F5C",
"/ c #57995F",
"( c #5D9D5D",
") c #529561",
"_ c #519561",
"` c #69A55A",
"' c white",
/* pixels */
"                       .XoO+    ",
"                       @#$%     ",
"                        &*      ",
"                   =    -       ",
"                 ;:>=           ",
"      ;=         =,<12 =        ",
"     ;:3         =4567=89       ",
"     0qw=;       =ertyu6i=      ",
"     0pa2e        ;sdfghj;      ",
"     0klzxc        &vbnmM-      ",
"     =NBVxc         CZAS        ",
"      cDVFc          @@G        ",
"        HJ                      ",
"=        ;                      ",
"BD=                             ",
"KLP;                            ",
"KLP;                            ",
"BD=                             ",
"=                               ",
"                                ",
"           *G                   ",
"          *.S                   ",
"         @.IUY-                 ",
"         GYUTR                  ",
"           ER            =WiQ;  ",
"           -            =p!1a=  ",
"                        =B~^a=  ",
"                        =BQ/q;  ",
"              ;         =1(W=   ",
"             ;:);        ;      ",
"             _`~D               ",
"             a(LL=              "
};
