/* XPM */
static char *_20084ba7c0c4214b4dc5c085aac6a86[] = {
/* columns rows colors chars-per-pixel */
"18 18 217 2 ",
"   c None",
".  c #8C1D48",
"X  c #8E1D4A",
"o  c #8E1C4B",
"O  c #8F1D4D",
"+  c #901D4A",
"@  c #911D4D",
"#  c #93204E",
"$  c #93204F",
"%  c #922150",
"&  c #952350",
"*  c #912452",
"=  c #962552",
"-  c #972553",
";  c #972854",
":  c #942858",
">  c #962B5B",
",  c #972D5C",
"<  c #9A2C5B",
"1  c #9B2C5B",
"2  c #9A2D5B",
"3  c #9A325E",
"4  c #9C305C",
"5  c #9C325F",
"6  c #9F3660",
"7  c #A03463",
"8  c #A23D67",
"9  c #A33E6A",
"0  c #A73D6A",
"q  c #A83C69",
"w  c #AA3F6C",
"e  c #AA4371",
"r  c #AB4573",
"t  c #AD4975",
"y  c #AF4976",
"u  c #AF4B76",
"i  c #B14D78",
"p  c #B14F7B",
"a  c #B2517C",
"s  c #1F3F9B",
"d  c #2D2C92",
"f  c #353095",
"g  c #3D3497",
"h  c #2D479E",
"j  c #3E4EA1",
"k  c #50419D",
"l  c #575CAA",
"z  c #B65580",
"x  c #B55781",
"c  c #B85883",
"v  c #BE608B",
"b  c #A77CBD",
"n  c #C0608C",
"m  c #C0628D",
"M  c #C36490",
"N  c #C46592",
"B  c #C46994",
"V  c #CA6C98",
"C  c #CB749E",
"Z  c #CF7BA1",
"A  c #D275A2",
"S  c #D675A3",
"D  c #DC77A6",
"F  c #D179A4",
"G  c #D57EAA",
"H  c #D87CA9",
"J  c #DC7DAA",
"K  c #FF69AA",
"L  c #FF6AAA",
"P  c #FF6BAB",
"I  c #FF6CAB",
"U  c #FF6DAC",
"Y  c #E57AAE",
"T  c #FE7DA7",
"R  c #EF7EB4",
"E  c #FF73B0",
"W  c #FF76B1",
"Q  c #FF75B2",
"!  c #F77CB4",
"~  c #FB79B4",
"^  c #F97AB4",
"/  c #FF78B4",
"(  c #FF7BB4",
")  c #FF7CB6",
"_  c #FF7DB7",
"`  c #FC7FB8",
"'  c #FF7FB8",
"]  c #748BC1",
"[  c #C687AE",
"{  c #D780AB",
"}  c #CE8EB4",
"|  c #DE87B2",
" . c #DE8AB3",
".. c #D696BC",
"X. c #D996BE",
"o. c #FE80A9",
"O. c #FE84AD",
"+. c #E781B1",
"@. c #E184B0",
"#. c #E285B2",
"$. c #E486B4",
"%. c #E18CB6",
"&. c #FF87B0",
"*. c #FE88B1",
"=. c #FF80B9",
"-. c #FF82B9",
";. c #FF82BA",
":. c #FF83BB",
">. c #FF84BB",
",. c #F088B9",
"<. c #FE8FB8",
"1. c #FF89BF",
"2. c #E590BA",
"3. c #E596BF",
"4. c #FE93BD",
"5. c #FF96BF",
"6. c #818EC2",
"7. c #9486C1",
"8. c #9D8EC6",
"9. c #9793C6",
"0. c #9D93C8",
"q. c #9F95C9",
"w. c #A88AC4",
"e. c #B687C3",
"r. c #BC8EC8",
"t. c #A791C7",
"y. c #AA98CA",
"u. c #A6A3D0",
"i. c #B2B2D7",
"p. c #CA90C7",
"a. c #CC91C8",
"s. c #D69DCE",
"d. c #DA9ECE",
"f. c #DD9DCE",
"g. c #DF9DCE",
"h. c #FF8BC0",
"j. c #FF8CC1",
"k. c #FF8EC2",
"l. c #E99AC4",
"z. c #E29ECF",
"x. c #EF9DC8",
"c. c #F397C4",
"v. c #FF90C3",
"b. c #FF91C3",
"n. c #FF92C4",
"m. c #FF93C5",
"M. c #FF95C6",
"N. c #FF96C7",
"B. c #F09AC5",
"V. c #FE99C2",
"C. c #FD9BC4",
"Z. c #FF98C8",
"A. c #FE99CA",
"S. c #FF9BCA",
"D. c #FF9CCB",
"F. c #FF9ECC",
"G. c #FF9FCD",
"H. c #FF9FCE",
"J. c #DCA0D0",
"K. c #EDA0CD",
"L. c #EBA4CD",
"P. c #F2A4CE",
"I. c #F5A5CE",
"U. c #FFA2CB",
"Y. c #FFA0CD",
"T. c #FDA1CE",
"R. c #FFA0CE",
"E. c #FFA2CE",
"W. c #FFA3CF",
"Q. c #F8A6CF",
"!. c #E6A2D1",
"~. c #EAA4D1",
"^. c #E8A7D1",
"/. c #EEA6D2",
"(. c #F7A7D0",
"). c #FFA2D0",
"_. c #FFA3D0",
"`. c #FFA4D0",
"'. c #FFA5D0",
"]. c #FFA5D1",
"[. c #FFA6D1",
"{. c #FFA5D2",
"}. c #FFA6D2",
"|. c #F1A8D3",
" X c #F3ABD4",
".X c #F3ABD5",
"XX c #F3ABD6",
"oX c #F8AAD2",
"OX c #FBAAD3",
"+X c #FFA8D2",
"@X c #FFA8D3",
"#X c #FFA9D3",
"$X c #FEA9D4",
"%X c #FFAAD4",
"&X c #FFABD5",
"*X c #F8ADD4",
"=X c #F9AED7",
"-X c #FBAED7",
";X c #FFACD5",
":X c #FFADD5",
">X c #FFADD6",
",X c #FEAED6",
"<X c #FFAED7",
"1X c #FFAFD7",
"2X c #F7AFD8",
"3X c #FBAFD9",
"4X c #FDAFD8",
"5X c #FFAED8",
"6X c #FDB0D8",
"7X c #FFB0D8",
"8X c #FFB0D9",
"9X c #FFB1D9",
"0X c #FFB2D9",
"qX c #FFB3D9",
"wX c #FFB2DA",
"eX c #FFB3DA",
"rX c #FFB3DB",
/* pixels */
"              $ - - @               ",
"          8 m H @.@.A x 3           ",
"      : B B.R.G.G.G.G.R.2.a o       ",
"    : G &X[.[.+X+X+X+X[.[.Q.v o     ",
"  O C rX&X1Xg./.1X1Xz.~.1X1XoXp     ",
"  y *X1XrXJ.q.w.*X!.8.t.XX1XrX3.<   ",
"o F rX1XrXe.i.7.|.a.u.0.g.rX1XrXx   ",
"< l.rX1XrXb d k XXp.f g d.rX1XrXZ o ",
"q I.rXrXrXr.s l *Xs.h j ~.rXrXrX .& ",
"w (.1X<.&.K.] y.rX2X6.9.C.O.V.rX%.- ",
"7 x.+X*.o.U.3XL.X...XX4X5.T 4.4X{ $ ",
"% | _._.[.+X&XP.[ } oX+X+X[.R.[.M   ",
"  m S.m.S.D.R.R.[.[.R.G.S.N.b.c.0   ",
"  5 $.;.>.h.b.m.N.N.m.j.1.;.j.V +   ",
"    r ,.Q Q _ ;.;.;.` ( E _ J <     ",
"      y +.( K K I K K U ` S 5       ",
"        6 N Y ! ~ ~ R D c ;         ",
"            , e p y 9 *             "
};
