/* XPM */
static char *d58ae0b5524c4ba3f0dd2d446b3dd87fFSlpMYx0NUfEaBYz[] = {
/* columns rows colors chars-per-pixel */
"31 31 247 2 ",
"   c black",
".  c #FFFBFF",
"X  c #FFFBFA",
"o  c #FFFCF2",
"O  c #FFF7CD",
"+  c #FFFBE2",
"@  c yellow",
"#  c #FFE086",
"$  c #FFFBFF",
"%  c #FFFEFF",
"&  c white",
"*  c #FFFBFF",
"=  c #FFFBFC",
"-  c #FFFBFF",
";  c #FFFCDC",
":  c #FFEC84",
">  c #FFE47E",
",  c #FFFABC",
"<  c #FFFBFF",
"1  c #FFFAFF",
"2  c #FFFBFF",
"3  c #FFFBF8",
"4  c #FFF9D0",
"5  c #FFFCFF",
"6  c #FFFBFF",
"7  c #FFF7B7",
"8  c #FFFDFD",
"9  c #FFFAFF",
"0  c #FFFDF8",
"q  c #FFF9DF",
"w  c #FFFBFF",
"e  c #FFFDFF",
"r  c #FFF5B7",
"t  c #FFFCFF",
"y  c white",
"u  c #FFFAFF",
"i  c white",
"p  c #FFFEFF",
"a  c #FFF9E5",
"s  c #FFF6DB",
"d  c #FFF6BA",
"f  c #FFF6E6",
"g  c #FFFDF9",
"h  c white",
"j  c #FFFBFF",
"k  c #FFFBFE",
"l  c #FFFDF3",
"z  c #FFF3AF",
"x  c #FFE99E",
"c  c #FFEDAD",
"v  c #FFFCDC",
"b  c #FFFBFF",
"n  c #FFFBFF",
"m  c #FFFBFF",
"M  c #FFFBFF",
"N  c #FFFBF6",
"B  c #FFFBFF",
"V  c #FFFBFF",
"C  c #FFFCCA",
"Z  c #FFFA96",
"A  c #FFFBFF",
"S  c #FFFDC1",
"D  c #FFFA84",
"F  c #FFFBFF",
"G  c #FFFBFF",
"H  c #FFFCF7",
"J  c #FFFAE1",
"K  c #FFFBFF",
"L  c #FFFAAA",
"P  c #FFF57C",
"I  c #FFFCFF",
"U  c #FFFCFA",
"Y  c #FFFBFF",
"T  c #FFFDFF",
"R  c None",
"E  c #FFFBFB",
"W  c #FFFBFF",
"Q  c #FFFAFF",
"!  c #FFFBC5",
"~  c #FFF29C",
"^  c #FFFEFF",
"/  c #FFFAFF",
"(  c #FFF0D4",
")  c #FFFBFF",
"_  c #FFFBA5",
"`  c #FFF472",
"'  c #FFFCFF",
"]  c #FFFDFF",
"[  c #FFF48E",
"{  c #FFFBFF",
"}  c white",
"|  c #FFE290",
" . c #FFFAFD",
".. c #FFE88D",
"X. c #FFF0C9",
"o. c #FFEECB",
"O. c #FFFBFE",
"+. c #FFFBFF",
"@. c #FFFBC9",
"#. c #FFFAC9",
"$. c #FFFEFF",
"%. c white",
"&. c #FFFCFF",
"*. c #FFFBE7",
"=. c #FFFBFF",
"-. c #FFFBF8",
";. c #FFFBFF",
":. c #FFFAD4",
">. c #FFECBD",
",. c #FFF6C5",
"<. c #FFFDFF",
"1. c #FFFBF2",
"2. c #FFFCFF",
"3. c #FFFAD5",
"4. c #FFFCFB",
"5. c #FFFBFF",
"6. c #FFFAFF",
"7. c #FFFEFF",
"8. c white",
"9. c #FFFAFF",
"0. c #FFF9FA",
"q. c #FFED50",
"w. c #FFE414",
"e. c #FFE921",
"r. c #FFE521",
"t. c #FFDA2E",
"y. c #FFF9B7",
"u. c #FFFCE2",
"i. c #FFE141",
"p. c #FFED80",
"a. c #FFE45D",
"s. c #FFEA52",
"d. c #FFFBFF",
"f. c #FFF398",
"g. c #FFDE29",
"h. c #FFDF18",
"j. c #FFF6D0",
"k. c #FFFBF5",
"l. c #FFE23C",
"z. c #FFEE74",
"x. c #FFE64B",
"c. c #FFE668",
"v. c #FFFCF7",
"b. c #FFFCFF",
"n. c #FFF3A4",
"m. c #FFDC2C",
"M. c #FFE42C",
"N. c #FFDA50",
"B. c #FFE252",
"V. c #FFF9BC",
"C. c #FFFBEA",
"Z. c #FFEA5A",
"A. c #FFD95C",
"S. c #FFE028",
"D. c #FFE97B",
"F. c #FFF9B3",
"G. c #FFE359",
"H. c #FFDF17",
"J. c #FFE473",
"K. c #FFEC9A",
"L. c #FFFBDB",
"P. c #FFFBF4",
"I. c #FFF3A1",
"U. c #FFE490",
"Y. c #FFE222",
"T. c #FFDE42",
"R. c #FFF58F",
"E. c #FFE41D",
"W. c #FFE74A",
"Q. c #FFF7D6",
"!. c #FFFDF9",
"~. c #FFFDFF",
"^. c #FFF9E3",
"/. c #FFEF7F",
"(. c #FFDC0D",
"). c #FFE014",
"_. c #FFEDC2",
"`. c #FFF9F4",
"'. c #FFD82A",
"]. c #FFE66D",
"[. c #FFE83E",
"{. c #FFFCE1",
"}. c #FFF373",
"|. c #FFDE37",
" X c #FFE51F",
".X c #FFEB40",
"XX c #FFFBE1",
"oX c #FFFBFB",
"OX c #FFF374",
"+X c #FFE10C",
"@X c #FFFABA",
"#X c #FFE020",
"$X c #FFEFA0",
"%X c #FFF8D9",
"&X c #FFDD24",
"*X c #FFF585",
"=X c #FFE327",
"-X c #FFFAEF",
";X c #FFEB64",
":X c #FFE448",
">X c #FFDA57",
",X c #FFF6EB",
"<X c #FFDB6F",
"1X c #FFDA71",
"2X c #FFF6E9",
"3X c #FFDC77",
"4X c #FFDD3E",
"5X c #FFF6EC",
"6X c #FFDE67",
"7X c #FFF21C",
"8X c #FFFBEE",
"9X c #FFF65B",
"0X c #FFF14A",
"qX c #FFEA6F",
"wX c #FFFCFE",
"eX c #FFFCF9",
"rX c #FFFAA5",
"tX c #FFF36E",
"yX c #FFDE7D",
"uX c #FFDD7E",
"iX c #FFEB74",
"pX c #FFFA81",
"aX c #FFFBEF",
"sX c #FFF7A9",
"dX c #FFDA5F",
"fX c #FFE634",
"gX c #FFFCBE",
"hX c #FFF33A",
"jX c #FFE931",
"kX c #FFF365",
"lX c #FFF58C",
"zX c #FFE737",
"xX c #FFF32B",
"cX c #FFF796",
"vX c #FFFDCB",
"bX c #FFF062",
"nX c #FFE051",
"mX c #FFE82F",
"MX c #FFDF0F",
"NX c #FFEF1C",
"BX c #FFEC76",
"VX c #FFF08A",
"CX c #FFF036",
"ZX c #FFE210",
"AX c #FFE215",
"SX c #FFF89C",
"DX c white",
/* pixels */
"                                                              ",
"                                                              ",
"                                                              ",
"                      . . . . . . . .                         ",
"                      . . $ % & * = . .                       ",
"                    . . - ; : > , < 1 .                       ",
"                    . 2 3 q.w.e.r.4 5 .                       ",
"                  . . 6 7 t.y.u.i.p.8 X .                     ",
"                  . 9 0 a.s.d.d.f.g.q w . .                   ",
"          . . . o O e r h.j.d.d.k.l.z.t y + . . . .           ",
"      . . . u i p a s x.c.v.d.d.b.n.m.d f g h j . . .         ",
"    . . k - l z x M.N.B.V.d.d.d.d.C.Z.A.S.D.c v b n . .       ",
"    . m M F.G.H.J.K.L.d.d.d.d.d.d.d.d.P.I.U.Y.T.R.N B .       ",
"    . V C E.W.Q.!.b.d.d.d.d.d.d.d.d.d.d.d.~.^./.(.Z A .       ",
"    . V S )._.b.d.d.d.d.d.d.d.d.d.d.d.d.d.d.d.`.'.D F .       ",
"    . G H ].[.{.d.d.d.d.d.d.d.d.d.d.d.d.d.d.v.}.|.J K .       ",
"    . . B L  X.XXXd.d.d.d.d.d.d.d.d.d.d.d.oXOX+XP I . .       ",
"      . . b @X#X$Xb.d.d.d.d.d.d.d.d.d.d.d.%X&X*XU @ .         ",
"        . Y T R =X-Xd.d.d.d.d.d.d.d.d.d.d.;X:XE W .           ",
"        . . Q ! >X,Xd.d.d.d.d.d.d.d.d.d.b.<X~ ^ . .           ",
"          . . / 1X2Xd.d.d.d.d.d.d.d.d.d.b.3X( # .             ",
"          . ) _ 4X5Xd.d.d.d.d.d.d.d.d.d.b.6X` ' .             ",
"          . ] [ 7X8Xd.d.d.d.b.b.b.d.d.d.d.9X0X{ .             ",
"          . } | qXwXd.eXrXtXyXuXiXpXaXd.d.sXdX ..             ",
"          . } ..fXgX@XhXjXkXX.o.lXzXxXcXvXbXnXO..             ",
"          . +.@.mXMXNXBX#.M $.%.&.*.VXCXZXAXSX=..             ",
"          . -.;.:.>.,.<.w 1.. . . n 2.3.>.,.4.5..             ",
"          . . 6.7.8.8.9.. . .   . . 0.7.8.8.9.. .             ",
"            . . . . . . .         . . . . . . .               ",
"                                                              ",
"                                                              "
};
