/* XPM */
static char *ab1c455599854084b53446f4eb967d45pnb3JQHiXm2YubCx[] = {
/* columns rows colors chars-per-pixel */
"32 32 182 2 ",
"   c None",
".  c #9D490B",
"X  c #A54A0C",
"o  c #B84E06",
"O  c #B94D0B",
"+  c #B44509",
"@  c #BC5307",
"#  c #B75309",
"$  c #BC550B",
"%  c #BD590A",
"&  c #B95D1A",
"*  c #BF770D",
"=  c #BC6C1B",
"-  c #BC7616",
";  c #B14722",
":  c #BA5325",
">  c #BC5C2D",
",  c #BA6327",
"<  c #C55B0B",
"1  c #C4610D",
"2  c #CC6B0D",
"3  c #D0640C",
"4  c #C66110",
"5  c #CF6510",
"6  c #CE6F12",
"7  c #C9691A",
"8  c #D36C1D",
"9  c #CF7812",
"0  c #D67D14",
"q  c #D87814",
"w  c #D67819",
"e  c #D17211",
"r  c #E37A0B",
"t  c #C05E23",
"y  c #C46529",
"u  c #C26939",
"i  c #CA7B3C",
"p  c #C56E45",
"a  c #CD7244",
"s  c #CB7C50",
"d  c #C77B64",
"f  c #CF8817",
"g  c #D58814",
"h  c #DD9519",
"j  c #EF880B",
"k  c #E78516",
"l  c #E28A18",
"z  c #E59515",
"x  c #E99D15",
"c  c #F49816",
"v  c #EBA11A",
"b  c #F4A61C",
"n  c #F3AC1D",
"m  c #F9AF1E",
"M  c #FBB61F",
"N  c #CF8726",
"B  c #C5872F",
"V  c #D78321",
"C  c #DD8C26",
"Z  c #DE9726",
"A  c #D2952A",
"S  c #D9962B",
"D  c #C78D33",
"F  c #D08736",
"G  c #D48D3F",
"H  c #E19B23",
"J  c #EC9D29",
"K  c #E69D2D",
"L  c #ECAC24",
"P  c #ECA62D",
"I  c #EFAA29",
"U  c #E2A22F",
"Y  c #F7A426",
"T  c #F3AB23",
"R  c #F0A02D",
"E  c #F9AC29",
"W  c #F7B727",
"Q  c #F6B924",
"!  c #FBBA23",
"~  c #F5B32B",
"^  c #F9B72E",
"/  c #F8B927",
"(  c #EBAA3B",
")  c #F3AA36",
"_  c #EFB63B",
"`  c #F6BA33",
"'  c #F2B137",
"]  c #FAC31E",
"[  c #FBC425",
"{  c #FCCC24",
"}  c #FCC42B",
"|  c #FECC29",
" . c #FDD527",
".. c #FED42C",
"X. c #FEDB2B",
"o. c #FDCA32",
"O. c #FDC43A",
"+. c #FFC83B",
"@. c #FED434",
"#. c #FFDB33",
"$. c #FCDE3B",
"%. c #FDD43C",
"&. c #FEE937",
"*. c #FDE239",
"=. c #D48C45",
"-. c #DD8847",
";. c #D18948",
":. c #CE825C",
">. c #C39651",
",. c #EBB45A",
"<. c #F1BA56",
"1. c #CF8D68",
"2. c #D48F6D",
"3. c #D8967B",
"4. c #D0A060",
"5. c #E5A36A",
"6. c #E3B160",
"7. c #EFBF78",
"8. c #FDC540",
"9. c #FDCD41",
"0. c #F1C24E",
"q. c #FBD444",
"w. c #F8DF46",
"e. c #FAD44A",
"r. c #FCDB4D",
"t. c #EAC957",
"y. c #EEDF5A",
"u. c #FED459",
"i. c #FCDD5C",
"p. c #F5DA5A",
"a. c #FDE841",
"s. c #FCE84A",
"d. c #FFF24F",
"f. c #F9E45A",
"g. c #FAE558",
"h. c #FDF359",
"j. c #E6D160",
"k. c #EEDF67",
"l. c #EED569",
"z. c #F7E167",
"x. c #F5E46C",
"c. c #FEF66D",
"v. c #F6E572",
"b. c #F5E874",
"n. c #F6EB7B",
"m. c #FDE57A",
"M. c #FDF771",
"N. c #FDF478",
"B. c #D59A85",
"V. c #DBB889",
"C. c #DAA391",
"Z. c #DFBD94",
"A. c #E6AC8C",
"S. c #EBB889",
"D. c #E2B49B",
"F. c #E4B6A2",
"G. c #EDC190",
"H. c #F1CE9A",
"J. c #FFE980",
"K. c #FDF587",
"L. c #F4F690",
"P. c #FEF69A",
"I. c #FEF89E",
"U. c #FAF393",
"Y. c #E5C3AE",
"T. c #F2CFA1",
"R. c #E9D4B9",
"E. c #FFFDA7",
"W. c #EED6CF",
"Q. c #F3D6C4",
"!. c #F3D9CB",
"~. c #EFDBD4",
"^. c #F5DFD3",
"/. c #F7E5D0",
"(. c #F7E8D5",
"). c #F5E5DC",
"_. c #F4E8DC",
"`. c #F4EAE0",
"'. c #FBF3ED",
"]. c #FBF5F2",
"[. c #FCF9F6",
"{. c #FFFFFF",
/* pixels */
"                                                                ",
"                                                                ",
"                                                                ",
"                    n.b.v.v.x.x.x.x.x.v.b.                      ",
"                v.z.i.e.q.9.9.9.+.O.O.8.u.m.P.E.                ",
"            l.z.r.@.| | | [ Q T n m Q ! } +.u.J.I.              ",
"          k.f.%.| | ! v 0 1 @ o o O $ 1 0 T } +.i.K.L.          ",
"        x.g.@.| Q g @ + : p :.2.3.B.B.d ; O 0 ~ o.r.N.U.        ",
"      x.g.#...L % : :.F.^.'.[.[.{.{.{.[.W.C.y 1 I o.$.c.n.      ",
"      f.*.@.L # p !.[.{.{.{.{.{.{.{.{.{.{.{.).s < I @.a.M.      ",
"    y.*.X./ % u ^.{.{.{.{.{.{.{.{.{.{.{.{.{.{._.:.< ` #.d.N.    ",
"  j.w.X...9 > Q.{.{.{.{.{.{.{.{.{.{.{.{.{.{.{.{.'.:.w @.*.h.b.  ",
"  p.X.X.L O D.{.{.{.{.{.{.{.{.{.{.{.{.{.{.{.{.{.{.~.t P #.&.h.  ",
"  e. ...q a '.{.{.{.{.{.{.{.{.{.{.{.{.{.{.{.{.{.{.{.1.e @.X.s.  ",
"t.o...[ 3 A.{.{.{.{.{.{.{.{.{.{.{.{.{.{.{.{.{.{.{.{.Y.4 } X.$.f.",
"0.[ X.Q 8 Q.{.{.{.{.{.{.{.{.{.{.{.{.{.{.{.{.{.{.{.{.).y T X. .q.",
"_ ] X.b -.].{.{.{.{.{.{.{.{.{.{.{.{.{.{.{.{.{.{.{.{.].i z X.{ O.",
"' ! X.b 5.{.{.{.{.{.{.{.{.{.{.{.{.{.{.{.{.{.{.{.{.{.[.;.z X.] ` ",
") ! X.T S.{.{.{.{.{.{.{.{.{.{.{.{.{.{.{.{.{.{.{.{.{.[.=.x X.] ^ ",
"R m X.Q G.{.{.{.{.{.{.{.{.{.{.{.{.{.{.{.{.{.{.{.{.{.[.=.v #.M E ",
"K b ..[ 7.{.{.{.{.{.{.{.{.{.{.{.{.{.{.{.{.{.{.{.{.{.].G n #.m Y ",
"S c | { <.'.{.{.{.{.{.{.{.{.{.{.{.{.{.{.{.{.{.{.{.{._.N Q ..c J ",
"D k [ { ` /.{.{.{.{.{.{.{.{.{.{.{.{.{.{.{.{.{.{.{.{.R.f } [ j C ",
"  w T } / H.{.{.{.{.{.{.{.{.{.{.{.{.{.{.{.{.{.{.{.{.V.g } n r F ",
"  7 l ~ W ,.].{.{.{.{.{.{.{.{.{.{.{.{.{.{.{.{.{.{.{.4.h / l 6   ",
"  & 5 J I ( (.{.{.{.{.{.{.{.{.{.{.{.{.{.{.{.{.{.{.`.B H T 2 =   ",
"    O V H P T.{.{.{.{.{.{.{.{.{.{.{.{.{.{.{.{.{.{.Z.* Z C $ ,   ",
"    . = A U 6.'.{.{.{.{.{.{.{.{.{.{.{.{.{.{.{.{.[.>.- A = X     ",
"                                                                ",
"                                                                ",
"                                                                ",
"                                                                "
};
