/* XPM */
static char *dcc465190c0a4b6fa3c8f39d80e8b9af[] = {
/* columns rows colors chars-per-pixel */
"32 32 226 2 ",
"   c None",
".  c #B03B07",
"X  c #9D490B",
"o  c #B7470C",
"O  c #B94E0B",
"+  c #B94D07",
"@  c #BC540B",
"#  c #BB570A",
"$  c #BC5C16",
"%  c #A54A0C",
"&  c #BF760B",
"*  c #BC6C1B",
"=  c #BA7615",
"-  c #BA6327",
";  c #C25408",
":  c #C65C0A",
">  c #C05C07",
",  c #C45D14",
"<  c #C5620E",
"1  c #CC6B0D",
"2  c #D1650D",
"3  c #CD740C",
"4  c #C87B0B",
"5  c #CC6C14",
"6  c #CC6B1C",
"7  c #C96414",
"8  c #D46D1E",
"9  c #CD7219",
"0  c #C97C14",
"q  c #D47D15",
"w  c #DA7A15",
"e  c #D57618",
"r  c #E37D13",
"t  c #CB5B27",
"y  c #C95738",
"u  c #C44A28",
"i  c #DB7A25",
"p  c #D5673D",
"a  c #D57539",
"s  c #E97C33",
"d  c #D15A53",
"f  c #C9535A",
"g  c #D96C4D",
"h  c #DD755C",
"j  c #D46753",
"k  c #E67645",
"l  c #DB736B",
"z  c #DA7778",
"x  c #D66A74",
"c  c #E3727D",
"v  c #E17D72",
"b  c #CE850F",
"n  c #CE861C",
"m  c #D78719",
"M  c #DC971D",
"N  c #E48817",
"B  c #E39315",
"V  c #E79C1A",
"C  c #E89B1A",
"Z  c #F49816",
"A  c #EF880B",
"S  c #EBA31B",
"D  c #E3A01D",
"F  c #F3AB1D",
"G  c #F7AA1D",
"H  c #FAB41F",
"J  c #F9B81C",
"K  c #CD8A23",
"L  c #CC8722",
"P  c #D28B24",
"I  c #DB8B21",
"U  c #DA8527",
"Y  c #DC9423",
"T  c #DE9A23",
"R  c #D7962A",
"E  c #DD9A30",
"W  c #CC8A35",
"Q  c #E28A25",
"!  c #E49C24",
"~  c #EB9B25",
"^  c #E59B2B",
"/  c #EB9C2A",
"(  c #E59720",
")  c #DFA736",
"_  c #DBA22D",
"`  c #E4A224",
"'  c #EAA526",
"]  c #ECAB25",
"[  c #EBA42B",
"{  c #EDAA2A",
"}  c #E2A629",
"|  c #F4A625",
" . c #F3AB22",
".. c #F2AC2C",
"X. c #F5A62B",
"o. c #ECB428",
"O. c #F5B125",
"+. c #FBB524",
"@. c #F6BA23",
"#. c #FABB23",
"$. c #F4B22B",
"%. c #F5BC2B",
"&. c #FABB2B",
"*. c #F9B72E",
"=. c #E8A535",
"-. c #EDB836",
";. c #F2B132",
":. c #F5BB32",
">. c #F3AA36",
",. c #FBC31E",
"<. c #FBC426",
"1. c #FDCC25",
"2. c #F6C628",
"3. c #FCC32C",
"4. c #FECC2A",
"5. c #F6CD2A",
"6. c #FED326",
"7. c #FED42C",
"8. c #FEDA2B",
"9. c #FBC531",
"0. c #FDCA33",
"q. c #FCC53A",
"w. c #FDCB3C",
"e. c #FED434",
"r. c #FFDB33",
"t. c #FCDD3A",
"y. c #F9D63C",
"u. c #FEE434",
"i. c #FDE23A",
"p. c #FFEB39",
"a. c #FEE937",
"s. c #D68B52",
"d. c #E98357",
"f. c #E8995B",
"g. c #E2A84A",
"h. c #EEBD41",
"j. c #E5A658",
"k. c #ECB457",
"l. c #E2B150",
"z. c #F3B35E",
"x. c #DD9E6F",
"c. c #DA8170",
"v. c #E28560",
"b. c #F4987C",
"n. c #EEA56C",
"m. c #E3BA6C",
"M. c #E2B864",
"N. c #E4BA73",
"B. c #E6B873",
"V. c #FCCD42",
"C. c #F7C447",
"Z. c #FAD848",
"A. c #ECC754",
"S. c #EEDF5A",
"D. c #FBD85A",
"F. c #F0C851",
"G. c #FEED43",
"H. c #FCE84A",
"J. c #FFF34F",
"K. c #FBE658",
"L. c #FDF45B",
"P. c #EBD765",
"I. c #EED37B",
"U. c #FADC6C",
"Y. c #F5E364",
"T. c #F5E46C",
"R. c #FDE260",
"E. c #FFF96A",
"W. c #F6E572",
"Q. c #F5E874",
"!. c #F8E97B",
"~. c #FDF579",
"^. c #FDF771",
"/. c #DC6D8C",
"(. c #DE6A95",
"). c #DD7497",
"_. c #D77385",
"`. c #E16E8A",
"'. c #E27587",
"]. c #E36F91",
"[. c #E4789A",
"{. c #E778A4",
"}. c #DD8E8D",
"|. c #DE928C",
" X c #DC8592",
".X c #D68B96",
"XX c #EB8A83",
"oX c #E59E8E",
"OX c #EA8097",
"+X c #EC8699",
"@X c #F19782",
"#X c #DEA993",
"$X c #EEB489",
"%X c #E78CAA",
"&X c #F189A8",
"*X c #E687B2",
"=X c #EA86B2",
"-X c #EE87BC",
";X c #ED89B9",
":X c #EB8BB6",
">X c #F18DB8",
",X c #E992B8",
"<X c #F29ABC",
"1X c #F397BA",
"2X c #E795AE",
"3X c #E1B0A8",
"4X c #F2C18F",
"5X c #F4D28F",
"6X c #F7D895",
"7X c #F8E886",
"8X c #FFFD81",
"9X c #FDF48B",
"0X c #FAE190",
"qX c #FBF798",
"wX c #F7DBAE",
"eX c #F7DBB4",
"rX c #F4ECA9",
"tX c #FFFDA3",
"yX c #FEF8A6",
"uX c #F7EAB8",
"iX c #F39BC7",
"pX c #F7A9D3",
"aX c #FAAAD4",
"sX c #EEC2CD",
"dX c #F9EDDC",
"fX c #FDFEE1",
/* pixels */
"                                                                ",
"                                                                ",
"                                                                ",
"                    !.Q.W.W.T.T.T.T.T.W.Q.                      ",
"                W.T.D.Z.V.V.V.V.q.w.q.V.D.!.qXtX                ",
"            P.Y.Z.e.4.4.4.<.@. .F  .+.#.3.w.D.7XqX              ",
"          P.K.y.4.4.#.S q < # + + + # < q  .3.0.D.9X9X          ",
"        T.K.e.4.@.m @ . o , 7 5 5 2 < @ . o q $.0.Z.~.qX        ",
"      T.K.r.7.] # o 7 U ^ { ' ' ` } { [ U 6 ; < { 0.t.E.!.      ",
"      K.i.e.] @ $ / ;.' I 5 Q { ] ( e I { $.~ < : { e.G.^.      ",
"    S.i.8.%.# , [ $.w t y u Q $.O.~ t y t i $.[ < : :.r.J.~.    ",
"  P.Z.8.7.q O =.$.e d `.'.h ! #.@. .d.c `.d i $.' ; e e.i.L.Q.  ",
"  D.8.8.] + U :.Q v [.].&XXX[ @.@.&.b.&X].+Xz U *.m + { r.a.L.  ",
"  Z.6.7.w , ;. .g &X>X<X*X'.! V.F.O.XX*X<X:X=Xj / ..< e e.8.H.  ",
"A.9.7.<.2 Q &.Q c {.iXpX*Xx E 7XuXk.l ;XpXiX{.c i $.m : 3.8.t.K.",
"F.<.8.@.2 / +.s OX1X;X-X*X|.I.rXrXuXoX*X-X;X1XOXp $.! >  .8.6.Z.",
"-.,.8.F w ..+.k &XaX>X+X$X7XqX7X7XfXdXsX,X,XpX&Xg | ..< C 8.1.q.",
";.#.8.F w $.&.d.{.>X$XR.L.E.8XY.Y.tXtXtXyX4X:X{.h | $.3 B 8.,.:.",
">.#.8.O.m $.3.f./.(.@X9.6.u.G.y.y.J.G.p.t.n.(./.v.O.$.3 V 8.,.*.",
"[ H 8.@.B O.e.B. X%X,Xn.J J 6.5.2.8.6.1.z.2X%X Xj.3.{ 3 S r.J O.",
"^ G 7.<.V  .w.0XwXwXwX5X:.,.i.Z.2.8.1.q.6XeXwX6XU.0.] 3  .r.G | ",
"R Z 1.1.S ] 3.0.0.4.9.:.%.K.8XY.@.u.u.<.&.9.0.0.0.3.` 4 &.7.Z / ",
"W N <.1.F ` &. .r 8 8 6 =.~.9XF.B 0.p.o.9 6 8 e C &.M b 3.<.A Y ",
"  w  .3.@.D o.$.a d x z g.h.E m 9 q V =.c.x f p ~ $.b m 3.F r W ",
"  6 N $.&.! ` -.k.z ).[.l a n T T ^ a l [.)._.s.} ! 4 M &.B 5   ",
"  $ 2 / { [ Y } I.3X.X X}.x.) T Y A.$X.X.X.X#XM._ P & !  .1 *   ",
"    O U ! [ Y I l.N.N.N.M.l.) Y I g.m.N.B.m.m.g.R 0 & T I @ -   ",
"    X * R =.E L L L K K K K P P n n n L K P P P K = = R * %     ",
"                                                                ",
"                                                                ",
"                                                                ",
"                                                                "
};
