/* XPM */
static char *b84d388e2b124e1fbcea1618c30fb713oMxqeN0YEFnfEz1U[] = {
/* columns rows colors chars-per-pixel */
"31 31 4 1 ",
"  c #4D9262",
". c #3E734E",
"X c #7AB055",
"o c white",
/* pixels */
"                               ",
"                      .        ",
"                     . .       ",
"                      .        ",
"                               ",
"                               ",
"                 X             ",
"                 XX            ",
"      X          XX  X         ",
"      X           X.XX         ",
"      X X         .XX.         ",
"      X X          ..          ",
"        X                      ",
"                               ",
"                               ",
"X                              ",
" X                             ",
"X                              ",
"                               ",
"                               ",
"                               ",
"          .                    ",
"         . .                   ",
"          .                    ",
"                         X     ",
"                       X X     ",
"                       X X     ",
"                       X       ",
"                               ",
"             X                 ",
"            X X                "
};
