/* XPM */
static char *f24925028f77476d97cf379e02e4e3d10uxk6cmHCuz3fsBo[] = {
/* columns rows colors chars-per-pixel */
"31 31 5 1 ",
"  c None",
". c #3E734E",
"X c #7AB055",
"o c #4D9262",
"O c white",
/* pixels */
"                               ",
"                               ",
"                               ",
"                               ",
"                               ",
"            ......             ",
"           .XXXXXX.            ",
"          .XXXXXXXX.           ",
"         .XXXXXXXXXo.          ",
"         .XXXXXXXXo..          ",
"        .oXXXXooooo...         ",
"       .Xooooooo....o..        ",
"       .XXooooooooooo..        ",
"       .oXXXXXXXXXXoo...       ",
"      .ooXXXXXXXXXoo.....      ",
"     .XXoooXXXXXooo......      ",
"     .XXXooooooo....ooo..      ",
"     .XXXXoooooooooooooo..     ",
"     .oXXXXXoooooooXXXoo..     ",
"     .oXXXXXXoooXXXXXXXo..     ",
"    .X.oXXXXXXXXXXXXXXo....    ",
"    .XX.oooooXXXXXXooo.oo..    ",
"    .oXXo....ooooo....ooo..    ",
"    .ooXXoooo......ooooo..     ",
"     .ooooXXXXXXXXXXXoo...     ",
"      .o..oooooooooo.....      ",
"       .................       ",
"           .........           ",
"                               ",
"                               ",
"                               "
};
