/* XPM */
static char *aed9bbf8cadb4f21f62e7ee5f629795bo0d3ifowPenAVYX1[] = {
/* columns rows colors chars-per-pixel */
"64 64 222 2 ",
"   c #000000",
".  c #0D0401",
"X  c #0A080A",
"o  c #150601",
"O  c #1A0B05",
"+  c #1D1106",
"@  c #0E0A12",
"#  c #01081B",
"$  c #130B16",
"%  c #191919",
"&  c #270702",
"*  c #2C0C01",
"=  c #380C02",
"-  c #291605",
";  c #331100",
":  c #391907",
">  c #381A14",
",  c #3C210A",
"<  c #382211",
"1  c #050D28",
"2  c #051138",
"3  c #121430",
"4  c #3A1520",
"5  c #302B36",
"6  c #481504",
"7  c #4E120B",
"8  c #571602",
"9  c #750809",
"0  c #681C0A",
"q  c #711108",
"w  c #47260F",
"e  c #5A2504",
"r  c #662504",
"t  c #782601",
"y  c #763805",
"u  c #4D2922",
"i  c #532B25",
"p  c #543629",
"a  c #6A302B",
"s  c #081747",
"d  c #07194B",
"f  c #1D1A41",
"g  c #091C55",
"h  c #0B205E",
"j  c #0C2269",
"k  c #0B247C",
"l  c #10287E",
"z  c #412E55",
"x  c #763248",
"c  c #652D50",
"v  c #753D53",
"b  c #543A6F",
"n  c #3E734E",
"m  c #4D4D4C",
"M  c #58545B",
"N  c #7D684F",
"B  c #674F73",
"V  c #78606B",
"C  c #8D0A0B",
"Z  c #940C0D",
"A  c #851709",
"S  c #9C1212",
"D  c #AA180D",
"F  c #B41D0B",
"G  c #A21B18",
"H  c #882A03",
"J  c #942804",
"K  c #953100",
"L  c #993302",
"P  c #932F11",
"I  c #AA2705",
"U  c #B52906",
"Y  c #B92408",
"T  c #A23903",
"R  c #B02F15",
"E  c #8C3A32",
"W  c #A72B25",
"Q  c #B1352B",
"!  c #C72909",
"~  c #D92D04",
"^  c #D42E08",
"/  c #C83304",
"(  c #DA3206",
")  c #D73008",
"_  c #DB3108",
"`  c #D63909",
"'  c #C73616",
"]  c #DB3D16",
"[  c #E43605",
"{  c #E63805",
"}  c #F43E01",
"|  c #F93E00",
" . c #E43D12",
".. c #874700",
"X. c #914A00",
"o. c #955100",
"O. c #AB4800",
"+. c #A65500",
"@. c #B45800",
"#. c #B74112",
"$. c #85453B",
"%. c #B64337",
"&. c #D14413",
"*. c #DA471C",
"=. c #ED470D",
"-. c #F94101",
";. c #F54508",
":. c #F94C0B",
">. c #F9500F",
",. c #E44A13",
"<. c #F24B14",
"1. c #E55216",
"2. c #F55315",
"3. c #F85414",
"4. c #FE5916",
"5. c #F45718",
"6. c #F85818",
"7. c #C66B00",
"8. c #D47400",
"9. c #D44929",
"0. c #DA5534",
"q. c #E9582E",
"w. c #F6672C",
"e. c #E6683A",
"r. c #ED733E",
"t. c #8A5B44",
"y. c #9E5246",
"u. c #AB5849",
"i. c #80684F",
"p. c #816B51",
"a. c #BC7056",
"s. c #CA5548",
"d. c #C7584A",
"f. c #DD6549",
"g. c #C76956",
"h. c #D46857",
"j. c #D36C5C",
"k. c #DB7358",
"l. c #E16A42",
"z. c #D17661",
"x. c #DB7362",
"c. c #DB7B64",
"v. c #D97966",
"b. c #E37765",
"n. c #7AB055",
"m. c #4D9262",
"M. c #DE865E",
"N. c #E3865A",
"B. c #E4895D",
"V. c #CE8766",
"C. c #DB8569",
"Z. c #DE936E",
"A. c #DF8A70",
"S. c #DF9973",
"D. c #E28D6C",
"F. c #E0966F",
"G. c #E6986E",
"H. c #E19571",
"J. c #E19A72",
"K. c #E39C7C",
"L. c #E5A379",
"P. c #E4A47A",
"I. c #E5A87E",
"U. c #092682",
"Y. c #0A2986",
"T. c #102982",
"R. c #102C8C",
"E. c #0C2D97",
"W. c #11329A",
"Q. c #0A35AB",
"!. c #1036A3",
"~. c #1039AB",
"^. c #133EB8",
"/. c #1440BD",
"(. c #745693",
"). c #706886",
"_. c #726E8B",
"`. c #73759B",
"'. c #7969A6",
"]. c #1643C4",
"[. c #1747CC",
"{. c #1547D6",
"}. c #1849D2",
"|. c #845BAD",
" X c #865EB0",
".X c #926FB6",
"XX c #976CC2",
"oX c #B37AEC",
"OX c #7680B8",
"+X c #828382",
"@X c #AF9A9A",
"#X c #BABABA",
"$X c #DCB68A",
"%X c #E8AA83",
"&X c #E8B387",
"*X c #EAB589",
"=X c #ECBB8E",
"-X c #EDBE90",
";X c #E4B0AD",
":X c #EFC495",
">X c #EEC99C",
",X c #F0C696",
"<X c #F1CA99",
"1X c #F8CE9A",
"2X c #F7D09C",
"3X c #C0C0BF",
"4X c #F3D7A6",
"5X c #F7EAB4",
"6X c #BFB3CC",
"7X c #BD83F7",
"8X c #C2BFC5",
"9X c #C188FC",
"0X c #C998FB",
"qX c #D5AAFF",
"wX c #D4B1F8",
"eX c #D2D2D0",
"rX c #DEC2FB",
"tX c #E5CEFC",
"yX c #EAD9FB",
"uX c #F7EAEF",
"iX c #F8F5FB",
"pX c #FFFFFF",
/* pixels */
"m.m.m.m.m.m.m.m.m.m.m.m.m.m.m.m.m.m.m.m.m.m.m.m.m.m.m.m.m.m.m.m.m.m.m.m.m.m.m.m.m.m.m.m.m.m.m.m.m.m.m.m.m.m.m.m.m.m.m.m.m.m.m.m.",
"m.m.m.m.m.m.m.m.m.m.m.m.m.m.m.m.m.m.m.m.m.m.m.m.m.m.m.m.m.m.m.m.m.m.m.m.m.m.m.          m.m.m.m.m.m.m.m.m.m.m.m.m.m.m.m.m.m.m.m.",
"m.m.m.m.m.m.m.m.m.m.m.m.m.m.m.m.m.m.m.m.m.m.m.m.m.m.m.m.m.m.m.m.m.m.m.m.m.m.@ b B +X5   m.m.n n m.m.m.m.m.m.m.m.m.m.m.m.m.m.m.m.",
"m.m.m.m.m.m.m.m.m.m.m.m.m.m.m.m.m.m.m.m.m.m.m.m.m.m.m.m.m.m.m.              @ oXqXpXV   m.m.n n m.m.m.m.m.m.m.m.m.m.m.m.m.m.m.m.",
"m.m.m.m.m.m.m.m.m.m.m.m.m.m.m.m.m.m.m.m.m.m.m.m.m.m.m.m.m.m.m.@ |..X#X#X#X#X8XyXtXqXB   n n m.m.n n m.m.m.m.m.m.m.m.m.m.m.m.m.m.",
"m.m.m.m.m.m.m.m.m.m.m.m.m.m.m.m.m.m.m.m.m.m.m.m.m.m.m.m.m.m.m.$ oXwXpXpXpXpXpXpXyXoXb   n n m.m.n n m.m.m.m.m.m.m.m.m.m.m.m.m.m.",
"m.m.m.m.m.m.m.m.m.m.m.m.m.m.m.m.m.m.m.m.m.m.m.m.m.m.m.m.m.m.m.m.X M pXpXpXpXiX0X.X@ @ m.m.m.n n m.m.m.m.m.m.m.m.m.m.m.m.m.m.m.m.",
"m.m.m.m.m.m.m.m.m.m.m.m.m.m.m.m.m.m.m.m.m.m.m.m.m.m.m.m.m.m.m.m.  m pXpXpXiXyX9X X  m.m.m.m.n n m.m.m.m.m.m.m.m.m.m.m.m.m.m.m.m.",
"m.m.m.m.m.m.m.m.m.m.m.m.m.m.m.m.m.m.m.m.m.m.m.m.m.m.m.m.m.m.m.m.  m pXpXpX0X7X9X X  m.m.m.m.m.m.m.m.m.m.m.m.m.m.m.m.m.m.m.m.m.m.",
"m.m.m.m.m.m.m.m.m.m.m.m.m.m.m.m.m.m.m.m.m.m.m.m.m.m.m.m.m.m.m.m.  m pXyXrX0X7X9X X  m.m.m.m.m.m.m.m.m.m.m.m.m.m.m.m.m.m.m.m.m.m.",
"m.m.m.m.m.m.m.m.m.m.m.m.m.m.m.m.m.m.m.m.m.m.m.m.m.m.m.m.m.m.m.m.  m pXwXoX7X9X9X X  m.m.m.m.m.m.m.m.m.m.m.m.m.m.m.m.m.m.m.m.m.m.",
"m.m.m.m.m.m.m.m.m.m.m.m.m.m.m.m.m.m.m.m.m.m.m.m.m.m.m.m.m.m.  % #X6XqX(.5 5 z 7X X  m.m.m.m.m.m.m.m.m.m.m.m.m.m.m.m.m.m.m.m.m.m.",
"m.m.m.m.m.m.m.m.m.m.m.m.m.m.m.m.m.m.m.m.m.m.m.m.m.m.m.m.m.m.@ 5 iXyXoXb     @ oX'.  m.m.m.m.m.m.m.m.m.m.m.m.m.m.m.m.m.m.m.m.m.m.",
"m.m.m.m.m.m.m.m.m.m.m.m.m.m.m.m.m.m.m.m.m.m.m.m.m.m.m.m.    3XuX0X.X@ @ m.m.m.$ @   m.m.m.m.m.m.m.m.m.m.m.m.m.m.m.m.m.m.m.m.m.m.",
"m.m.m.m.m.m.m.m.m.m.m.m.m.m.m.m.m.m.m.m.m.m.m.m.m.m.m.m.. . @X8XXX(.  n.m.m.m.m.m.m.m.m.m.m.m.m.m.m.m.m.m.m.m.m.m.m.m.m.m.m.m.m.",
"m.m.m.m.m.m.m.m.m.m.m.m.m.m.m.m.m.m.m.m.m.m.m.m.m.m.m.  + < .       n.n.m.m.m.m.m.m.m.m.m.m.m.m.m.m.m.m.m.m.m.m.m.m.m.m.m.m.m.m.",
"m.m.m.m.m.m.m.m.m.m.n.n.m.m.m.m.m.m.m.m.m.m.m.m.m.m.& 6 e r o     m.n.n.n.n.m.m.m.m.m.m.m.m.m.m.m.m.m.m.m.m.m.m.m.m.m.m.m.m.m.m.",
"m.m.m.m.m.m.m.m.m.m.n.n.m.m.m.m.m.m.m.m.m.m.m.m.m.  * L L L O   m.m.n.n.n.n.m.m.m.m.m.m.m.m.m.m.m.m.m.m.m.m.m.m.m.m.m.m.m.m.m.m.",
"m.m.m.m.m.m.m.m.m.m.n.n.m.m.m.m.m.m.              - : e : * m.m.m.m.n.n.n.n.m.m.m.                m.m.m.m.m.m.m.m.m.m.m.m.m.m.m.",
"m.m.m.m.m.m.m.m.m.m.n.n.m.m.m.m.m.m.. . .       . , , < O   m.m.m.m.n.n.n.n.m.m.m.. . . . . . . . . m.m.m.m.m.m.m.m.m.m.m.m.m.m.",
"m.m.m.m.m.m.m.m.m.m.n.n.n.n.m.m.  o Y ` 1.r   r H K r   m.m.m.m.m.m.m.m.n.n.n   = ! ( [ ,.,.[ ( ! 0   m.m.m.m.m.m.m.m.m.m.m.m.m.",
"m.m.m.m.m.m.m.m.m.m.n.n.n.n.m.m.* 6 ` ` &.e . r H t 8 * & m.m.m.m.m.m.m.n.n.n   = I U / =.3.;.;. .H * m.m.m.m.m.m.m.m.m.m.m.m.m.",
"m.m.m.m.m.m.m.                  I _ 4.R   + < < >   = [ 8                               / -.4.4.6.=.^ =   m.m.m.m.m.m.m.m.m.m.m.",
"m.m.m.m.m.m.m.    2 2 s g j 1   U ,.P y e e r - - r J } a 2 s d s g h h h g s d d d s 2 0 H H T :.=.{ =   m.m.m.m.m.m.m.m.m.m.m.",
"m.m.m.m.m.m.m.    j R.~./.{.g   &.1.  , 8.O.K o o 5.3.-.x Y.!.~.~.^.{.}.}.^.~.~.~.~.W.T.#     6 -.| -.=   m.m.m.m.m.m.m.m.m.m.m.",
"m.m.m.m.m.m.m.m.m.1 2 R.W.^.d   : e ..X.O.e * P #.5.3.-.x U.R.R.!.~.^.].}.].].]./.~.!.W.j g g f 6 I -.=   m.m.m.m.m.m.m.m.m.m.m.",
"m.m.m.m.m.m.m.m.m.  X k R.~.s     + 7.@.H 6   &.4.6.3.-.x U.l T.!.!.!./.}.}.}.}.].~.~.~.R.T.T.h   t } =   m.m.m.m.m.m.m.m.m.m.m.",
"m.m.m.m.m.m.m.m.m.m.m.X 2 R.2   o.@.T r   H 1.5.6.6.3.-.x U.T.T.T.R.~.~.~.].}.}.}.[.^.!.!.!.T.l k 3 o     m.m.m.m.m.m.m.m.m.m.m.",
"m.m.m.m.m.m.m.m.m.m.m.  1 j 3 - +.@.t e * T 4.6.6.3.,.' c U.T.T.l R.!.!.W.^././.].}./.~.~.!.T.T.T.d #     m.m.m.m.m.m.m.m.m.m.m.",
"m.m.m.m.m.m.m.m.m.m.m.m.m.  y 7.T H   6 4.6.6.6.6.-.Q U.U.U.U.U.U.U.k k k U.k k E.{.{.{.Q.!.U.U.U.U.Y.#   m.m.m.m.m.m.m.m.m.m.m.",
"n.n.m.m.m.m.m.m.m.m.m.m.- e ..@.r 8 8 J :.6.6.6.6.:.9.v v v v v x v _._._._._._.`.OXOXOX`.`._.).B B c $   m.m.m.m.m.m.m.m.m.m.m.",
"n.n.m.m.m.m.m.m.m.m.m.  w 8.O.K o o ^ { | :.6.6.6.6.6.4.4.4.4.4.| w.2X1X1X1X1X2X1X1X1X1X1X1X2X:XJ.e.~ =   m.m.m.m.m.m.m.m.m.m.m.",
"m.m.n.n.m.m.m.m.m.  O ..X.O.e *   O [ ;.3.6.6.6.6.6.6.6.6.6.6.6.| w.<X<X<X<X=Xe.l.A.%X<X<X=Xe.f.c.h.f.>   m.m.m.m.m.m.m.m.m.m.m.",
"m.m.n.n.m.m.m.m.m.  - 7.@.H ;     * } :.6.6.6.6.6.6.6.6.6.6.6.6.| w.<X<X<X<X=X] 9.j.K.<X,X=X] 9.j.x.x.>   m.m.m.m.m.m.m.m.m.m.m.",
"n.n.m.m.m.m.m.    o.@.T r .     J / 2.6.6.6.6.6.6.6.6.6.6.6.6.6.| w.<X<X<X<X>XuX;XS z.<X<X<XuX;XS d.H.&.U .   m.m.m.m.m.m.m.m.m.",
"n.n.m.m.m.m.m.o O +.@.t 6 # X   U { 2.6.6.6.6.6.6.6.6.6.6.6.3.3.<.r.<X<X<X<X>XeX@X9 a.1X<X>XeX@X9 u.P.0.' .   m.m.m.m.m.m.m.m.m.",
"m.m.m.m.m.m.  8 K L H   1 R.2   / -.6.6.6.6.6.6.6.6.6.6.6.6.-.;.F.P.<X<X,X<X$XX     p.1X<X$XX     N 2XC.g..   m.m.m.m.m.m.m.m.m.",
"m.m.m.m.m.& = t K r 6   # d 4 8 &.:.6.6.6.6.6.6.6.6.6.6.3.:.w.e.I.*X<X<X<X<X$X7 *   p.1X<X&X7 *   N 2XH.z..   m.m.m.m.m.m.m.m.m.",
"m.m.m.m.  ; T L K o         A [ 2.6.6.6.6.6.6.6.6.6.6.6.:.| N.L.,X<X<X<X<X<X*XG 9   p.1X<X=XG 9   N 2XP.V.X   m.m.m.m.m.m.m.m.m.",
"m.m.m.m.  o ; ; ; m.m.m.    H } 3.6.6.6.6.6.6.6.6.6.3.;.q.l.I.=X,X<X<X<X<X<X-Xd.E   p.1X<X-Xd.E   N 2XP.Z.y.a   m.m.m.m.m.m.m.m.",
"m.m.m.m.          m.m.m.m.  J -.6.6.6.6.6.6.6.6.6.6.>.| q.c.=X<X:X:X:X:X:X<X:Xb.y.  p.1X,X:Xc.y.  i.1XL.Z.b.y.  m.m.m.m.m.m.m.m.",
"m.m.m.m.m.m.m.m.m.m.m.m.m.  J -.6.6.6.6.6.6.6.6.6.6.3.| r.S.-X:Xc.c.c.A.J.-X:XJ.g.C a.<X,X:XJ.g.C a.1XA.x.x.y.  m.m.m.m.m.m.m.m.",
"m.m.m.m.m.m.m.m.m.m.m.m.m.  J | 3.6.6.6.6.6.6.6.6.6.3.| r.S.*X=XC.C.c.H.L.:X:XP.V.W V.<X<X:XP.V.W V.<XA.x.x.y.  m.m.m.m.m.m.m.m.",
"m.m.m.m.m.m.m.m.m.m.m.m.m.  A [ 2.6.6.6.6.6.6.6.6.6.3.| r.J.J.J.:X<X<X<X<X<X<X<X,X:X,X<X<X<X<X,X:X<X<XP.Z.x.y.  m.m.m.m.m.m.m.m.",
"m.m.m.m.m.m.m.m.m.m.m.m.m.  q ! =.>.6.6.6.6.6.6.6.6.3.| e.A.Z.J.&X*X*X*X*X:X<X<X<X<X<X<X<X<X<X<X<X=X&XJ.Z.x.y.  m.m.m.m.m.m.m.m.",
"m.m.m.m.m.m.m.m.m.m.m.m.m.  7 S { -.6.6.6.6.6.6.6.6.3.| q.x.Z.J.F.F.F.F.F.-X<X<X<X<X<X<X<X<X<X<X<X%XZ.J.F.b.y.  m.m.m.m.m.m.m.m.",
"m.m.m.m.m.m.m.m.m.m.m.m.m.m.& = ! { ;.:.6.6.6.6.6.:.;.| <.1.k.C.F.J.J.J.J.P.I.I.I.I.I.I.I.I.I.I.I.L.S.C.z.i u m.m.m.m.m.m.m.m.m.",
"m.m.m.m.m.m.m.m.m.m.m.m.m.m.    I ( } ;.6.6.6.6.6.-.-.-.} | f.x.Z.H.J.J.J.F.F.F.F.F.F.F.F.F.F.F.F.F.H.x.g..   m.m.m.m.m.m.m.m.m.",
"m.m.m.m.m.m.m.m.m.m.m.m.m.m.    A D _ { -.-.-.-.-.-.-.-.-.-.;.<.k.C.J.J.J.J.J.J.J.J.J.J.J.S.J.J.J.C.x.9.' .   m.m.m.m.m.m.m.m.m.",
"m.m.m.m.m.m.m.m.m.m.m.m.m.m.m.  q A ! _ } } -.-.-.-.-.-.-.-.-.;.f.k.B.B.B.B.B.B.B.B.M.z.M.M.M.M.M.k.d.R I .   m.m.m.m.m.m.m.m.m.",
"m.m.m.m.m.m.m.m.m.m.m.m.m.m.m.m.  o Z D _ { -.-.-.-.-.-.-.-.-.-.-.-.-.-.-.-.-.-.-.-.! Z ! ~ ~ ~ ~ F Z &   n.m.m.m.m.m.m.m.m.m.m.",
"m.m.m.m.m.m.m.m.m.m.m.m.m.m.m.m.  o Q Q Y _ { } -.-.-.-.-.-.-.-.-.-.-.-.-.-.} { [ ^ ' Q 0.0.l.l.l.0.%.0 8 m.m.m.m.m.m.m.m.m.m.m.",
"m.m.m.m.m.m.m.m.m.m.m.m.m.m.m.m.  + z.s.Z Y _ } -.-.-.-.-.-.-.-.-.-.-.-.-.-.} ( ! Z %.x.Z.J.,X<X<X&XJ.*.! .   m.m.m.m.m.m.m.m.m.",
"m.m.m.m.m.m.m.m.m.m.m.m.m.m.m.m.  + j.h.s.Q D Y Y [ [ [ [ [ [ [ [ [ [ [ [ [ ( F R s.c.&X*X=X4X5X5X<X*XN.d..   m.m.m.m.m.m.m.m.m.",
"m.m.m.m.m.m.m.m.m.m.m.m.m.m.m.m.  + g.j.x.Q S S S ^ ^ ^ ^ ) ) ) ) ) ) ) ) ) ^ Z W x.%X<X<X<X5X5X5X4X<XP.V..   m.m.m.m.m.m.m.m.m.",
"m.m.m.m.m.m.m.m.m.m.m.m.m.m.m.m.m.m.O i x.c.C.h.d.G D S ! _ _ _ _ _ _ _ _ _ ^ Z Q F.&X<X<X<X<X<X<X<X<XA.g..   m.m.m.m.m.m.m.m.m.",
"m.m.m.m.m.m.m.m.m.m.m.m.m.m.m.m.m.m.  u u.z.F.c.j.W W G F U U U U U U U U ! ! G %.J.&X<X<X,X:X-X=X=X=Xc.d..   m.m.m.m.m.m.m.m.m.",
"m.m.m.m.m.m.m.m.m.m.m.m.m.m.m.m.m.m.m.m.  $.b.H.J.J.D.b.a                 9 G h.c.F.&X<X<X:XJ.A.x.x.x.*.! .   m.m.m.m.m.m.m.m.m.",
"m.m.m.m.m.m.m.m.m.m.m.m.m.m.m.m.m.m.m.m.  p $.t.t.t.t.$.u                 A R c.C.F.I.*X%X%XA.C.x.f.0.P t . m.m.m.m.m.m.m.m.m.m.",
"m.m.m.m.m.m.m.m.m.m.m.m.m.m.m.m.m.m.m.m.m.              m.m.n.n.m.m.m.    I  .G.J.J.J.J.c.x.x.x.x.0.~ *   m.m.m.m.m.m.m.m.m.m.m.",
"m.m.m.m.m.m.m.m.m.m.m.m.m.m.m.m.m.m.m.m.m.m.m.m.m.m.m.m.n.n.m.m.n.n.m.m.m.6 7 p p p p p i u u u i w 8 & m.m.m.m.m.m.m.m.m.m.m.m.",
"m.m.m.m.m.m.m.m.m.m.m.m.m.m.m.m.m.m.m.m.m.m.m.m.m.m.m.m.n.n.m.m.n.n.m.m.m.                            m.m.m.m.m.m.m.m.m.m.m.m.m.",
"m.m.m.m.m.m.m.m.m.m.m.m.m.m.m.m.m.m.m.m.m.m.m.m.m.m.m.m.m.m.m.m.m.m.m.m.m.m.m.m.m.m.m.m.m.m.m.m.m.m.m.m.m.m.m.m.m.m.m.m.m.m.m.m.",
"m.m.m.m.m.m.m.m.m.m.m.m.m.m.m.m.m.m.m.m.m.m.m.m.m.m.m.m.m.m.m.m.m.m.m.m.m.m.m.m.m.m.m.m.m.m.m.m.m.m.m.m.m.m.m.m.m.m.m.m.m.m.m.m."
};
