/* XPM */
static char *_3f4f9393b2f4dc0dee7d421072ec92aDMeeQgV9LtoaeRYR[] = {
/* columns rows colors chars-per-pixel */
"64 64 221 2 ",
"   c #000000",
".  c #0D0401",
"X  c #0A080A",
"o  c #150601",
"O  c #1A0B05",
"+  c #1D1106",
"@  c #0E0A12",
"#  c #01081B",
"$  c #130B16",
"%  c #191919",
"&  c #270702",
"*  c #2C0C01",
"=  c #380C02",
"-  c #291605",
";  c #331100",
":  c #391907",
">  c #381A14",
",  c #3C210A",
"<  c #382211",
"1  c #050D28",
"2  c #051138",
"3  c #121430",
"4  c #3A1520",
"5  c #302B36",
"6  c #481504",
"7  c #4E120B",
"8  c #571602",
"9  c #750809",
"0  c #681C0A",
"q  c #711108",
"w  c #47260F",
"e  c #5A2504",
"r  c #662504",
"t  c #782601",
"y  c #763805",
"u  c #4D2922",
"i  c #532B25",
"p  c #543629",
"a  c #6A302B",
"s  c #081747",
"d  c #07194B",
"f  c #1D1A41",
"g  c #091C55",
"h  c #0B205E",
"j  c #0C2269",
"k  c #0B247C",
"l  c #10287E",
"z  c #412E55",
"x  c #763248",
"c  c #652D50",
"v  c #753D53",
"b  c #543A6F",
"n  c #3E734E",
"m  c #4D4D4C",
"M  c #58545B",
"N  c #7D684F",
"B  c #674F73",
"V  c #78606B",
"C  c #8D0A0B",
"Z  c #940C0D",
"A  c #851709",
"S  c #9C1212",
"D  c #AA180D",
"F  c #B41D0B",
"G  c #A21B18",
"H  c #882A03",
"J  c #942804",
"K  c #953100",
"L  c #993302",
"P  c #932F11",
"I  c #AA2705",
"U  c #B52906",
"Y  c #B92408",
"T  c #A23903",
"R  c #B02F15",
"E  c #8C3A32",
"W  c #A72B25",
"Q  c #B1352B",
"!  c #C72909",
"~  c #D92D04",
"^  c #D42E08",
"/  c #C83304",
"(  c #DA3206",
")  c #D73008",
"_  c #DB3108",
"`  c #D63909",
"'  c #C73616",
"]  c #DB3D16",
"[  c #E43605",
"{  c #E63805",
"}  c #F43E01",
"|  c #F93E00",
" . c #E43D12",
".. c #874700",
"X. c #914A00",
"o. c #955100",
"O. c #AB4800",
"+. c #A65500",
"@. c #B45800",
"#. c #B74112",
"$. c #85453B",
"%. c #B64337",
"&. c #D14413",
"*. c #DA471C",
"=. c #ED470D",
"-. c #F94101",
";. c #F54508",
":. c #F94C0B",
">. c #F9500F",
",. c #E44A13",
"<. c #F24B14",
"1. c #E55216",
"2. c #F55315",
"3. c #F85414",
"4. c #FE5916",
"5. c #F45718",
"6. c #F85818",
"7. c #C66B00",
"8. c #D47400",
"9. c #D44929",
"0. c #DA5534",
"q. c #E9582E",
"w. c #F6672C",
"e. c #E6683A",
"r. c #ED733E",
"t. c #8A5B44",
"y. c #9E5246",
"u. c #AB5849",
"i. c #80684F",
"p. c #816B51",
"a. c #BC7056",
"s. c #CA5548",
"d. c #C7584A",
"f. c #DD6549",
"g. c #C76956",
"h. c #D46857",
"j. c #D36C5C",
"k. c #DB7358",
"l. c #E16A42",
"z. c #D17661",
"x. c #DB7362",
"c. c #DB7B64",
"v. c #D97966",
"b. c #E37765",
"n. c #7AB055",
"m. c #4D9262",
"M. c #DE865E",
"N. c #E3865A",
"B. c #E4895D",
"V. c #CE8766",
"C. c #DB8569",
"Z. c #DE936E",
"A. c #DF8A70",
"S. c #DF9973",
"D. c #E28D6C",
"F. c #E0966F",
"G. c #E6986E",
"H. c #E19571",
"J. c #E19A72",
"K. c #E39C7C",
"L. c #E5A379",
"P. c #E4A47A",
"I. c #E5A87E",
"U. c #092682",
"Y. c #0A2986",
"T. c #102982",
"R. c #102C8C",
"E. c #0C2D97",
"W. c #11329A",
"Q. c #0A35AB",
"!. c #1036A3",
"~. c #1039AB",
"^. c #133EB8",
"/. c #1440BD",
"(. c #745693",
"). c #706886",
"_. c #726E8B",
"`. c #73759B",
"'. c #7969A6",
"]. c #1643C4",
"[. c #1747CC",
"{. c #1547D6",
"}. c #1849D2",
"|. c #845BAD",
" X c #865EB0",
".X c #926FB6",
"XX c #976CC2",
"oX c #B37AEC",
"OX c #7680B8",
"+X c #828382",
"@X c #AF9A9A",
"#X c #BABABA",
"$X c #DCB68A",
"%X c #E8AA83",
"&X c #E8B387",
"*X c #EAB589",
"=X c #ECBB8E",
"-X c #EDBE90",
";X c #E4B0AD",
":X c #EFC495",
">X c #EEC99C",
",X c #F0C696",
"<X c #F1CA99",
"1X c #F8CE9A",
"2X c #F7D09C",
"3X c #C0C0BF",
"4X c #F3D7A6",
"5X c #F7EAB4",
"6X c #BD83F7",
"7X c #C2BFC5",
"8X c #C188FC",
"9X c #C998FB",
"0X c #D5AAFF",
"qX c #D4B1F8",
"wX c #D2D2D0",
"eX c #DEC2FB",
"rX c #E5CEFC",
"tX c #EAD9FB",
"yX c #F7EAEF",
"uX c #F8F5FB",
"iX c #FFFFFF",
/* pixels */
"m.m.m.m.m.m.m.m.m.m.m.m.m.m.m.m.m.m.m.m.m.m.m.m.m.m.m.m.m.m.m.m.m.m.m.m.m.m.m.m.m.m.m.m.m.m.m.m.m.m.m.m.m.m.m.m.m.m.m.m.m.m.m.m.",
"m.m.m.m.m.m.m.m.m.m.m.m.m.m.m.m.m.m.m.m.          m.m.m.m.m.m.m.m.m.m.m.m.m.m.m.m.m.m.m.m.m.m.m.m.m.m.m.m.m.m.m.m.m.m.m.m.m.m.m.",
"m.m.m.m.m.m.m.m.m.m.m.m.m.m.m.m.m.m.m.m.  5 +XB b $ m.m.m.m.m.m.m.m.m.m.m.m.m.m.m.m.m.m.m.m.n n m.m.m.m.m.m.m.m.m.m.m.m.m.m.m.m.",
"m.m.m.m.m.m.m.m.m.m.m.m.m.m.m.m.m.m.m.m.  V iX0XoX@               m.m.m.m.m.m.m.m.m.m.m.m.m.n n m.m.m.m.m.m.m.m.m.m.m.m.m.m.m.m.",
"m.m.m.m.m.m.m.m.m.m.m.m.m.m.m.m.m.m.m.m.  B 0XrXtX7X#X#X#X#X.X|.@ m.m.m.m.m.m.m.m.m.m.m.n n m.m.n n m.m.m.m.m.m.m.m.m.m.m.m.m.m.",
"m.m.m.m.m.m.m.m.m.m.m.m.m.m.m.m.m.m.m.m.  b oXrXiXiXiXiXiXiXqXoX$ m.m.m.m.m.m.m.m.m.m.m.n n m.m.n n m.m.m.m.m.m.m.m.m.m.m.m.m.m.",
"m.m.m.m.m.m.m.m.m.m.m.m.m.m.m.m.m.m.m.m.m.@ @ .X9XuXiXiXiXiXM X m.m.m.m.m.m.m.m.m.m.m.m.m.m.n n m.m.m.m.m.m.m.m.m.m.m.m.m.m.m.m.",
"m.m.m.m.m.m.m.m.m.m.m.m.m.m.m.m.m.m.m.m.m.m.   X8XtXuXiXiXiXm   m.m.m.m.m.m.m.m.m.m.m.m.m.m.n n m.m.m.m.m.m.m.m.m.m.m.m.m.m.m.m.",
"m.m.m.m.m.m.m.m.m.m.m.m.m.m.m.m.m.m.m.m.m.m.   X8X6X9XiXiXiXm   m.m.m.m.m.m.m.m.m.m.m.m.m.m.m.m.m.m.m.m.m.m.m.m.m.m.m.m.m.m.m.m.",
"m.m.m.m.m.m.m.m.m.m.m.m.m.m.m.m.m.m.m.m.m.m.   X8X6X9XeXtXiXm   m.m.m.m.m.m.m.m.m.m.m.m.m.m.m.m.m.m.m.m.m.m.m.m.m.m.m.m.m.m.m.m.",
"m.m.m.m.m.m.m.m.m.m.m.m.m.m.m.m.m.m.m.m.m.m.   X8X8X6XoXqXiXm   m.m.m.m.m.m.m.m.m.m.m.m.m.m.m.m.m.m.m.m.m.m.m.m.m.m.m.m.m.m.m.m.",
"m.m.m.m.m.m.m.m.m.m.m.m.m.m.m.m.m.m.m.m.m.m.   X6Xz 5 5 (.0X7X#X%   m.m.m.m.m.m.m.m.m.m.m.m.m.m.m.m.m.m.m.m.m.m.m.m.m.m.m.m.m.m.",
"m.m.m.m.m.m.m.m.m.m.m.m.m.m.m.m.m.m.m.m.m.m.  '.oX@     b oXtXuX5 @ m.m.m.m.m.m.m.m.m.m.m.m.m.m.m.m.m.m.m.m.m.m.m.m.m.m.m.m.m.m.",
"m.m.m.m.m.m.m.m.m.m.m.m.m.m.m.m.m.m.m.m.m.m.  @ $ m.m.m.$ @ .X9XyX3X    m.m.m.m.m.m.m.m.m.m.m.m.m.m.m.m.m.m.m.m.m.m.m.m.m.m.m.m.",
"m.m.m.m.m.m.m.m.m.m.m.m.m.m.m.m.m.m.m.m.m.m.m.m.m.m.m.m.m.  (.XX7X@XX . m.m.m.m.m.m.m.m.m.m.m.m.m.m.m.m.m.m.m.m.m.m.m.m.m.m.m.m.",
"m.m.m.m.m.m.m.m.m.m.m.m.m.m.m.m.m.m.m.m.m.m.m.m.m.m.m.m.m.m.      . < +   m.m.m.m.m.m.m.m.m.m.m.m.m.m.m.m.m.m.m.m.m.m.m.m.m.m.m.",
"m.m.m.m.m.m.m.m.m.m.n.n.m.m.m.m.m.m.m.m.m.m.m.m.m.m.m.m.m.m.m.    o r e 6 & m.m.m.m.m.m.m.m.m.m.m.m.m.m.m.m.m.m.m.m.m.m.m.m.m.m.",
"m.m.m.m.m.m.m.m.m.m.n.n.m.m.m.m.m.m.m.m.m.m.m.m.m.m.m.m.m.m.m.m.  O L L L *   m.m.m.m.m.m.m.m.m.m.m.m.m.m.m.m.m.m.m.m.m.m.m.m.m.",
"m.m.m.m.m.m.m.m.m.m.n.n.m.m.m.                m.m.m.m.m.m.m.m.m.m.m.* : e : - .             m.m.m.m.m.m.m.m.m.m.m.m.m.m.m.m.m.m.",
"m.m.m.m.m.m.m.m.m.m.n.n.m.m.. . . . . . . . . m.m.m.m.m.m.m.m.m.m.m.  O < < < .       . . . m.m.m.m.m.m.m.m.m.m.m.m.m.m.m.m.m.m.",
"m.m.m.m.m.m.m.m.m.m.n.n.n.  0 ! ( [ ,.,.{ ( ! =   m.m.m.m.m.m.m.m.m.m.m.  r K H r   r 1.` U o   m.m.m.m.m.m.m.m.m.m.m.m.m.m.m.m.",
"m.m.m.m.m.m.m.m.m.m.n.n.n.& H  .;.;.3.=./ U I *   m.m.m.m.m.m.m.m.m.m.& * 8 t H r . e &.` ` 6 & m.m.m.m.m.m.m.m.m.m.m.m.m.m.m.m.",
"m.m.m.m.m.m.m.m.m.m.n.  = ^ =.6.4.4.-./                               8 [ =   > < < +   R 4._ I                   m.m.m.m.m.m.m.",
"m.m.m.m.m.m.m.m.m.m.n.  = { ;.:.T H H 0 2 s d d d d g h h h g d d d 2 a } J r - - r e e y P ,.U   1 j g d 2 2     m.m.m.m.m.m.m.",
"m.m.m.m.m.m.m.m.m.m.m.  = -.-.-.6     # T.W.~.~.~.~.^.}.}.{.^.~.~.!.Y.x -.3.5.o o K O.8.,   1.&.  g {./.~.R.j     m.m.m.m.m.m.m.",
"m.m.m.m.m.m.m.m.m.m.m.  = -.I 6 f g g j W.!.~./.].].].}.].^.~.!.R.R.U.x -.3.5.#.P * e O.X...e :   d ^.W.R.2 1 m.m.m.m.m.m.m.m.m.",
"m.m.m.m.m.m.m.m.m.m.m.  = } t   h T.T.R.~.~.~.].}.}.}.[./.!.!.!.T.l U.x -.3.6.4.&.  6 H @.7.+     s ~.R.k X   m.m.m.m.m.m.m.m.m.",
"m.m.m.m.m.m.m.m.m.m.m.    o 3 k l T.!.!.!.^.[.[.}.}.[.~.~.~.R.T.T.T.U.x -.3.6.6.5.1.H   r L @.o.  2 R.2 X m.m.m.m.m.m.m.m.m.m.m.",
"m.m.m.m.m.m.m.m.m.m.m.    # d T.T.T.!.~.~./.}.]./.].^.!.!.!.R.l T.T.U.c ' ,.3.6.6.4.T * e t @.+.- 3 j 1   m.m.m.m.m.m.m.m.m.m.m.",
"m.m.m.m.m.m.m.m.m.m.m.  # Y.U.U.U.U.Q.Q.{.{.{.E.k U.U.k k k U.U.U.U.U.U.U.Q -.3.6.6.6.4.6   H T 7.y   m.m.m.m.m.m.m.m.m.m.m.m.m.",
"n.n.m.m.m.m.m.m.m.m.m.  $ c B B )._.`.`.OXOXOX`._._._._._._.v x v v v v v 9.:.3.6.6.3.:.J 8 8 r @...e - m.m.m.m.m.m.m.m.m.m.m.m.",
"n.n.m.m.m.m.m.m.m.m.m.  = ~ e.J.,X2X1X1X1X1X1X1X2X1X1X1X1X2Xw.| 4.4.4.4.4.6.6.6.6.6.:.| [ ^ o o K O.8.w   m.m.m.m.m.m.m.m.m.m.m.",
"m.m.n.n.m.m.m.m.m.m.m.  > f.h.c.f.e.=X<X<X%XA.l.e.=X<X<X<X<Xw.| 3.6.6.6.6.6.6.6.6.6.3.3.;.[ O   * e O.X...O   m.m.m.m.m.m.m.m.m.",
"m.m.n.n.m.m.m.m.m.m.m.  > x.j.j.9.] =X<X<XK.h.9.] =X,X,X<X<Xw.| 3.6.6.6.6.6.6.6.6.6.6.6.:.} &     ; K @.7.- . m.m.m.m.m.m.m.m.m.",
"n.n.m.m.m.m.m.m.m.  . U &.H.d.S ;XyX<X<X<Xz.S ;XyX>X,X,X<X<Xw.| 3.6.6.6.6.6.6.6.6.6.6.6.3.6./ J     . r T @.o.    m.m.m.m.m.m.m.",
"n.n.m.m.m.m.m.m.m.  . ' 0.I.u.9 @XwX>X<X1Xa.9 @XwX>X<X<X<X<Xr.<.3.3.6.6.6.6.6.6.6.6.6.6.6.6.{ U   X # 6 t @.+.O o m.m.m.m.m.m.m.",
"m.m.m.m.m.m.m.m.m.  X g.C.2XN     X $X<X1Xp.    X $X<X<X<X<XP.F.;.-.6.6.6.6.6.6.6.6.6.6.6.3.-./   2 R.1   H L K 8   m.m.m.m.m.m.",
"m.m.m.m.m.m.m.m.m.  X z.H.2XN   & 7 &X<X1Xp.  & 7 $X<X<X<X<X*XI.e.w.:.3.6.3.6.6.6.6.6.6.6.3.:.&.8 4 d #   6 r K t = & m.m.m.m.m.",
"m.m.m.m.m.m.m.m.m.  X V.P.2XN   9 G =X<X1XN   9 G *X<X<X<X<X<X,XL.N.| :.6.6.6.6.6.6.6.6.6.6.6.2.[ A         o K L T ;   m.m.m.m.",
"m.m.m.m.m.m.m.m.  a y.Z.P.2XN   E d.-X<X1Xp.  E d.-X<X<X<X<X<X,X=XI.l.q.;.3.6.6.6.6.6.6.6.6.6.2.} H     m.m.m.; ; ; o   m.m.m.m.",
"m.m.m.m.m.m.m.m.  y.b.Z.L.1Xi.  y.c.:X<X1Xp.  y.b.:X<X:X:X:X:X:X<X*Xx.q.| 3.6.6.6.6.6.6.6.6.6.3.-.J   m.m.m.m.          m.m.m.m.",
"m.m.m.m.m.m.m.m.  y.x.x.A.1Xa.C g.J.:X<X<Xa.C g.H.:X-XJ.Z.c.c.c.:X-XS.r.| 3.6.6.6.6.6.6.6.6.6.3.-.J   m.m.m.m.m.m.m.m.m.m.m.m.m.",
"m.m.m.m.m.m.m.m.  y.x.x.A.<XV.W V.P.:X<X<XV.W V.P.:X:XL.H.c.C.C.=X*XS.r.| 3.6.6.6.6.6.6.6.6.6.2.| J   m.m.m.m.m.m.m.m.m.m.m.m.m.",
"m.m.m.m.m.m.m.m.  y.x.Z.P.<X<X:X,X<X<X<X<X,X:X,X<X<X<X<X<X<X<X:XJ.J.J.r.| 3.6.6.6.6.6.6.6.6.6.2.[ A   m.m.m.m.m.m.m.m.m.m.m.m.m.",
"m.m.m.m.m.m.m.m.  y.x.Z.J.&X=X<X<X<X<X<X<X<X<X<X<X<X:X*X*X*X*X&XJ.S.A.e.| 3.6.6.6.6.6.6.6.6.>.=.! q   m.m.m.m.m.m.m.m.m.m.m.m.m.",
"m.m.m.m.m.m.m.m.  y.b.F.F.Z.%X<X<X<X<X<X<X<X<X<X<X<X-XF.F.F.F.F.F.Z.x.q.| 3.6.6.6.6.6.6.6.6.-.{ S 7   m.m.m.m.m.m.m.m.m.m.m.m.m.",
"m.m.m.m.m.m.m.m.m.u i z.C.J.L.I.I.I.I.I.I.I.I.I.I.I.P.J.J.J.J.F.C.k.5.<.| ;.:.3.6.6.6.6.:.;.{ ! = & m.m.m.m.m.m.m.m.m.m.m.m.m.m.",
"m.m.m.m.m.m.m.m.m.  . g.x.H.F.F.F.F.F.F.F.F.F.F.F.F.F.J.J.J.H.Z.x.f.| | -.-.-.3.3.3.3.6.;.} ( I     m.m.m.m.m.m.m.m.m.m.m.m.m.m.",
"m.m.m.m.m.m.m.m.m.  . ' 9.x.C.J.J.J.J.J.J.J.F.J.J.J.J.J.J.J.C.k.<.;.-.-.-.-.-.-.-.-.-.-.{ ( D A     m.m.n.n.m.m.m.m.m.m.m.m.m.m.",
"m.m.m.m.m.m.m.m.m.  . I R d.k.M.M.B.M.M.V.M.B.B.B.B.B.B.B.B.k.f.;.-.-.-.-.-.-.-.-.-.} } ( ! A q   m.m.m.n.n.m.m.m.m.m.m.m.m.m.m.",
"m.m.m.m.m.m.m.m.m.m.m.  & Z F ~ ~ ~ ~ ! Z ! -.-.-.-.-.-.-.-.-.-.-.} } -.-.-.-.-.-.-.{ _ D Z o   m.m.n.n.n.n.m.m.m.m.m.m.m.m.m.m.",
"m.m.m.m.m.m.m.m.m.m.m.8 0 %.0.l.l.l.0.0.Q ' ^ [ { } -.-.-.-.-.-.-.-.-.-.-.-.-.-.} { ) Y Q Q o   m.m.n.n.n.n.m.m.m.m.m.m.m.m.m.m.",
"m.m.m.m.m.m.m.m.m.  . ! *.J.&X<X<X<XJ.Z.x.%.C ! ( } -.-.-.-.-.-.-.-.-.-.-.-.-.-.} _ Y C s.z.+   m.m.n.n.n.n.m.m.m.m.m.m.m.m.m.m.",
"m.m.m.m.m.m.m.m.m.  X g.N.*X<X5X5X4X=X*X%Xc.s.R F ( [ [ [ [ [ [ [ [ [ [ [ [ [ Y Y D Q s.h.j.+   m.m.n.n.n.n.m.m.m.m.m.m.m.m.m.m.",
"m.m.m.m.m.m.m.m.m.  X V.I.<X4X5X5X5X<X<X<X%Xx.W Z ^ ) ) ) ) ) ) ) ) ) ^ ^ ^ ^ S S Z Q x.j.g.+   m.m.n.n.m.m.m.m.m.m.m.m.m.m.m.m.",
"m.m.m.m.m.m.m.m.m.  X g.A.<X<X<X<X<X<X<X<X%XZ.Q Z ^ _ _ _ _ _ _ _ _ _ ! S D G d.h.C.c.x.i O m.m.m.m.n.n.m.m.m.m.m.m.m.m.m.m.m.m.",
"m.m.m.m.m.m.m.m.m.  X d.c.=X=X=X-X:X,X<X<X&XJ.%.G ! ! U U U U U U U U F G W W j.c.F.z.u.u   m.m.m.m.m.m.m.m.m.m.m.m.m.m.m.m.m.m.",
"m.m.m.m.m.m.m.m.m.  . ! *.x.x.x.Z.J.:X<X<X&XF.c.h.G 9                 a b.D.J.J.H.b.$.  m.m.m.m.m.m.m.m.m.m.m.m.m.m.m.m.m.m.m.m.",
"m.m.m.m.m.m.m.m.m.m.. t P 0.f.x.C.Z.%X%X*XI.F.C.c.R A                 u $.t.t.t.t.$.p   m.m.m.m.m.m.m.m.m.m.m.m.m.m.m.m.m.m.m.m.",
"m.m.m.m.m.m.m.m.m.m.m.  * ~ 0.x.x.x.x.c.J.J.J.J.G. .I     m.n.n.m.m.m.m.              m.m.m.m.m.m.m.m.m.m.m.m.m.m.m.m.m.m.m.m.m.",
"m.m.m.m.m.m.m.m.m.m.m.m.& 8 w i u u u i p p p p p 7 6 m.n.n.m.m.n.n.m.m.m.m.m.m.m.m.m.m.m.m.m.m.m.m.m.m.m.m.m.m.m.m.m.m.m.m.m.m.",
"m.m.m.m.m.m.m.m.m.m.m.m.m.                            m.n.n.m.m.n.n.m.m.m.m.m.m.m.m.m.m.m.m.m.m.m.m.m.m.m.m.m.m.m.m.m.m.m.m.m.m.",
"m.m.m.m.m.m.m.m.m.m.m.m.m.m.m.m.m.m.m.m.m.m.m.m.m.m.m.m.m.m.m.m.m.m.m.m.m.m.m.m.m.m.m.m.m.m.m.m.m.m.m.m.m.m.m.m.m.m.m.m.m.m.m.m.",
"m.m.m.m.m.m.m.m.m.m.m.m.m.m.m.m.m.m.m.m.m.m.m.m.m.m.m.m.m.m.m.m.m.m.m.m.m.m.m.m.m.m.m.m.m.m.m.m.m.m.m.m.m.m.m.m.m.m.m.m.m.m.m.m."
};
