/* XPM */
static char *d32c6578a4a94907e7405a18d7dd47567lMue8hzVhH5cOzz[] = {
/* columns rows colors chars-per-pixel */
"64 64 13 1 ",
"  c black",
". c #631010",
"X c #3E734E",
"o c #B50029",
"O c #D60052",
"+ c #DE4973",
"@ c #7AB055",
"# c #4D9262",
"$ c #FF1884",
"% c #F771A5",
"& c #FF92C6",
"* c #FFA2DE",
"= c white",
/* pixels */
"################################################################",
"################################################################",
"##############################################XX################",
"##############################################XX################",
"############################################XX##XX##############",
"############################################XX##XX##############",
"##############################################XX################",
"##############################################XX################",
"################################################################",
"################################################################",
"################################################################",
"################################################################",
"################################################################",
"################################################################",
"##################################@@############################",
"##########################            ##########################",
"##########@@##############            ##########################",
"##########@@##########      ooOOOOoo      ######################",
"##########@@##########      ooOOOOoo      @@####################",
"##########@@########    ++%%********%%++    ####################",
"##########@@@@######    ++%%********%%++    ####################",
"##########@@@@####  ..&&****************&&    ##################",
"##########@@@@####  ..&&****************&&    ##################",
"##########@@@@####  %%**%%oo****oo********%%  ##################",
"############@@####  %%**%%oo****oo********%%  ##################",
"############@@##  oo****..==**..==**********    ################",
"################  oo****..==**..==**********    ################",
"################  ++****  ++**  oo**********%%    ##############",
"################  ++****  ++**  oo**********%%    ##############",
"##############    &&****  %%**  OO********&&**++  ##############",
"@@############    &&****  %%**  OO********&&**++  ##############",
"@@##########  ..&&**&&$$  ****  %%$$$$**********..  ############",
"##@@########  ..&&**&&$$  ****  %%$$$$**********..  ############",
"##@@########  **&&&&******************************  ############",
"@@##########  **&&&&******************************  ############",
"@@##########  %%%%&&******++************&&%%&&**%%  ############",
"############  %%%%&&******++************&&%%&&**%%  ############",
"############  ..++++******************&&%%%%%%%%oo  ############",
"############  ..++++******************&&%%%%%%%%oo  ############",
"##############  ..oo%%**************&&%%%%++..    ##############",
"##############  ..oo%%**************&&%%%%++..    ##############",
"################  oo++%%%%&&&&&&%%%%%%%%++OOOO  ################",
"################  oo++%%%%&&&&&&%%%%%%%%++OOOO  ################",
"##############  $$$$$$oo%%%%%%%%%%%%++$$$$$$==$$  ##############",
"##############  $$$$$$oo%%%%%%%%%%%%++$$$$$$==$$  ##############",
"############  ..$$$$$$OOoo++%%%%%%++OO$$$$$$$$$$oo  ############",
"############  ..$$$$$$OOoo++%%%%%%++OO$$$$$$$$$$oo  ############",
"############  ..ooOOOOOOoooooo    ooOOOOOOOOOOOOoo  ############",
"############  ..ooOOOOOOoooooo    ooOOOOOOOOOOOOoo  @@##########",
"##############                ####                ##@@##########",
"##############                ####                @@@@##########",
"##################################################@@@@##########",
"##################################################@@@@##########",
"##################################################@@@@##########",
"##################################################@@############",
"##################################################@@############",
"################################################################",
"################################################################",
"##############################@@################################",
"##############################@@################################",
"############################@@##@@##############################",
"############################@@##@@##############################",
"################################################################",
"################################################################"
};
